<?xml version="1.0" standalone="no"?>
<!DOCTYPE svg PUBLIC "-//W3C//DTD SVG 20010904//EN"
 "http://www.w3.org/TR/2001/REC-SVG-20010904/DTD/svg10.dtd">
<svg version="1.0" xmlns="http://www.w3.org/2000/svg"
 width="512.000000pt" height="512.000000pt" viewBox="0 0 512.000000 512.000000"
 preserveAspectRatio="xMidYMid meet">
<metadata>
Created by potrace 1.16, written by Peter Selinger 2001-2019
</metadata>
<g transform="translate(0.000000,512.000000) scale(0.100000,-0.100000)"
fill="#000000" stroke="none">
<path d="M2406 4340 c-52 -26 -82 -55 -114 -110 -23 -39 -27 -56 -27 -125 0
-70 4 -87 30 -134 68 -122 193 -165 313 -105 133 66 180 215 111 353 -47 93
-122 141 -221 141 -32 -1 -69 -9 -92 -20z m147 -24 c41 -17 91 -74 107 -121
32 -97 -52 -231 -156 -251 -109 -20 -204 66 -204 186 0 137 134 236 253 186z"/>
<path d="M1762 4250 c-74 -16 -150 -57 -211 -115 -62 -59 -72 -63 -92 -39 -20
24 -111 74 -136 74 -24 0 -70 -49 -79 -86 -9 -36 30 -107 100 -180 l61 -64 0
-109 c1 -105 2 -111 38 -184 74 -149 207 -242 360 -254 42 -3 77 -7 77 -8 0
-1 -25 -39 -55 -84 -30 -46 -59 -99 -65 -117 -7 -19 -15 -34 -19 -34 -4 0 -16
19 -28 43 -11 23 -42 70 -68 105 -248 330 -715 306 -950 -48 -124 -186 -171
-377 -145 -581 36 -275 158 -463 366 -564 39 -19 95 -39 125 -44 l54 -9 -60
-1 c-77 -1 -164 21 -235 61 l-55 30 28 -30 c39 -40 131 -80 232 -101 l84 -16
-34 -33 c-134 -127 -203 -283 -206 -464 -2 -86 -15 -52 -19 47 -4 109 -30 145
-66 90 -26 -40 -13 -133 46 -306 27 -82 50 -159 50 -171 l0 -21 -24 22 c-30
28 -87 136 -110 206 -35 109 -40 262 -11 360 3 11 -3 4 -12 -15 -14 -28 -18
-62 -18 -175 0 -132 2 -145 33 -233 49 -143 136 -261 181 -247 12 4 23 -5 36
-32 30 -59 30 -60 -5 -28 -31 29 -32 29 -16 4 9 -15 45 -50 79 -79 139 -118
250 -169 387 -177 71 -4 109 0 229 27 79 17 187 47 240 65 53 18 98 32 100 29
3 -2 -15 -25 -39 -49 -65 -66 -110 -80 -258 -80 l-124 0 59 -28 c52 -25 66
-28 143 -25 71 3 97 10 154 36 165 77 462 325 526 439 l23 42 49 -25 c74 -37
95 -26 31 16 -29 19 -53 40 -53 47 0 21 23 63 34 63 6 0 60 -29 120 -65 208
-123 311 -155 516 -162 234 -8 433 32 627 128 265 131 510 396 567 614 8 33
14 60 13 61 -1 2 -32 -40 -67 -93 -262 -387 -641 -622 -1030 -638 -100 -4 -92
-2 58 16 402 46 753 286 950 649 176 325 230 700 151 1060 -32 148 -32 150 -4
98 123 -229 149 -599 65 -920 -10 -40 -17 -74 -16 -76 6 -6 46 104 65 178 64
254 49 555 -42 820 l-34 99 87 79 c134 124 181 232 125 287 -47 48 -92 30
-232 -91 -33 -30 -63 -54 -66 -54 -3 0 -24 33 -48 72 -187 311 -457 538 -757
638 -236 78 -512 63 -789 -43 -49 -19 -110 -39 -137 -46 -61 -15 -190 -80
-282 -141 l-72 -48 6 106 c5 125 -7 197 -49 280 -53 106 -144 190 -245 226
-55 19 -159 27 -212 16z m230 -62 c76 -35 147 -107 189 -193 32 -66 34 -75 34
-175 0 -93 -3 -111 -27 -163 -15 -32 -51 -81 -80 -110 -169 -169 -422 -151
-573 41 -169 213 -72 533 188 618 68 22 200 13 269 -18z m-583 -93 c34 -25 61
-49 61 -53 0 -5 -6 -16 -12 -25 -12 -15 -19 -12 -72 23 -32 22 -69 40 -82 40
-28 0 -31 16 -7 42 24 27 45 22 112 -27z m-64 -61 c23 -9 80 -94 62 -94 -19 0
-87 65 -87 84 0 18 2 19 25 10z m1999 -170 c50 -15 55 -19 37 -26 -12 -4 -19
-13 -16 -19 5 -7 -5 -8 -32 -3 -65 13 -283 7 -358 -9 -440 -97 -827 -457 -950
-883 -72 -250 -74 -475 -7 -744 l27 -107 -25 7 c-21 5 -28 18 -46 81 -55 190
-70 434 -38 620 22 131 78 310 125 399 81 155 253 349 424 477 128 96 316 183
469 218 86 20 311 13 390 -11z m181 -91 c127 -39 274 -127 380 -229 63 -59 64
-61 15 -22 -85 68 -210 149 -210 135 0 -2 33 -26 73 -52 177 -118 284 -229
380 -400 54 -97 64 -125 43 -125 -8 0 -29 26 -47 58 -42 75 -110 182 -116 182
-3 0 5 -15 16 -32 27 -41 108 -199 113 -219 4 -19 -150 -146 -161 -133 -66 79
-95 122 -110 167 -28 80 -47 113 -115 196 -34 42 -81 103 -103 136 -45 66
-103 124 -155 152 -25 14 -56 18 -128 18 -86 0 -101 -3 -160 -31 -36 -17 -90
-54 -121 -81 -50 -44 -64 -51 -115 -57 -62 -7 -126 -32 -177 -68 -28 -20 -42
-23 -117 -20 -61 3 -95 -1 -123 -12 -50 -22 -112 -79 -144 -133 -21 -36 -24
-51 -19 -87 l7 -44 -68 -52 c-82 -63 -106 -89 -141 -155 -23 -43 -27 -62 -27
-135 0 -70 4 -94 24 -135 14 -27 28 -65 32 -85 6 -34 7 -34 8 -5 1 28 2 28 15
10 19 -28 26 -64 36 -176 6 -73 14 -109 32 -141 28 -52 80 -88 124 -88 19 0
34 -3 34 -8 0 -4 -25 -40 -55 -80 -30 -40 -55 -77 -55 -82 0 -5 -5 -21 -10
-36 l-11 -27 -37 35 c-56 54 -147 114 -203 134 -49 18 -49 18 -73 94 -120 379
-70 775 137 1094 71 107 205 248 300 314 249 172 564 248 861 208 65 -8 123
-13 127 -10 18 11 8 23 -33 38 -41 15 -42 16 -8 10 19 -3 58 -12 85 -21z
m-990 -31 c-38 -21 -83 -46 -100 -57 -22 -13 -26 -14 -15 -3 17 19 160 98 175
98 6 0 -21 -17 -60 -38z m939 -199 c36 -11 66 -32 105 -72 75 -76 130 -147
108 -138 -10 4 -48 12 -85 19 -37 6 -76 18 -87 26 -18 13 -16 14 28 9 26 -2
46 -2 43 0 -11 11 -123 33 -166 33 -74 -1 -98 -32 -107 -141 -7 -76 -11 -82
-75 -92 -65 -10 -109 -38 -160 -103 -59 -76 -103 -99 -224 -120 -49 -8 -117
-25 -152 -37 -47 -17 -66 -19 -80 -11 -27 17 -26 60 3 109 29 51 26 54 -17 24
-58 -42 -71 -118 -28 -172 l19 -24 -51 -28 c-66 -36 -122 -87 -138 -125 -9
-22 -11 -68 -8 -158 5 -103 10 -140 31 -195 14 -38 28 -71 31 -74 3 -3 19 0
36 7 29 12 49 54 50 105 1 29 34 97 57 118 12 10 54 35 94 55 50 26 77 46 88
67 l16 31 34 -20 c28 -16 32 -23 27 -48 -5 -26 -3 -29 14 -23 15 5 20 2 20
-12 0 -34 -24 -51 -82 -62 -116 -21 -231 -105 -256 -188 -13 -44 -52 -83 -83
-83 -24 0 -24 -16 -1 -29 13 -7 14 -13 5 -22 -21 -21 -62 -1 -97 49 -42 57
-56 108 -56 205 0 70 -3 79 -36 128 -52 77 -66 114 -65 180 0 90 24 131 134
233 81 74 99 86 112 76 22 -18 18 -43 -10 -70 -14 -13 -30 -42 -36 -64 -18
-73 -30 -94 -68 -120 -47 -33 -71 -74 -71 -123 0 -47 32 -103 59 -103 29 0 35
18 9 22 -17 2 -27 14 -37 44 -19 55 -3 94 55 136 44 32 59 57 67 120 7 45 37
95 47 77 5 -7 11 2 15 22 3 19 18 44 32 56 l26 21 -30 16 c-89 46 -55 173 59
220 47 20 138 20 185 1 41 -17 89 -20 98 -5 4 6 -6 10 -22 10 l-28 0 25 21
c42 34 121 67 186 78 55 8 66 15 115 63 103 102 189 124 323 81z m-2113 -163
c138 -46 247 -144 314 -285 52 -109 65 -166 65 -292 0 -176 -47 -291 -170
-413 -113 -113 -243 -170 -388 -170 -125 0 -260 57 -359 153 -80 76 -127 147
-160 240 -23 62 -26 89 -27 197 -1 98 3 137 18 180 19 57 76 173 82 167 2 -2
-6 -27 -17 -56 -45 -120 -63 -279 -35 -317 20 -27 30 -13 55 80 25 93 60 178
71 171 3 -2 27 16 51 41 129 132 303 184 457 139 71 -21 172 -92 199 -141 17
-30 23 -34 23 -18 0 35 -42 87 -108 131 -75 51 -113 63 -213 70 -134 9 -247
-37 -349 -143 -65 -67 -75 -70 -34 -8 l26 39 -30 -28 c-42 -40 -77 -109 -106
-207 -32 -111 -44 -84 -22 47 11 67 28 120 54 172 20 42 37 82 37 90 0 19 87
93 146 125 122 67 285 81 420 36z m2123 -31 c148 -130 100 -266 -120 -339 -52
-18 -104 -41 -116 -52 -21 -18 -21 -19 -3 -13 11 4 52 16 90 27 120 35 180 74
226 146 37 59 39 115 4 166 l-24 36 27 0 c45 0 142 -29 176 -52 61 -42 96 -83
116 -135 11 -30 20 -61 20 -71 0 -9 14 -46 31 -82 54 -114 54 -109 6 -98 -158
37 -327 -80 -327 -226 0 -17 -7 -41 -15 -53 -15 -22 -97 -73 -168 -105 l-38
-18 7 23 c14 44 43 94 76 126 60 61 -10 15 -80 -52 -60 -57 -65 -59 -100 -52
-20 4 -73 10 -117 14 -68 7 -75 9 -47 16 17 4 32 12 32 17 0 5 -6 6 -12 2 -28
-15 60 70 99 97 23 16 56 50 73 74 45 65 72 79 162 86 72 5 81 8 113 39 18 18
39 45 45 61 16 37 41 53 129 79 54 16 75 27 83 45 29 63 -49 161 -152 190 -19
5 -15 0 15 -20 50 -34 65 -53 65 -80 0 -29 -26 -50 -80 -66 -59 -16 -75 -31
-104 -94 -30 -67 -77 -103 -152 -116 -128 -24 -140 -29 -228 -105 -97 -83
-127 -101 -182 -109 -53 -8 -72 5 -56 40 9 20 17 25 32 20 13 -4 37 6 75 30
30 20 55 39 55 41 0 5 -89 -44 -105 -58 -21 -19 -27 -6 -6 16 l23 24 -39 -13
c-102 -37 -184 -6 -186 69 -1 50 33 81 100 91 97 14 154 54 214 146 31 49 81
81 156 99 24 6 47 18 52 28 4 9 11 50 13 90 9 121 57 145 142 71z m-1450 -146
c-84 -159 -104 -192 -104 -173 0 30 69 171 114 234 26 36 49 66 52 66 3 0 -25
-57 -62 -127z m2567 117 c13 -7 19 -21 19 -42 0 -27 -12 -44 -67 -98 -68 -65
-255 -212 -388 -305 -118 -82 -141 -108 -160 -185 -27 -110 -93 -170 -188
-170 -35 0 -53 7 -87 34 -79 63 -91 121 -39 199 41 63 96 88 208 96 72 5 95
11 127 32 21 15 148 119 280 232 208 176 252 211 272 216 2 1 12 -4 23 -9z
m-2721 -125 c0 -2 -15 -33 -34 -67 -19 -35 -42 -88 -51 -118 -15 -43 -20 -51
-25 -35 -9 25 17 98 62 171 27 46 48 67 48 49z m899 -336 c-6 -12 -9 -36 -7
-53 l4 -32 -37 13 c-47 16 -130 -3 -163 -37 l-21 -22 40 20 c96 47 161 34 185
-37 12 -38 12 -44 -7 -69 -21 -28 -33 -36 -125 -77 -74 -33 -98 -68 -117 -168
-16 -80 -38 -114 -60 -92 -20 20 -43 137 -36 184 14 97 69 171 128 171 9 0 17
5 17 10 0 13 -15 13 -62 0 -39 -11 -73 -49 -88 -98 -6 -19 -7 -10 -4 28 11
111 25 131 129 194 39 23 73 36 96 36 20 0 56 11 80 24 55 31 63 31 48 5z
m1577 -189 c21 -118 21 -351 0 -464 -21 -111 -82 -297 -129 -396 -83 -174
-234 -357 -392 -475 -82 -61 -237 -139 -337 -169 -159 -48 -241 -59 -383 -53
-154 7 -274 36 -395 97 -83 41 -194 112 -205 131 -15 23 5 16 90 -36 151 -91
308 -139 486 -149 101 -6 80 1 -76 24 -159 24 -327 93 -450 187 l-64 48 -3 81
-3 82 77 -39 c58 -29 84 -49 102 -77 29 -47 79 -90 112 -98 14 -4 42 -3 62 1
51 9 48 9 142 -10 158 -33 362 -4 525 75 103 50 141 79 52 40 -98 -43 -187
-68 -302 -85 -120 -18 -187 -19 -274 -4 -58 10 -63 13 -41 21 14 6 60 7 105 3
188 -17 242 -4 304 72 182 223 211 292 211 493 l0 100 28 0 c15 0 54 -14 86
-31 50 -27 67 -31 115 -27 31 2 72 12 91 22 23 12 55 18 93 17 111 -3 186 54
195 149 5 60 -11 112 -55 172 l-33 46 31 50 c42 69 49 144 20 231 -12 35 -20
69 -18 75 3 6 25 26 50 43 l45 33 16 -88 c43 -235 45 -447 6 -632 -11 -52 -20
-99 -19 -105 1 -25 71 218 85 294 20 111 20 329 -1 444 -8 49 -12 94 -8 100 9
15 39 -82 59 -193z m-3759 83 c-3 -10 -5 -2 -5 17 0 19 2 27 5 18 2 -10 2 -26
0 -35z m3499 -58 c24 -59 18 -116 -21 -189 -19 -37 -35 -72 -35 -79 0 -6 18
-41 40 -77 60 -97 53 -167 -20 -205 -39 -20 -69 -19 -137 5 -76 27 -104 25
-162 -7 l-50 -28 -63 23 c-35 12 -71 22 -81 22 -12 0 -24 16 -37 46 -11 25
-20 47 -20 49 0 3 16 -5 34 -16 19 -11 60 -23 90 -26 47 -5 64 -1 121 26 72
33 122 39 186 19 49 -14 86 0 95 39 6 22 2 31 -26 55 -42 35 -53 27 -16 -11
49 -51 16 -94 -51 -66 -54 23 -120 19 -183 -12 -41 -20 -71 -26 -115 -27 -77
0 -114 21 -166 93 l-39 55 36 12 c40 14 110 77 120 107 5 15 11 9 33 -34 50
-101 164 -151 253 -111 40 17 51 31 97 110 37 65 55 109 62 154 9 57 26 108
36 108 2 0 11 -16 19 -35z m-3414 -198 c113 -214 356 -355 573 -332 82 8 178
43 250 91 89 58 95 60 42 10 -56 -52 -126 -89 -217 -112 -82 -21 -222 -15
-301 12 -126 44 -249 141 -325 255 -52 78 -104 214 -103 269 0 27 4 19 19 -38
11 -41 39 -110 62 -155z m3074 -37 c42 -16 88 -11 137 14 l47 23 0 -21 c0 -47
-60 -96 -119 -96 -64 0 -131 46 -157 107 -23 53 -16 57 27 19 22 -20 51 -41
65 -46z m-468 14 c61 -24 103 -80 167 -221 l56 -126 1 -121 c2 -192 -27 -283
-129 -408 -106 -130 -148 -152 -250 -128 l-54 13 73 22 c143 42 232 103 281
193 32 59 49 138 38 178 -7 25 -8 22 -14 -30 -19 -186 -170 -299 -468 -350
-21 -4 -43 -13 -50 -22 -26 -32 -91 -56 -133 -51 -60 8 -106 61 -106 122 0 35
-13 72 -57 162 -53 106 -58 123 -61 192 -5 97 20 167 83 236 39 42 43 45 31
19 -40 -82 -40 -222 -1 -305 10 -24 13 -26 9 -9 -3 14 -8 68 -11 121 -5 81 -2
106 16 160 77 232 312 367 504 290 16 -6 56 -37 89 -69 64 -60 65 -47 4 25
-49 56 -125 93 -192 93 -113 0 -255 -66 -326 -152 -24 -28 -73 -84 -109 -122
-76 -83 -90 -104 -112 -170 -35 -101 -17 -196 59 -331 25 -44 48 -96 51 -115
l6 -35 -24 21 c-13 12 -57 38 -96 58 l-73 36 -45 90 c-25 49 -45 102 -45 117
1 48 39 115 100 178 43 44 67 80 90 135 61 145 67 152 193 214 131 64 182 98
97 65 -100 -39 -130 -45 -130 -29 0 22 53 40 170 59 148 24 303 22 368 -5z
m-1468 -318 c12 -36 19 -70 15 -76 -8 -12 -85 -13 -104 -1 -21 13 -9 151 20
226 l22 60 13 -72 c6 -39 22 -101 34 -137z m-196 72 c8 -18 17 -59 21 -90 l6
-58 -85 0 c-62 0 -86 3 -86 13 0 26 103 167 123 167 4 0 14 -15 21 -32z m-95
-172 c-2 -2 -33 -12 -69 -21 -245 -63 -469 -250 -546 -457 -12 -35 -23 -55
-23 -46 -1 31 39 124 80 189 97 149 259 265 447 319 62 17 121 26 111 16z
m600 -66 c64 -31 100 -57 156 -113 136 -137 189 -310 154 -503 -11 -61 -29
-96 -29 -56 0 42 -28 91 -89 154 -66 70 -114 130 -155 198 -17 28 -25 35 -21
20 19 -69 80 -163 177 -273 35 -40 42 -55 46 -100 6 -72 -21 -123 -112 -210
-213 -206 -417 -289 -671 -274 -121 8 -194 26 -300 76 -155 73 -256 170 -323
309 -90 189 -43 394 131 567 90 90 168 140 277 179 80 29 219 56 288 56 l45 0
-45 -30 c-25 -17 -81 -68 -125 -113 -109 -114 -118 -141 -118 -352 1 -135 4
-169 21 -217 12 -32 17 -58 13 -58 -5 0 -22 19 -39 42 -16 22 -30 37 -30 32 0
-12 37 -73 63 -104 12 -14 3 -7 -21 15 -27 25 -50 59 -63 95 -20 51 -20 61 -8
137 9 65 10 98 0 150 -19 112 13 180 118 248 62 39 113 85 97 85 -4 0 -27 -11
-50 -25 -23 -14 -67 -33 -97 -44 -137 -47 -249 -132 -303 -231 -36 -66 -59
-180 -51 -248 15 -124 63 -219 157 -308 69 -67 156 -116 245 -139 66 -17 191
-20 245 -5 28 8 44 8 60 -1 13 -7 52 -13 88 -13 52 -1 76 5 125 28 72 36 136
93 180 162 18 29 49 64 68 78 36 27 59 72 71 136 6 30 3 27 -19 -20 -14 -30
-49 -78 -78 -105 -29 -28 -61 -66 -72 -85 -41 -70 -120 -86 -261 -50 -108 27
-214 81 -274 140 -182 177 -170 533 23 698 161 137 322 160 506 72z m-630
-200 c-72 -149 -66 -377 14 -513 73 -124 258 -220 457 -236 l85 -7 -74 -23
c-126 -41 -225 -16 -329 82 -31 30 -72 62 -89 71 -69 35 -135 223 -136 386 -1
115 15 186 54 240 37 51 42 51 18 0z m-186 -32 c-14 -28 -18 -65 -19 -238 -2
-113 1 -221 6 -240 21 -80 89 -140 194 -171 50 -15 81 -32 115 -63 25 -23 57
-50 71 -59 24 -16 21 -17 -70 -17 -167 0 -275 43 -386 154 -79 79 -116 147
-134 244 -28 155 57 327 200 403 19 10 36 18 38 19 1 0 -5 -15 -15 -32z m-426
-280 c-3 -7 -5 -2 -5 12 0 14 2 19 5 13 2 -7 2 -19 0 -25z m1568 -180 c-12
-71 -44 -145 -86 -198 -22 -28 -44 -50 -49 -50 -5 0 8 30 29 68 20 37 53 102
72 144 19 43 36 78 37 78 2 0 1 -19 -3 -42z m-1430 -315 c107 -122 269 -214
435 -248 l65 -13 -57 -1 c-106 -2 -260 61 -367 150 -59 49 -136 147 -170 215
-46 96 -46 116 1 31 24 -43 66 -104 93 -134z m412 -154 c44 -11 116 -23 159
-28 l79 -8 -63 -2 c-88 -2 -204 24 -289 64 -40 19 -73 36 -73 39 0 3 24 -6 54
-20 29 -13 89 -33 133 -45z"/>
<path d="M1764 4161 c-61 -16 -127 -57 -175 -109 -151 -166 -97 -433 108 -534
58 -28 77 -33 143 -32 55 0 88 6 122 21 63 28 144 106 176 168 23 43 27 62 27
140 0 77 -4 98 -27 147 -56 120 -158 195 -278 203 -36 2 -79 1 -96 -4z m68
-76 c-40 -8 -94 -25 -119 -40 -39 -21 -44 -22 -29 -6 34 38 97 61 161 60 l60
-1 -73 -13z m169 -56 l24 -20 -30 17 c-39 24 -40 24 -28 24 6 0 21 -9 34 -21z
m-36 -15 c18 -8 43 -27 56 -41 l24 -26 -41 27 c-74 48 -121 35 -166 -46 -12
-21 -25 -38 -29 -38 -10 0 39 89 64 118 24 26 47 28 92 6z m-210 -109 l30 -26
-44 22 c-35 17 -49 19 -67 10 -13 -6 -24 -7 -24 -2 0 29 69 26 105 -4z m283
-257 c-62 -82 -187 -120 -272 -84 -50 21 -41 31 14 16 73 -20 165 8 238 71 43
38 50 37 20 -3z m-383 -19 c20 -22 20 -22 0 -11 -11 5 -29 20 -40 33 -20 22
-20 22 0 11 11 -5 29 -20 40 -33z"/>
<path d="M2429 3573 c-13 -16 -12 -17 4 -4 16 13 21 21 13 21 -2 0 -10 -8 -17
-17z"/>
<path d="M2330 3483 l-55 -58 58 55 c31 30 57 56 57 57 0 8 -10 -1 -60 -54z"/>
<path d="M2234 3378 l-19 -23 23 19 c21 18 27 26 19 26 -2 0 -12 -10 -23 -22z"/>
<path d="M2199 3333 c-13 -16 -12 -17 4 -4 16 13 21 21 13 21 -2 0 -10 -8 -17
-17z"/>
<path d="M2169 3293 c-13 -16 -12 -17 4 -4 9 7 17 15 17 17 0 8 -8 3 -21 -13z"/>
<path d="M2995 3675 c-73 -13 -134 -32 -210 -65 -59 -25 -57 -32 3 -14 136 42
237 56 414 58 97 0 175 2 173 4 -2 2 -38 10 -81 17 -97 17 -206 17 -299 0z"/>
<path d="M2540 3353 c-37 -24 -90 -75 -102 -98 -6 -11 13 3 43 30 30 28 65 58
79 67 14 9 20 17 15 17 -6 1 -22 -6 -35 -16z"/>
<path d="M3302 3507 c-19 -6 -55 -30 -80 -55 -26 -24 -36 -37 -22 -28 90 58
116 70 164 74 38 4 46 7 31 13 -27 10 -53 9 -93 -4z"/>
<path d="M3075 3351 c-58 -17 -130 -50 -110 -50 6 -1 39 8 73 19 78 24 149 26
181 4 13 -9 31 -34 41 -56 17 -38 18 -39 24 -14 8 34 -11 73 -49 96 -39 24
-80 24 -160 1z"/>
<path d="M2727 3246 c-51 -19 -75 -42 -87 -85 -17 -63 -10 -68 18 -11 41 83
64 95 182 95 123 0 140 -11 140 -92 l0 -53 -38 0 c-29 0 -49 9 -92 45 -34 28
-64 45 -80 44 -23 0 -23 -1 -5 -9 11 -4 36 -25 55 -45 93 -98 200 -89 200 17
0 52 -14 77 -55 94 -44 18 -187 18 -238 0z"/>
<path d="M2600 3195 c-22 -27 -5 -37 19 -11 19 20 21 26 9 26 -9 0 -21 -7 -28
-15z"/>
<path d="M2737 3044 c-27 -14 -47 -28 -44 -31 7 -7 73 25 88 43 15 18 13 18
-44 -12z"/>
<path d="M2695 2965 c-22 -13 -35 -25 -30 -25 6 0 19 6 30 14 11 7 34 18 50
24 22 8 25 11 10 11 -11 1 -38 -10 -60 -24z"/>
<path d="M2675 2511 c-28 -16 -57 -36 -64 -45 -8 -9 9 -2 36 16 28 18 59 38
69 45 38 24 8 12 -41 -16z"/>
<path d="M1103 3365 c-64 -17 -157 -65 -198 -100 l-30 -26 30 14 c52 25 188
65 241 71 73 9 206 -17 283 -55 42 -21 90 -56 133 -99 58 -58 69 -75 88 -136
11 -39 27 -106 34 -150 l14 -79 1 56 c1 73 -30 195 -70 270 -96 180 -333 286
-526 234z"/>
<path d="M1440 3213 c61 -43 130 -118 159 -173 33 -62 47 -77 36 -37 -25 85
-93 165 -170 203 -28 14 -39 17 -25 7z"/>
<path d="M1098 3134 c-69 -21 -167 -99 -205 -163 -120 -202 -24 -486 188 -556
63 -21 197 -17 249 8 l35 16 -40 -7 c-22 -4 -79 -7 -126 -7 -72 1 -94 5 -141
28 -95 46 -179 157 -182 239 0 21 -5 38 -10 38 -13 0 0 138 19 192 23 65 95
142 169 181 55 29 69 32 153 32 50 0 86 3 80 7 -20 13 -139 7 -189 -8z"/>
<path d="M1355 3126 c61 -28 118 -90 154 -165 23 -50 26 -68 26 -166 0 -99 -3
-116 -28 -170 -15 -32 -39 -74 -53 -93 -14 -18 -24 -36 -21 -39 10 -10 95 117
114 170 13 36 18 80 18 147 0 81 -4 103 -27 152 -46 99 -146 187 -213 188 -11
0 2 -10 30 -24z"/>
<path d="M1178 3033 c12 -2 30 -2 40 0 9 3 -1 5 -23 4 -22 0 -30 -2 -17 -4z"/>
<path d="M1340 2975 c13 -14 26 -25 28 -25 3 0 -5 11 -18 25 -13 14 -26 25
-28 25 -3 0 5 -11 18 -25z"/>
<path d="M1390 2905 c0 -5 5 -17 10 -25 5 -8 10 -10 10 -5 0 6 -5 17 -10 25
-5 8 -10 11 -10 5z"/>
<path d="M999 2828 c-20 -77 10 -178 69 -231 45 -41 132 -57 203 -37 48 13
118 75 140 124 19 42 23 112 9 156 -5 18 -8 5 -8 -43 0 -54 -5 -76 -26 -112
-37 -62 -103 -100 -176 -100 -78 0 -127 28 -168 96 -31 50 -33 60 -30 122 2
37 3 67 1 67 -1 0 -7 -19 -14 -42z"/>
<path d="M776 2650 c24 -91 132 -219 224 -263 62 -30 142 -48 204 -45 39 1 39
1 6 5 -87 8 -159 27 -213 56 -72 38 -156 127 -197 209 -17 35 -28 52 -24 38z"/>
<path d="M890 2664 c0 -17 56 -98 91 -131 33 -31 95 -63 121 -63 7 0 -9 11
-37 24 -58 27 -106 72 -147 135 -15 25 -28 40 -28 35z"/>
<path d="M1010 2573 c0 -21 85 -81 98 -69 3 3 0 6 -6 6 -7 0 -30 16 -52 36
-22 20 -40 32 -40 27z"/>
<path d="M1394 2404 c-22 -13 -65 -30 -95 -38 -30 -8 -44 -15 -32 -15 30 -1
127 36 155 59 30 25 22 23 -28 -6z"/>
<path d="M3400 3185 c-16 -20 -70 -48 -144 -76 -30 -11 -63 -28 -74 -37 -10
-9 -13 -14 -7 -11 5 4 49 21 97 39 81 30 160 81 147 94 -3 4 -12 -1 -19 -9z"/>
<path d="M3645 3110 c-25 -11 1 -11 35 0 20 6 21 8 5 8 -11 0 -29 -3 -40 -8z"/>
<path d="M3552 3030 c-39 -47 -71 -65 -149 -84 -68 -17 -47 -21 26 -5 58 12
118 53 144 98 24 41 19 39 -21 -9z"/>
<path d="M3153 3004 c-59 -34 -54 -40 7 -9 46 24 61 35 43 35 -5 0 -27 -12
-50 -26z"/>
<path d="M3147 2919 c-92 -91 -135 -120 -211 -144 -28 -9 -34 -13 -19 -14 12
-1 48 9 80 20 49 18 75 39 160 125 56 57 97 104 92 104 -6 0 -52 -41 -102 -91z"/>
<path d="M3713 2940 c-24 -10 -43 -21 -43 -24 0 -2 -3 -13 -7 -23 -5 -14 1
-12 25 9 18 15 52 32 75 38 62 16 65 18 27 19 -19 0 -54 -8 -77 -19z"/>
<path d="M2894 2851 c-18 -11 -35 -25 -39 -31 -6 -9 66 30 84 46 13 12 -19 1
-45 -15z"/>
<path d="M3382 2794 c-12 -8 -27 -25 -33 -37 -11 -20 -9 -19 17 4 16 15 38 31
49 37 14 8 16 11 5 12 -9 0 -26 -7 -38 -16z"/>
<path d="M3254 2628 l-19 -23 23 19 c12 11 22 21 22 23 0 8 -8 2 -26 -19z"/>
<path d="M4413 3158 c-190 -170 -238 -209 -347 -291 -49 -37 -83 -67 -76 -67
19 0 219 153 368 284 74 64 154 132 178 152 42 34 55 54 36 54 -5 0 -76 -60
-159 -132z"/>
<path d="M3795 2810 c-17 -7 -16 -9 10 -10 47 -1 108 -34 143 -76 37 -44 43
-33 10 16 -43 62 -113 93 -163 70z"/>
<path d="M3906 1958 c-18 -40 -45 -93 -61 -118 -40 -63 -4 -30 41 37 42 63 79
153 64 153 -6 0 -25 -33 -44 -72z"/>
<path d="M3900 1478 c-64 -57 -120 -94 -235 -155 -113 -60 -122 -72 -12 -17
99 50 192 112 252 167 28 25 48 46 45 46 -3 0 -25 -18 -50 -41z"/>
<path d="M3277 2425 c88 -78 131 -166 188 -390 13 -49 24 -78 24 -63 2 48 -65
294 -95 347 -30 57 -109 135 -145 144 -16 4 -7 -8 28 -38z"/>
<path d="M2962 2254 c-154 -76 -178 -280 -48 -409 65 -65 131 -90 217 -82 177
16 281 206 200 366 -27 51 -110 124 -159 139 -69 21 -152 15 -210 -14z m234
-17 c160 -83 184 -305 42 -402 -110 -76 -255 -42 -342 82 -39 57 -48 160 -18
219 25 48 66 88 112 109 44 19 162 15 206 -8z"/>
<path d="M2718 1594 c14 -26 69 -74 84 -74 6 0 9 1 7 3 -2 2 -26 23 -53 48
-29 26 -45 35 -38 23z"/>
<path d="M1870 2010 c-11 -7 -5 -10 24 -10 42 0 100 -30 116 -61 6 -10 20 -23
31 -30 19 -10 20 -9 9 13 -40 76 -130 120 -180 88z"/>
<path d="M1592 1870 c-23 -17 -42 -33 -42 -37 0 -3 8 1 18 9 9 9 33 25 52 37
19 11 30 21 24 21 -6 0 -30 -14 -52 -30z"/>
<path d="M1752 1764 c-131 -65 -176 -217 -107 -360 89 -183 301 -229 435 -95
102 102 106 267 8 385 -75 91 -229 123 -336 70z m207 -10 c65 -19 130 -81 156
-147 13 -33 16 -66 13 -121 -3 -64 -8 -81 -33 -118 -67 -94 -158 -126 -269
-94 -113 33 -189 140 -188 265 1 172 144 268 321 215z"/>
<path d="M1665 1567 c-11 -42 3 -110 35 -160 36 -57 100 -95 184 -110 60 -10
66 -9 117 16 35 17 61 38 73 59 l19 33 -30 -28 c-16 -15 -33 -24 -37 -20 -4 5
-6 1 -4 -6 5 -25 -62 -42 -127 -31 -117 19 -193 101 -214 230 -7 42 -8 43 -16
17z"/>
<path d="M1710 1524 c0 -11 7 -29 15 -40 13 -17 14 -16 3 16 -14 43 -18 49
-18 24z"/>
<path d="M2281 1706 c10 -33 19 -80 20 -105 1 -45 1 -46 11 -15 11 35 -9 122
-36 159 -11 15 -10 4 5 -39z"/>
<path d="M471 2411 c-8 -14 6 -66 60 -222 105 -307 151 -426 176 -456 l22 -28
-24 75 c-145 450 -186 582 -183 585 4 5 113 -257 208 -498 32 -82 60 -143 62
-135 8 22 -59 202 -170 456 -109 247 -126 271 -151 223z"/>
<path d="M2685 1014 c70 -38 175 -72 274 -89 161 -29 442 -12 534 30 18 9 24
13 13 10 -68 -19 -207 -35 -311 -35 -146 0 -261 18 -412 65 -62 20 -120 38
-130 41 -10 3 4 -7 32 -22z"/>
</g>
</svg>