<?xml version="1.0" standalone="no"?>
<!DOCTYPE svg PUBLIC "-//W3C//DTD SVG 20010904//EN"
 "http://www.w3.org/TR/2001/REC-SVG-20010904/DTD/svg10.dtd">
<svg version="1.0" xmlns="http://www.w3.org/2000/svg"
 width="512.000000pt" height="512.000000pt" viewBox="0 0 512.000000 512.000000"
 preserveAspectRatio="xMidYMid meet">
<metadata>
Created by potrace 1.16, written by Peter Selinger 2001-2019
</metadata>
<g transform="translate(0.000000,512.000000) scale(0.100000,-0.100000)"
fill="#000000" stroke="none">
<path d="M4483 5010 c-151 -125 -160 -140 -148 -248 9 -82 11 -86 38 -67 27
19 33 19 40 1 4 -9 -30 -42 -99 -96 -164 -129 -147 -134 25 -7 88 65 95 68
108 51 7 -10 13 -21 13 -25 0 -22 -728 -522 -989 -678 -22 -14 -39 -27 -36
-29 8 -9 243 140 594 375 l364 245 34 -16 c53 -25 120 -20 178 13 121 69 374
323 403 404 14 40 25 53 64 75 45 26 48 29 48 70 l0 42 -252 0 -253 0 -132
-110z m467 35 c0 -14 -5 -25 -11 -25 -6 0 -8 9 -4 21 9 29 5 26 -150 -101
-178 -145 -235 -189 -205 -158 43 45 344 288 358 288 6 0 12 -11 12 -25z m-22
-73 c-5 -13 -247 -232 -298 -270 -43 -33 7 15 205 196 89 82 100 90 93 74z
m-404 -261 c-8 -8 -33 34 -33 54 0 15 5 11 19 -15 10 -19 16 -37 14 -39z m-70
-20 c27 -46 16 -46 -17 1 -16 22 -22 38 -15 36 7 -3 21 -19 32 -37z"/>
<path d="M3979 4379 c-169 -135 -206 -166 -154 -134 36 23 325 254 325 260 0
9 -8 4 -171 -126z"/>
<path d="M3008 4466 c-13 -18 -42 -57 -66 -87 -48 -59 -83 -123 -102 -186 -11
-37 -18 -44 -48 -49 -52 -10 -99 -57 -117 -118 l-15 -51 -57 5 c-56 5 -58 6
-78 47 -37 79 -102 125 -149 107 -9 -3 -24 13 -44 48 -40 71 -115 143 -180
174 -42 20 -56 23 -68 13 -31 -25 -10 -49 43 -49 58 0 142 -72 192 -166 l21
-39 -22 -15 c-44 -27 -106 -98 -112 -127 l-7 -29 -67 9 c-107 15 -383 2 -474
-22 -93 -24 -127 -41 -179 -88 -48 -43 -76 -94 -85 -155 -5 -28 -18 -56 -39
-78 -123 -138 -149 -244 -100 -397 14 -43 28 -104 31 -135 6 -53 5 -59 -25
-97 -17 -21 -40 -60 -52 -85 -22 -51 -44 -202 -35 -250 28 -162 28 -153 -4
-246 -46 -134 -41 -232 22 -385 l24 -60 -22 -70 c-13 -38 -23 -80 -23 -92 -1
-17 -19 -31 -82 -65 -105 -56 -205 -148 -250 -230 -31 -58 -34 -70 -34 -148 1
-150 57 -272 181 -396 289 -289 758 -441 1419 -461 407 -12 784 39 1120 151
340 114 560 267 652 454 34 67 37 81 41 182 4 104 3 112 -23 167 -60 124 -224
247 -432 324 -109 41 -111 43 -102 67 13 33 2 80 -22 95 -17 10 -19 24 -19
118 0 98 2 108 22 121 17 11 22 27 26 76 4 55 2 63 -22 85 -23 22 -26 33 -32
135 l-7 112 27 21 c23 18 26 28 26 78 0 43 -5 65 -20 84 -25 32 -28 150 -5
181 20 26 19 75 -2 98 -16 18 -15 20 10 44 21 19 27 34 27 67 -1 46 -13 67
-47 86 -46 24 -57 65 -58 206 0 115 3 140 28 218 19 61 38 100 62 126 45 49
44 68 -2 89 -32 13 -70 16 -228 14 -104 -1 -229 0 -276 4 l-86 6 4 41 c7 78
-70 168 -164 192 -56 15 -56 18 -12 113 36 80 79 134 135 173 32 22 44 37 44
54 0 37 -35 32 -62 -9z m-588 -381 c0 -13 -34 -72 -54 -93 -19 -22 -67 -52
-81 -52 -3 0 -5 7 -5 15 0 8 17 26 39 39 21 13 48 41 59 60 18 31 42 48 42 31z
m405 -22 c52 -25 43 -36 -24 -28 -54 6 -60 5 -75 -16 -20 -29 -20 -62 -1 -99
26 -50 65 -63 172 -58 66 3 88 1 76 -6 -10 -6 -57 -11 -105 -11 -102 0 -134
17 -157 82 -19 54 -3 116 37 137 34 19 35 19 77 -1z m-554 -49 c-59 -74 -19
-194 75 -224 28 -10 28 -10 -6 -5 -40 6 -77 38 -96 82 -24 57 -16 110 24 156
24 27 26 20 3 -9z m356 -54 c25 0 53 -24 53 -46 0 -11 -16 -14 -69 -14 l-69 0
-4 36 -4 36 35 -6 c20 -3 46 -6 58 -6z m-497 -29 c47 -4 66 -10 68 -22 2 -12
-14 -18 -80 -26 -106 -15 -230 -54 -291 -92 -62 -40 -90 -84 -83 -134 11 -93
98 -164 351 -288 183 -89 255 -115 300 -107 13 3 26 0 28 -5 6 -20 26 4 63 74
50 95 129 165 259 229 99 48 394 164 401 157 2 -2 -45 -23 -104 -47 -129 -52
-268 -120 -340 -167 -84 -53 -143 -115 -216 -223 -76 -113 -111 -146 -161
-156 -49 -9 -73 -1 -135 47 -30 23 -80 53 -110 68 -50 23 -64 26 -145 22 -246
-11 -244 -11 -321 40 -96 64 -103 67 -185 84 -40 9 -81 23 -91 32 -26 24 -24
85 6 120 13 15 27 39 31 52 7 25 8 24 26 -11 10 -20 30 -45 44 -56 30 -24 545
-193 582 -192 5 1 -100 40 -232 88 -132 49 -255 96 -273 105 -37 20 -77 77
-87 124 -22 106 87 223 246 263 102 26 305 35 449 21z m568 -62 c22 -35 73
-49 184 -49 105 0 153 13 171 46 6 10 18 13 35 10 15 -3 92 -8 171 -11 80 -3
147 -7 149 -10 3 -3 -1 -5 -8 -5 -7 0 -10 -3 -6 -7 4 -4 15 2 24 14 16 22 20
22 112 13 120 -13 131 -22 97 -81 -14 -24 -39 -87 -56 -140 -34 -105 -38 -163
-20 -289 20 -132 27 -118 -81 -149 -256 -74 -600 -227 -852 -378 -60 -36 -115
-63 -123 -59 -19 7 -29 49 -20 84 9 37 175 200 300 293 86 65 379 267 465 322
15 10 57 22 91 28 35 6 76 15 91 21 37 14 98 82 99 111 2 37 -3 102 -7 109 -3
4 -37 -17 -77 -47 -94 -71 -176 -111 -382 -186 -93 -34 -195 -74 -225 -89 -87
-44 -176 -116 -233 -189 -30 -39 -75 -81 -109 -103 -79 -51 -98 -84 -99 -178
l-2 -75 -9 69 c-13 91 -5 126 38 173 19 21 51 67 70 103 122 232 340 363 919
556 222 74 250 86 140 59 -72 -17 -85 -18 -65 -4 12 9 12 10 -4 5 -11 -4 -40
-11 -65 -17 -54 -12 -406 -131 -539 -183 -215 -83 -358 -180 -419 -283 -55
-94 -100 -88 -372 43 -210 102 -301 189 -301 287 0 19 9 45 19 59 25 31 119
81 192 102 44 12 211 38 215 32 0 0 10 -18 21 -38 l22 -37 -32 -6 c-90 -19
-126 -64 -69 -86 32 -13 404 -5 442 9 23 9 21 11 -28 25 -73 22 -74 23 -52 65
11 20 20 44 20 53 0 26 10 29 84 29 61 0 73 -3 84 -21z m-438 -139 c20 -7 16
-8 -22 -9 -26 -1 -50 4 -53 9 -7 12 38 12 75 0z m889 -255 c-3 -2 -52 -21
-109 -41 -205 -71 -319 -136 -386 -221 -53 -67 -60 -73 -38 -35 34 61 154 164
234 203 105 51 324 120 299 94z m-1814 -85 c17 -16 44 -26 87 -32 98 -13 271
-121 386 -242 88 -92 84 -101 -43 -101 -125 0 -153 -13 -190 -88 -36 -74 -82
-318 -67 -353 15 -31 54 -32 70 -1 6 12 13 77 14 144 3 105 6 125 24 150 25
33 65 41 100 18 22 -14 24 -21 24 -100 0 -153 46 -230 201 -336 130 -89 153
-135 194 -381 31 -188 51 -228 114 -228 11 0 24 -8 29 -17 5 -10 11 -128 12
-263 1 -135 3 -281 4 -325 0 -44 -6 -108 -13 -141 -11 -50 -11 -91 -1 -218 6
-85 9 -159 6 -164 -3 -5 -40 8 -83 29 -43 20 -139 58 -213 84 -321 111 -554
266 -677 450 -31 47 -36 65 -40 127 -3 52 -1 69 6 58 7 -10 13 -12 20 -5 7 7
-8 46 -44 118 -52 102 -55 113 -55 182 0 40 7 95 17 124 l16 52 48 -52 c41
-44 50 -50 64 -39 12 10 15 35 15 119 0 96 5 137 24 196 3 11 -3 1 -14 -23
-12 -24 -24 -76 -28 -120 -6 -68 -9 -77 -26 -74 -15 3 -18 -1 -13 -18 5 -21 5
-21 -13 -5 -24 22 -83 136 -105 205 -22 68 -23 182 -2 230 8 19 16 27 16 18 1
-9 5 -19 11 -23 6 -3 7 43 3 127 -13 293 -11 327 22 393 47 94 80 86 125 -32
10 -27 26 -85 35 -128 23 -111 59 -146 89 -87 9 18 15 77 19 182 6 200 28 266
104 305 23 12 24 15 8 15 -38 0 -86 -39 -107 -88 -18 -40 -22 -72 -26 -212 -4
-157 -11 -200 -32 -200 -19 0 -29 40 -50 195 -27 206 -34 231 -88 345 -43 89
-46 100 -46 180 -1 56 4 93 13 110 l15 25 8 -31 c4 -16 19 -41 33 -54z m2245
-297 c-1 -19 -18 -32 -56 -42 -22 -6 -98 -36 -168 -66 -224 -96 -490 -246
-696 -391 -192 -135 -260 -173 -260 -145 0 11 268 211 380 283 175 114 496
270 685 334 107 36 115 38 115 27z m-1085 -43 c-25 -49 -55 -177 -55 -238 0
-46 -5 -60 -30 -88 -52 -60 -53 -71 -37 -626 1 -47 5 -89 9 -93 4 -4 -5 -33
-19 -64 -23 -52 -25 -64 -19 -155 6 -110 21 -142 54 -119 134 95 1043 577
1170 621 65 23 29 -5 -55 -43 -115 -50 -362 -173 -460 -228 -43 -24 -179 -100
-303 -169 -320 -178 -379 -215 -386 -243 -7 -27 -2 -81 17 -193 12 -70 12 -76
-9 -115 -24 -46 -28 -87 -11 -118 7 -15 6 -42 -5 -102 -9 -45 -17 -144 -19
-220 -2 -85 -8 -142 -15 -149 -7 -7 -14 -10 -16 -7 -7 7 -8 366 -1 520 3 80 2
185 -3 233 -7 59 -6 122 1 192 9 87 8 112 -5 161 -12 42 -14 72 -8 108 4 28 9
212 9 410 1 204 6 375 11 396 10 34 49 78 96 105 14 9 19 25 22 85 4 102 9
118 44 151 37 35 45 31 23 -12z m-1161 -40 c15 -65 15 -65 -4 -40 -13 16 -20
41 -20 69 0 57 6 50 24 -29z m541 -101 c22 -6 122 -51 221 -100 155 -77 183
-94 187 -116 9 -50 -15 -757 -27 -788 l-12 -30 -27 29 c-32 34 -33 42 -45 272
-8 161 -12 186 -35 236 -30 67 -63 88 -137 88 -64 0 -107 18 -153 64 -67 66
-104 168 -87 239 4 21 11 41 14 45 3 3 57 -8 119 -25 61 -17 126 -34 142 -38
30 -6 30 -6 7 10 -12 9 -73 39 -135 67 -61 28 -114 53 -116 54 -9 8 46 3 84
-7z m1701 -134 c-2 -7 -21 -16 -42 -20 -78 -14 -162 -56 -203 -100 -30 -32
-72 -59 -163 -102 -109 -52 -610 -336 -680 -384 -34 -24 -65 -24 -78 0 -15 29
-12 93 5 118 16 23 261 183 460 301 152 89 412 217 575 281 l125 50 3 -66 c2
-36 1 -72 -2 -78z m34 -64 c0 -5 -33 -19 -72 -31 -40 -12 -106 -39 -145 -60
-74 -40 -92 -41 -50 -3 31 28 80 52 162 79 76 25 105 29 105 15z m-37 -257 l5
-112 -66 -28 c-109 -45 -240 -113 -614 -315 -194 -106 -386 -210 -426 -232
-40 -21 -76 -36 -79 -33 -9 9 -9 134 0 189 8 45 10 47 40 47 20 0 60 16 102
41 238 140 1025 564 1031 556 1 -1 4 -52 7 -113z m7 -429 l0 -105 -27 -6 c-64
-16 -221 -93 -432 -213 -577 -328 -641 -362 -663 -359 -48 7 -66 108 -25 145
28 27 213 141 450 279 157 92 674 364 691 364 3 0 6 -47 6 -105z m19 -149 c-2
-2 -51 -23 -109 -46 -58 -22 -213 -96 -345 -164 -207 -107 -307 -161 -522
-283 -24 -14 -43 -23 -43 -20 0 6 201 122 345 199 66 36 181 98 255 139 141
76 371 178 404 179 11 0 17 -2 15 -4z m123 -132 c214 -68 386 -190 443 -317
61 -132 26 -255 -107 -383 -119 -115 -258 -191 -522 -285 -199 -72 -414 -118
-676 -144 -206 -21 -608 -16 -800 9 -608 82 -1041 285 -1173 548 -63 124 -68
230 -16 314 46 75 269 248 297 230 5 -3 12 -20 16 -38 3 -18 20 -62 38 -98
l31 -64 -24 -16 c-47 -30 -101 -84 -125 -126 -32 -54 -34 -133 -6 -195 39 -89
180 -195 336 -253 83 -31 351 -98 374 -94 9 2 -26 14 -78 27 -292 74 -539 211
-601 333 -21 41 -25 102 -9 143 10 28 97 125 111 125 5 0 9 -24 9 -52 0 -92
58 -184 191 -305 122 -109 303 -209 529 -288 74 -26 167 -63 205 -81 l70 -34
-90 5 c-216 13 -574 99 -839 202 -48 19 -90 32 -92 30 -6 -6 140 -68 248 -105
254 -90 783 -178 915 -153 87 17 359 151 1056 523 104 56 191 107 194 116 4 8
1 23 -5 33 -18 29 -15 134 4 150 21 17 44 63 44 88 0 11 -11 28 -25 39 -22 17
-25 28 -25 81 0 34 4 61 9 61 6 0 47 -12 93 -26z m-142 -58 l0 -75 -127 -72
c-71 -39 -177 -103 -238 -142 -247 -158 -430 -264 -619 -358 -109 -54 -203
-99 -209 -99 -18 0 -1 150 20 178 21 28 52 46 513 292 179 95 399 213 490 262
91 48 166 88 167 88 2 0 3 -33 3 -74z m-172 -219 c-29 -23 -219 -126 -205
-111 9 10 219 133 227 133 3 0 -7 -10 -22 -22z m-858 -121 c0 -9 -108 -66
-124 -66 -9 0 -16 6 -16 14 0 8 7 12 18 10 9 -2 40 7 67 20 58 29 55 27 55 22z
m640 -1 c0 -2 -10 -9 -22 -15 -22 -11 -22 -10 -4 4 21 17 26 19 26 11z m-420
-250 c0 -2 -22 -16 -50 -30 -27 -14 -50 -23 -50 -20 0 2 21 16 48 29 53 28 52
28 52 21z m-115 -63 c-14 -13 -171 -96 -162 -86 12 13 151 93 162 94 5 0 5 -3
0 -8z m1395 -76 c0 -2 -8 -10 -17 -17 -16 -13 -17 -12 -4 4 13 16 21 21 21 13z
m-40 -31 c0 -12 -160 -109 -245 -150 -233 -111 -523 -191 -840 -231 -197 -26
-643 -26 -840 0 -185 23 -393 67 -535 112 -110 35 -300 116 -300 128 0 4 21
-4 48 -18 275 -139 741 -226 1204 -226 408 0 710 47 1043 160 133 45 333 140
410 194 55 38 55 38 55 31z m-1633 -167 c-2 -24 -4 -5 -4 42 0 47 2 66 4 43 2
-24 2 -62 0 -85z"/>
<path d="M1778 3886 c-36 -13 -80 -33 -96 -45 -45 -31 -91 -88 -98 -119 -3
-15 -7 -33 -10 -40 -5 -16 7 -104 13 -98 3 2 6 27 8 54 8 115 95 202 255 253
45 15 49 18 25 18 -16 0 -60 -10 -97 -23z"/>
<path d="M3436 3322 c-4 -4 -12 -8 -17 -8 -5 -1 -12 -2 -15 -3 -8 -1 16 -31
25 -31 11 0 31 39 22 44 -4 3 -11 2 -15 -2z"/>
<path d="M3251 3309 c-23 -9 -24 -11 -7 -27 16 -16 18 -16 32 2 26 35 18 42
-25 25z"/>
<path d="M2876 3112 c-4 -4 -12 -8 -17 -8 -5 -1 -12 -2 -15 -3 -9 -2 17 -31
27 -31 13 0 30 38 20 44 -4 3 -11 2 -15 -2z"/>
<path d="M1680 3136 c0 -10 9 -16 25 -16 14 0 25 5 25 10 0 6 -4 10 -9 10 -5
0 -16 3 -25 6 -11 4 -16 1 -16 -10z"/>
<path d="M1400 2495 c-13 -13 -38 -30 -57 -36 -32 -10 -36 -9 -64 22 -31 35
-38 25 -14 -21 9 -17 27 -33 41 -36 36 -9 90 18 109 57 21 40 15 46 -15 14z"/>
<path d="M1380 2385 c-24 -13 -24 -13 15 -8 33 4 44 1 61 -19 20 -22 20 -28
11 -117 -17 -152 10 -261 86 -347 l32 -37 7 -161 c3 -89 7 -197 8 -241 4 -135
17 -39 20 140 2 117 5 146 10 109 9 -60 23 -90 51 -104 34 -19 59 -71 59 -122
0 -53 11 -60 36 -23 14 21 15 60 12 308 -2 257 -1 286 15 310 24 37 43 34 92
-15 72 -73 86 -128 96 -373 10 -266 20 -317 77 -377 24 -26 25 -31 19 -116 -4
-49 -9 -97 -13 -106 -9 -23 13 -20 26 3 5 11 13 58 16 105 5 56 11 86 19 86
19 0 52 42 66 85 19 57 16 207 -5 279 -20 68 -28 71 -16 6 26 -132 -8 -335
-55 -335 -41 0 -78 167 -94 421 -13 204 -23 262 -57 332 -42 86 -120 117 -177
71 -44 -34 -50 -81 -43 -324 l6 -220 -44 46 c-39 41 -44 52 -51 110 -10 83
-14 94 -65 154 -23 28 -55 77 -71 110 -24 50 -28 68 -23 110 8 66 -20 231 -42
256 -20 22 -49 24 -84 4z m113 -205 c3 -46 2 -63 -3 -45 -8 30 -13 132 -6 124
2 -2 6 -38 9 -79z m428 -72 c20 -22 49 -78 49 -95 0 -4 -12 11 -26 35 -14 23
-41 51 -62 62 -36 19 -36 19 -10 20 16 0 36 -10 49 -22z"/>
<path d="M1692 1205 c-31 -26 -62 -81 -62 -111 0 -9 10 3 23 27 25 46 77 89
109 89 11 0 33 -13 49 -29 40 -41 38 -77 -7 -137 l-36 -47 32 19 c18 10 42 36
52 56 54 104 -71 208 -160 133z"/>
<path d="M2139 2603 c0 -11 -3 -13 -6 -5 -5 14 -23 16 -23 3 0 -5 7 -17 16
-26 15 -15 19 -15 32 -1 15 15 10 46 -8 46 -5 0 -10 -8 -11 -17z"/>
<path d="M2937 2576 c-29 -11 -31 -29 -4 -34 8 -2 21 6 27 18 14 27 12 29 -23
16z"/>
<path d="M2558 2286 c-19 -14 -24 -36 -9 -36 12 0 33 28 29 39 -2 6 -10 4 -20
-3z"/>
<path d="M3394 2366 c-3 -8 -12 -12 -20 -9 -8 3 -14 0 -14 -6 0 -21 32 -25 46
-6 8 10 14 22 14 27 0 14 -20 9 -26 -6z"/>
<path d="M3092 2235 c-21 -11 -21 -13 -6 -26 14 -11 18 -11 30 6 26 35 17 43
-24 20z"/>
<path d="M2668 1986 c-22 -16 -23 -36 -3 -36 12 0 35 28 35 44 0 10 -14 6 -32
-8z"/>
<path d="M2508 1886 c-19 -14 -24 -36 -9 -36 12 0 33 28 29 39 -2 6 -10 4 -20
-3z"/>
<path d="M3326 1953 c-4 -5 -13 -8 -18 -8 -19 0 -20 -22 -1 -29 16 -7 43 16
43 36 0 10 -14 10 -24 1z"/>
<path d="M3091 1799 c-21 -17 -22 -22 -10 -30 15 -9 39 13 39 38 0 16 0 16
-29 -8z"/>
<path d="M2873 1666 c-27 -13 -29 -24 -7 -33 11 -4 22 1 30 12 26 35 17 42
-23 21z"/>
<path d="M2513 1473 c-16 -6 -17 -33 -3 -33 11 0 26 28 19 34 -2 2 -10 1 -16
-1z"/>
<path d="M3720 1557 c0 -2 29 -23 63 -45 78 -50 142 -113 168 -164 79 -155
-78 -323 -425 -453 -112 -41 -371 -110 -459 -120 -32 -4 -56 -10 -53 -13 9 -8
155 18 275 50 438 115 700 287 701 458 0 55 -41 131 -98 181 -45 39 -172 117
-172 106z"/>
<path d="M3554 1215 c25 -48 -1 -92 -94 -155 -111 -76 -271 -143 -455 -190
-60 -16 -102 -29 -92 -29 10 -1 54 8 97 19 371 95 649 284 545 370 -13 11 -13
9 -1 -15z"/>
<path d="M2858 833 c6 -2 18 -2 25 0 6 3 1 5 -13 5 -14 0 -19 -2 -12 -5z"/>
<path d="M1838 823 c7 -3 16 -2 19 1 4 3 -2 6 -13 5 -11 0 -14 -3 -6 -6z"/>
<path d="M3458 763 c7 -3 16 -2 19 1 4 3 -2 6 -13 5 -11 0 -14 -3 -6 -6z"/>
<path d="M2968 753 c7 -3 16 -2 19 1 4 3 -2 6 -13 5 -11 0 -14 -3 -6 -6z"/>
<path d="M3275 729 c-172 -37 -351 -67 -510 -84 l-130 -14 106 4 c174 7 441
49 619 97 143 38 98 37 -85 -3z"/>
<path d="M3535 1660 c-3 -5 -12 -7 -20 -3 -9 3 -15 -1 -15 -10 0 -29 22 -30
48 -3 21 20 23 26 10 26 -9 0 -19 -4 -23 -10z"/>
<path d="M3185 1467 c-6 -15 -10 -16 -16 -5 -7 10 -9 9 -9 -4 0 -9 5 -20 11
-24 15 -9 32 10 26 32 -4 18 -4 18 -12 1z"/>
<path d="M3012 1381 c-21 -16 -22 -18 -7 -31 20 -16 38 -1 33 28 -3 20 -4 21
-26 3z"/>
<path d="M2786 1245 c-16 -12 -17 -18 -7 -28 10 -10 15 -8 27 7 26 36 15 47
-20 21z"/>
<path d="M2597 1136 c-15 -11 -15 -15 -3 -25 14 -12 18 -9 29 22 8 20 -1 21
-26 3z"/>
<path d="M2515 1099 c-4 -6 -5 -13 -2 -16 7 -7 27 6 27 18 0 12 -17 12 -25 -2z"/>
<path d="M2432 1069 c2 -6 8 -10 13 -10 5 0 11 4 13 10 2 6 -4 11 -13 11 -9 0
-15 -5 -13 -11z"/>
</g>
</svg>