<?xml version="1.0" standalone="no"?>
<!DOCTYPE svg PUBLIC "-//W3C//DTD SVG 20010904//EN"
 "http://www.w3.org/TR/2001/REC-SVG-20010904/DTD/svg10.dtd">
<svg version="1.0" xmlns="http://www.w3.org/2000/svg"
 width="512.000000pt" height="512.000000pt" viewBox="0 0 512.000000 512.000000"
 preserveAspectRatio="xMidYMid meet">
<metadata>
Created by potrace 1.16, written by Peter Selinger 2001-2019
</metadata>
<g transform="translate(0.000000,512.000000) scale(0.100000,-0.100000)"
fill="#000000" stroke="none">
<path d="M1721 4064 c-89 -44 -201 -136 -201 -164 0 -14 4 -11 93 60 31 25
100 69 154 97 127 68 87 74 -46 7z"/>
<path d="M2315 4103 c-303 -39 -603 -179 -804 -375 -70 -69 -141 -158 -145
-182 -1 -8 -32 -50 -68 -93 -208 -248 -285 -436 -308 -759 -20 -282 26 -594
135 -920 74 -221 129 -303 272 -407 171 -123 379 -209 633 -262 170 -36 471
-46 644 -21 361 52 573 171 927 518 159 156 221 240 307 413 82 166 111 281
119 481 10 225 -19 373 -131 682 -71 195 -107 266 -182 360 -172 215 -545 438
-872 521 -163 42 -395 61 -527 44z m403 -54 c284 -49 609 -203 852 -403 157
-129 226 -245 328 -551 84 -251 96 -315 97 -515 0 -234 -31 -382 -117 -555
-49 -99 -152 -253 -213 -320 l-46 -50 34 46 c52 71 109 178 105 197 -2 10 -19
-12 -45 -59 -87 -158 -204 -294 -368 -429 -239 -196 -508 -292 -860 -307 -380
-16 -766 87 -1047 279 -151 103 -201 172 -273 379 -48 137 -90 297 -115 438
-28 161 -24 182 14 66 29 -92 70 -184 116 -260 9 -16 20 -53 23 -82 14 -124
163 -319 329 -429 181 -121 549 -241 763 -249 93 -3 100 -3 44 5 -272 35 -610
146 -784 257 -80 51 -178 143 -237 221 -50 67 -98 168 -98 207 0 17 -29 87
-65 160 -45 90 -75 167 -97 250 -31 115 -33 128 -32 300 0 153 3 194 23 275
61 249 152 399 405 668 58 62 106 116 106 120 0 3 -28 -21 -62 -53 -113 -109
-137 -126 -79 -58 177 207 479 385 761 447 172 38 336 40 538 5z"/>
<path d="M2360 3869 c-304 -39 -666 -196 -830 -360 -113 -113 -227 -297 -275
-446 -59 -185 -81 -481 -51 -697 47 -329 219 -643 449 -819 208 -160 439 -238
756 -253 357 -18 743 83 962 252 107 82 222 231 302 391 160 316 208 732 126
1082 -99 425 -551 788 -1059 851 -97 12 -285 11 -380 -1z m440 -46 c265 -43
500 -163 691 -353 156 -156 239 -302 282 -500 18 -80 21 -130 21 -310 1 -186
-2 -229 -22 -317 -66 -300 -185 -537 -358 -708 -91 -91 -155 -132 -289 -186
-197 -79 -345 -109 -585 -116 -401 -12 -699 83 -937 301 -155 141 -306 427
-354 671 -21 108 -19 496 3 601 63 288 219 539 418 669 156 102 400 202 585
239 181 37 358 39 545 9z"/>
<path d="M2920 3725 c114 -35 254 -102 353 -170 l82 -56 -54 51 c-102 97 -278
180 -413 195 -50 5 -49 4 32 -20z"/>
<path d="M2258 3614 c-26 -8 -49 -18 -52 -22 -2 -4 67 -7 153 -7 190 0 196 -3
173 -73 -10 -30 -15 -88 -16 -164 l-1 -117 -36 5 c-88 14 -237 -64 -309 -161
-47 -64 -107 -97 -217 -120 -70 -15 -98 -11 -130 17 -63 57 -20 243 82 356 90
100 224 173 358 196 37 6 66 16 65 21 -2 6 -34 10 -73 9 -150 -1 -339 -116
-441 -268 -18 -28 -55 -78 -80 -111 -49 -63 -130 -221 -140 -272 -5 -25 -13
-33 -47 -43 -122 -36 -197 -132 -197 -250 0 -67 14 -113 48 -159 25 -34 111
-81 148 -81 18 0 22 -8 28 -57 18 -156 90 -339 180 -460 95 -129 288 -250 466
-293 187 -44 373 -36 560 26 58 19 109 39 113 43 4 4 -52 -8 -125 -27 -277
-72 -527 -53 -749 58 -131 64 -246 161 -232 195 3 9 -17 49 -45 93 -82 125
-124 233 -147 380 l-7 42 44 0 c23 0 52 3 64 6 20 5 21 1 27 -108 6 -129 36
-241 88 -323 67 -107 117 -138 227 -141 61 -1 82 -7 140 -37 37 -20 80 -49 96
-66 30 -31 69 -41 82 -20 10 17 162 6 199 -15 55 -30 192 -15 366 40 77 24 90
34 157 114 l37 45 -40 -32 c-22 -17 -58 -40 -80 -51 -55 -29 -195 -68 -292
-82 -74 -11 -85 -10 -126 8 -37 16 -47 27 -62 66 -47 124 17 271 166 381 95
70 472 226 576 239 29 4 41 0 64 -24 25 -25 29 -36 29 -87 0 -71 -43 -200 -94
-283 -38 -62 -45 -90 -22 -90 26 0 100 118 120 190 4 14 28 66 52 115 44 90
74 196 74 269 0 25 8 50 24 70 40 53 56 93 56 140 0 37 -5 48 -27 66 -24 19
-36 21 -88 16 -33 -3 -70 -8 -82 -12 -19 -5 -22 -1 -28 33 -25 166 -54 251
-93 268 -12 5 -27 25 -33 43 -6 18 -21 45 -33 60 -13 15 -34 49 -47 77 -30 62
-119 151 -185 187 -91 49 -218 71 -278 48 -39 -14 -54 -48 -75 -164 -11 -60
-22 -111 -25 -114 -14 -13 -5 233 10 294 21 82 11 108 -43 123 -54 15 -219 12
-275 -5z m557 -179 c106 -28 201 -91 255 -170 l29 -43 -40 9 c-102 23 -259
-42 -368 -151 -65 -66 -69 -68 -89 -54 -27 19 -27 40 -2 129 11 39 27 113 36
165 21 134 45 149 179 115z m-1045 -255 c-7 -13 -14 -57 -17 -99 -4 -60 -2
-84 11 -109 21 -41 70 -72 116 -73 l35 -1 -30 -9 c-16 -5 -47 -6 -69 -3 -26 4
-41 2 -46 -7 -7 -10 -14 -10 -39 0 -19 9 -48 11 -80 6 l-50 -7 25 64 c36 88
49 113 102 194 44 68 68 92 42 44z m733 4 c13 -4 9 -15 -19 -51 -19 -25 -39
-54 -45 -64 -19 -36 6 -18 45 31 22 28 43 50 47 50 8 0 1 -120 -7 -129 -2 -2
-39 -3 -82 -2 -59 2 -92 -3 -134 -19 -69 -26 -157 -105 -199 -180 -29 -52 -30
-50 -6 11 8 21 6 34 -11 67 l-21 41 45 17 c34 13 53 30 82 73 43 63 117 124
177 145 42 15 103 20 128 10z m580 -8 c18 -7 43 -26 57 -41 22 -23 25 -36 25
-99 0 -67 -3 -76 -44 -145 -24 -40 -61 -91 -82 -112 -39 -39 -96 -79 -112 -79
-4 0 21 35 57 78 92 108 126 176 125 243 l-2 54 -7 -56 c-9 -71 -46 -140 -120
-220 l-59 -64 -1 36 c0 46 -47 119 -95 149 l-38 24 79 76 c43 41 99 86 124 98
31 15 38 22 24 22 -32 0 -122 -63 -184 -130 l-55 -59 -59 13 -58 12 63 66
c114 117 268 174 362 134z m185 -199 c32 -80 50 -216 31 -228 -23 -15 -27 -11
-34 39 -4 26 -13 61 -21 77 l-14 30 4 -31 c3 -17 8 -54 12 -82 l6 -50 -63 -32
c-35 -17 -86 -48 -114 -69 -80 -60 -93 -63 -49 -11 33 40 184 340 190 378 4
25 11 41 18 39 6 -2 21 -29 34 -60z m-678 18 c11 -13 10 -14 -4 -9 -9 3 -16
10 -16 15 0 13 6 11 20 -6z m-55 -46 c67 -25 155 -103 184 -162 36 -74 24
-139 -39 -211 -43 -48 -79 -66 -133 -66 -71 0 -111 42 -91 95 5 13 10 10 25
-14 17 -28 59 -60 59 -45 0 4 -16 24 -35 45 -32 35 -44 59 -30 59 3 0 25 -21
50 -47 25 -25 48 -44 51 -40 3 3 -10 20 -30 38 -20 17 -35 33 -33 35 2 3 21
-3 43 -12 46 -20 110 -36 98 -25 -5 4 -39 21 -76 37 -69 29 -73 44 -12 44 39
0 119 27 135 46 14 17 17 18 -59 -6 -35 -11 -78 -20 -95 -20 l-32 0 28 15 c39
20 109 76 103 82 -3 3 -20 -5 -38 -18 l-32 -24 23 38 c36 58 17 55 -22 -3 -19
-28 -44 -58 -55 -66 -17 -11 -14 -2 14 55 19 38 34 75 34 83 -1 7 -19 -23 -42
-67 -23 -44 -43 -75 -45 -68 -2 6 7 48 21 92 30 101 18 116 -15 18 -18 -55
-25 -66 -28 -47 -2 16 -8 -1 -16 -45 -18 -101 -34 -155 -47 -155 -7 0 -9 23
-6 68 4 53 15 90 47 159 50 108 52 127 7 54 l-33 -53 -7 51 c-9 68 -26 66 -19
-3 6 -60 -4 -134 -16 -120 -5 5 -17 43 -27 84 -10 41 -20 66 -22 55 -1 -11 6
-53 16 -94 22 -83 14 -79 -40 22 -41 76 -57 74 -18 -2 l30 -60 -56 26 c-30 14
-58 22 -61 19 -3 -3 24 -20 60 -37 70 -32 98 -54 50 -39 -46 14 -113 21 -113
11 0 -5 21 -12 48 -16 26 -4 62 -13 80 -20 43 -18 43 -37 0 -24 -44 12 -145
12 -153 -1 -3 -5 -5 -10 -3 -10 2 0 40 -13 86 -29 l82 -29 -85 -12 c-47 -7
-85 -16 -85 -22 0 -5 12 -7 28 -4 15 2 57 8 95 11 86 8 89 -9 4 -25 -68 -13
-108 -30 -71 -30 11 0 43 7 70 15 27 8 51 15 53 15 12 0 -54 -43 -91 -59 -23
-11 -37 -20 -30 -20 7 -1 27 6 45 15 l32 16 -34 -36 c-19 -19 -32 -38 -29 -41
3 -3 29 18 57 47 l52 53 -26 -53 c-14 -29 -31 -65 -36 -80 -20 -53 21 2 60 79
20 41 43 75 51 77 10 2 25 -13 38 -37 13 -22 30 -42 40 -45 11 -4 26 -33 42
-83 17 -53 26 -71 28 -55 2 13 -4 44 -12 69 -19 55 -19 53 -5 53 5 0 22 -26
36 -57 31 -67 43 -58 14 10 -11 26 -16 49 -11 52 9 6 70 -70 70 -87 0 -4 5 -8
10 -8 6 0 3 16 -6 38 -9 20 -19 44 -22 52 -3 8 9 3 27 -12 47 -40 61 -34 20 8
l-34 37 30 -6 c17 -3 38 -9 48 -12 24 -10 22 12 -3 25 -20 11 -19 13 25 62 25
27 45 56 45 64 0 31 18 12 22 -23 12 -90 -45 -207 -127 -263 -65 -45 -117 -60
-204 -60 -155 0 -218 42 -294 199 -48 98 -52 111 -51 176 2 224 216 380 419
304z m230 -53 c62 -29 105 -76 106 -119 2 -59 -3 -92 -18 -122 -20 -39 -18
-38 -42 -26 -17 9 -20 20 -19 69 2 66 -21 119 -79 182 -29 33 -32 40 -17 40
11 0 42 -11 69 -24z m-714 -12 c11 -14 9 -28 -13 -93 -46 -131 -60 -202 -62
-307 -1 -118 0 -117 -86 -30 -55 57 -81 67 -119 46 -10 -5 -24 -23 -31 -39 -9
-23 -21 -32 -49 -38 -46 -10 -138 -10 -173 0 -35 9 -85 52 -105 90 -21 41 -21
143 -1 182 20 38 73 88 115 109 41 20 163 47 163 35 0 -5 12 -9 26 -9 23 0 25
-3 19 -27 -12 -52 -52 -129 -86 -168 -35 -40 -118 -85 -156 -85 -12 0 -33 -4
-47 -10 -23 -8 -25 -12 -14 -35 13 -29 17 -30 44 -10 10 8 30 15 43 15 37 0
140 60 177 104 32 37 94 176 94 211 0 12 12 15 54 15 l53 0 18 -72 c21 -91 34
-115 36 -73 2 40 0 93 -7 133 -5 30 -2 34 38 51 54 24 53 24 69 5z m1003 -136
c-31 -53 -138 -210 -163 -238 -54 -64 -43 -23 14 51 31 40 63 87 71 104 14 27
14 28 0 10 -66 -85 -121 -144 -124 -131 -2 9 6 29 18 45 11 17 27 45 35 64 10
24 22 36 42 40 16 3 46 19 67 36 42 34 51 38 40 19z m440 -18 c32 -12 34 -41
5 -95 -47 -89 -159 -171 -280 -204 -41 -12 -115 -34 -164 -51 -49 -16 -101
-30 -116 -30 -87 0 -47 126 60 187 25 15 72 44 104 66 79 53 156 87 257 113
99 27 101 27 134 14z m-1381 -277 c86 -170 147 -216 320 -238 l47 -6 -51 -41
c-59 -47 -83 -95 -76 -153 l5 -40 -19 44 c-43 99 -145 216 -263 301 l-58 42 5
117 c2 64 11 141 18 171 l14 55 6 -80 c5 -68 13 -93 52 -172z m180 206 c36 -8
57 -17 57 -25 0 -17 5 -17 -72 2 -118 30 -107 47 15 23z m1167 -197 c0 -47
-24 -141 -50 -196 -14 -30 -18 -34 -13 -13 8 40 -4 90 -33 133 -20 29 -23 39
-12 45 7 4 31 21 53 37 22 17 43 31 48 31 4 1 7 -16 7 -37z m-1587 -55 c29
-29 81 -70 117 -91 146 -85 242 -183 300 -307 33 -72 65 -234 52 -268 l-8 -22
-34 26 c-19 14 -62 42 -95 62 -54 33 -69 37 -151 43 -109 7 -144 26 -198 108
-62 94 -81 168 -81 317 0 142 7 185 31 185 8 0 38 -24 67 -53z m987 -90 c3 -2
13 -8 23 -14 16 -8 9 -14 -45 -40 -35 -17 -64 -30 -66 -28 -1 1 9 22 22 46 13
24 30 64 38 89 l13 45 5 -47 c3 -26 8 -49 10 -51z m-91 21 c-12 -24 -75 -97
-140 -164 -145 -147 -173 -198 -173 -314 -1 -53 4 -84 17 -107 l18 -33 -51 0
-50 0 0 53 c0 28 -7 83 -15 122 -19 88 -19 87 6 46 27 -45 33 -34 19 32 -22
96 3 127 203 252 62 39 123 86 144 111 21 24 39 44 40 44 2 0 -6 -19 -18 -42z
m-989 -481 c0 -10 -25 20 -53 65 -30 49 -18 44 18 -6 19 -27 35 -54 35 -59z"/>
<path d="M2826 3356 c34 -8 80 -24 104 -36 23 -12 39 -16 35 -10 -13 21 -87
48 -145 54 l-55 6 61 -14z"/>
<path d="M2620 2660 c14 -4 34 -8 45 -8 l20 -1 -20 9 c-11 5 -31 8 -45 8 l-25
0 25 -8z"/>
<path d="M2361 2383 c1 -67 2 -67 10 -23 11 63 11 90 -1 90 -6 0 -9 -28 -9
-67z"/>
<path d="M2401 2373 c1 -55 3 -70 9 -53 12 36 12 130 0 130 -6 0 -10 -32 -9
-77z"/>
<path d="M2466 2385 c3 -38 11 -74 16 -80 13 -13 1 113 -13 135 -6 10 -7 -9
-3 -55z"/>
<path d="M1850 2673 c0 -19 -93 -116 -139 -145 -25 -15 -38 -28 -30 -28 31 0
112 65 146 117 20 29 33 56 30 60 -4 3 -7 2 -7 -4z"/>
<path d="M3303 2646 c-67 -29 -142 -65 -166 -79 -59 -35 -179 -168 -165 -183
3 -2 17 12 32 31 28 36 121 115 136 115 4 0 6 -19 3 -42 -5 -31 -3 -39 6 -34
7 5 11 24 10 48 -4 46 -8 42 141 112 88 41 158 86 135 85 -5 0 -65 -24 -132
-53z"/>
<path d="M3370 2610 c-24 -8 -23 -8 8 -9 17 -1 32 4 32 9 0 11 -5 11 -40 0z"/>
<path d="M3330 2590 c0 -11 66 -33 82 -28 7 3 -9 12 -35 21 -26 9 -47 12 -47
7z"/>
<path d="M3220 2567 c0 -17 34 -97 41 -97 12 0 12 -2 -7 53 -9 26 -20 47 -25
47 -5 0 -9 -1 -9 -3z"/>
<path d="M3286 2538 c10 -18 19 -28 21 -21 5 15 -15 53 -28 53 -5 0 -2 -15 7
-32z"/>
<path d="M2978 2463 c-51 -70 -55 -82 -19 -48 33 30 66 83 58 91 -3 3 -20 -17
-39 -43z"/>
<path d="M3191 2488 c-1 -16 4 -28 9 -28 12 0 12 8 0 35 -8 18 -9 17 -9 -7z"/>
<path d="M3035 2430 c-3 -5 1 -10 9 -10 9 0 16 5 16 10 0 6 -4 10 -9 10 -6 0
-13 -4 -16 -10z"/>
<path d="M1878 2327 c15 -18 92 -60 92 -50 -1 11 -75 63 -90 63 -9 0 -9 -4 -2
-13z"/>
<path d="M1902 2191 c13 -24 45 -64 73 -90 103 -96 136 -133 168 -189 27 -48
33 -53 35 -34 2 13 -8 48 -23 78 -22 45 -39 63 -97 101 -38 25 -84 64 -103 87
-78 95 -79 96 -53 47z"/>
<path d="M2086 2137 c93 -69 177 -165 203 -233 37 -95 42 -104 36 -59 -16 106
-99 219 -217 295 -81 53 -95 51 -22 -3z"/>
<path d="M2530 2129 c-51 -49 -89 -93 -86 -96 6 -7 192 165 195 180 3 21 -26
-2 -109 -84z"/>
<path d="M2600 3592 c0 -12 29 -19 125 -27 39 -3 78 -9 89 -12 11 -3 16 -1 12
5 -11 18 -226 50 -226 34z"/>
<path d="M2271 3424 c-17 -19 -54 -79 -81 -133 -27 -55 -75 -129 -107 -167
-46 -54 -51 -63 -24 -44 57 43 130 141 178 240 25 52 55 105 66 118 11 12 16
22 10 22 -6 0 -25 -16 -42 -36z"/>
<path d="M2360 3403 c-1 -27 -9 -73 -20 -103 -25 -72 -24 -85 2 -35 20 38 39
185 24 185 -3 0 -6 -21 -6 -47z"/>
<path d="M3369 3351 c-25 -25 -75 -61 -112 -79 -65 -32 -83 -54 -52 -65 24
-10 150 60 194 108 44 48 48 57 29 72 -10 8 -26 -3 -59 -36z"/>
<path d="M2084 3350 c-33 -16 -73 -44 -89 -61 -28 -29 -26 -28 29 9 32 23 73
46 92 52 19 7 34 16 34 21 0 12 0 13 -66 -21z"/>
<path d="M3097 2269 c-147 -50 -286 -111 -342 -149 -86 -59 -135 -140 -135
-223 0 -85 55 -137 144 -137 43 0 137 34 168 61 17 14 5 11 -42 -11 -51 -23
-79 -30 -128 -30 -59 0 -66 2 -98 34 -29 29 -34 41 -34 83 0 95 76 186 210
253 94 47 354 140 392 140 25 0 29 3 18 10 -22 14 -24 14 -153 -31z"/>
<path d="M3262 2238 c-1 -90 -43 -183 -133 -290 l-61 -73 65 66 c96 99 163
255 138 321 -7 18 -9 13 -9 -24z"/>
<path d="M3005 2006 c-55 -23 -109 -47 -120 -53 -24 -13 -80 -71 -74 -76 2 -2
63 28 136 67 207 111 229 135 58 62z"/>
<path d="M3195 1813 c-52 -65 -62 -81 -31 -53 32 29 70 79 64 85 -2 2 -17 -12
-33 -32z"/>
<path d="M3928 2323 c-23 -134 -21 -180 3 -78 11 44 18 103 17 130 -3 46 -4
42 -20 -52z"/>
<path d="M3816 2067 c-53 -53 -90 -148 -57 -147 5 1 86 133 99 163 8 16 -20 6
-42 -16z"/>
<path d="M3150 4086 c0 -13 102 -76 123 -76 22 0 -4 28 -53 58 -60 36 -70 38
-70 18z"/>
<path d="M3390 3976 c0 -3 64 -48 143 -99 160 -106 251 -194 309 -298 80 -145
148 -361 190 -604 29 -170 31 -472 5 -645 -69 -449 -224 -767 -488 -997 -71
-62 -159 -107 -293 -149 -59 -18 -83 -30 -74 -35 21 -12 128 13 243 56 125 47
152 61 243 124 130 93 234 213 307 359 45 90 41 118 -4 36 -77 -137 -180 -261
-281 -339 -107 -82 -115 -80 -32 9 46 49 106 121 133 159 183 261 299 694 299
1111 -1 342 -114 782 -253 986 -69 101 -174 191 -307 263 -72 40 -140 70 -140
63z"/>
<path d="M4441 3856 c-27 -43 -56 -177 -71 -321 -7 -66 -10 -243 -8 -445 3
-329 4 -336 27 -385 l24 -49 -6 -301 c-3 -165 -11 -403 -18 -530 -7 -126 -12
-307 -13 -402 l-1 -172 27 -27 c32 -33 78 -36 109 -8 l22 19 -7 709 -7 709 26
27 25 27 0 457 c0 599 -13 716 -81 724 -21 2 -31 -4 -48 -32z m63 -32 c16 -41
25 -276 27 -673 l2 -434 -34 -18 c-19 -10 -37 -18 -41 -19 -3 0 -19 26 -35 57
l-28 58 0 335 c0 265 4 360 18 456 27 193 68 299 91 238z"/>
<path d="M1392 3805 c-128 -84 -276 -256 -342 -397 -75 -160 -124 -500 -124
-858 0 -217 7 -290 55 -570 36 -206 58 -300 71 -300 5 0 7 8 5 18 -21 73 -58
293 -83 487 -27 200 -24 552 5 770 41 310 69 402 166 551 56 87 146 184 260
282 69 59 64 66 -13 17z"/>
<path d="M636 3648 c-25 -135 -37 -259 -43 -424 l-6 -191 44 -79 44 -79 -3
-370 c-1 -203 -7 -561 -12 -795 -8 -390 -8 -428 8 -460 33 -67 112 -66 145 2
17 34 17 51 8 210 -6 95 -16 297 -21 448 -6 151 -20 416 -30 589 -11 172 -17
332 -14 355 4 22 23 73 42 111 26 51 36 87 40 135 9 129 -37 580 -59 580 -5 0
-10 -120 -11 -267 -1 -174 -4 -245 -8 -203 -4 36 -8 117 -9 180 -1 63 -4 153
-8 200 -6 76 -8 81 -14 45 -5 -22 -8 -138 -8 -257 -1 -133 -5 -219 -11 -223
-7 -4 -10 86 -10 262 -1 179 -4 262 -10 251 -12 -20 -30 -263 -30 -410 0 -65
-4 -108 -10 -108 -11 0 -12 118 -1 355 7 151 1 217 -13 143z"/>
<path d="M4207 3218 c-24 -138 -36 -297 -40 -548 -4 -284 8 -224 23 110 10
242 22 401 36 490 4 22 4 40 2 40 -3 0 -12 -42 -21 -92z"/>
<path d="M4080 2057 c-35 -123 -33 -114 -21 -96 12 19 54 169 49 175 -3 2 -15
-33 -28 -79z"/>
<path d="M1060 1641 c0 -5 5 -13 10 -16 6 -3 10 -2 10 4 0 5 -4 13 -10 16 -5
3 -10 2 -10 -4z"/>
</g>
</svg>