<?xml version="1.0" standalone="no"?>
<!DOCTYPE svg PUBLIC "-//W3C//DTD SVG 20010904//EN"
 "http://www.w3.org/TR/2001/REC-SVG-20010904/DTD/svg10.dtd">
<svg version="1.0" xmlns="http://www.w3.org/2000/svg"
 width="512.000000pt" height="512.000000pt" viewBox="0 0 512.000000 512.000000"
 preserveAspectRatio="xMidYMid meet">
<metadata>
Created by potrace 1.16, written by Peter Selinger 2001-2019
</metadata>
<g transform="translate(0.000000,512.000000) scale(0.100000,-0.100000)"
fill="#000000" stroke="none">
<path d="M3256 4568 c-18 -40 -63 -143 -100 -228 l-68 -155 -422 0 -422 0 -39
48 c-83 105 -208 179 -339 198 l-74 11 -6 48 c-4 27 -15 58 -24 71 -16 18 -25
21 -55 15 -20 -4 -49 -17 -64 -30 l-27 -23 22 -37 c29 -49 28 -64 -5 -72 -129
-28 -214 -75 -300 -168 -103 -110 -153 -240 -153 -396 1 -248 126 -435 353
-526 l82 -33 12 -123 c7 -68 19 -184 27 -258 9 -74 25 -238 36 -365 11 -126
29 -266 40 -310 13 -52 29 -195 45 -405 26 -336 81 -979 90 -1063 l6 -47 -173
0 c-261 0 -568 -30 -680 -66 -163 -53 61 -108 587 -144 251 -17 959 -24 1156
-11 307 20 419 44 438 94 5 12 19 159 30 327 12 168 47 550 77 850 80 790 80
782 114 1180 26 307 34 371 51 403 11 21 22 59 25 85 35 369 55 608 50 627 -8
32 -81 60 -205 79 -57 8 -105 17 -107 19 -2 2 36 100 86 217 71 169 87 217 77
226 -13 13 -72 34 -94 34 -8 0 -29 -32 -47 -72z m105 -10 c-21 -52 -140 -327
-162 -370 -21 -44 -26 -48 -60 -48 l-37 0 34 70 c18 39 46 98 60 133 14 34 44
101 66 150 39 84 42 87 74 87 31 0 33 -2 25 -22z m-1668 -43 c-7 -21 -13 -19
-13 6 0 11 4 18 10 14 5 -3 7 -12 3 -20z m34 3 c-3 -8 -6 -5 -6 6 -1 11 2 17
5 13 3 -3 4 -12 1 -19z m51 -110 c5 -5 36 -13 68 -18 113 -16 198 -61 287
-153 58 -60 119 -169 132 -236 12 -56 -16 -32 -32 28 -42 166 -187 300 -364
337 -86 18 -101 25 -123 59 -12 19 -15 35 -9 63 l7 37 12 -54 c7 -29 17 -58
22 -63z m-58 76 c0 -8 -4 -12 -10 -9 -5 3 -10 10 -10 16 0 5 5 9 10 9 6 0 10
-7 10 -16z m1 -65 c10 -25 10 -38 0 -66 -13 -36 -16 -116 -6 -181 4 -28 3 -32
-4 -16 -18 40 -23 132 -11 184 10 43 10 56 -5 92 -13 34 -13 39 -2 29 8 -6 21
-25 28 -42z m-38 -50 c-6 -6 -36 -17 -69 -25 -89 -24 -132 -50 -210 -128 -79
-79 -106 -134 -124 -254 -20 -127 15 -241 100 -329 36 -38 45 -42 76 -38 23 3
45 -2 67 -15 18 -11 40 -20 50 -20 13 0 17 -9 17 -40 0 -29 -4 -40 -15 -40
-25 0 -87 29 -115 53 -18 16 -17 13 5 -11 31 -35 93 -72 120 -72 8 0 15 -4 15
-10 0 -16 -17 -12 -77 17 -122 60 -234 209 -263 350 -17 79 -8 205 20 276 44
117 177 238 298 273 31 9 68 21 82 28 25 12 40 2 23 -15z m272 -63 c93 -46
165 -122 209 -219 57 -125 62 -117 -67 -116 l-112 0 40 17 c63 27 85 42 85 57
0 16 -20 20 -35 7 -6 -5 -32 -21 -60 -36 l-50 -27 36 33 c38 35 99 111 99 123
0 4 -16 -12 -35 -36 -55 -70 -130 -127 -158 -122 l-25 5 24 57 c29 72 41 155
24 166 -19 11 -40 -17 -45 -61 l-5 -39 11 35 c23 76 26 47 4 -40 -26 -104 -35
-119 -56 -94 -14 17 -16 107 -3 167 4 21 2 27 -12 27 -15 0 -16 -8 -11 -62 l6
-63 -15 40 c-8 22 -19 44 -26 50 -20 18 0 -82 27 -135 24 -47 24 -50 6 -50
-10 0 -23 6 -29 13 -23 27 -44 322 -24 341 17 18 126 -3 197 -38z m-341 -72
c27 -10 85 -98 111 -168 14 -36 21 -66 17 -66 -4 0 -17 26 -30 58 -24 63 -58
116 -49 77 3 -11 8 -29 12 -40 10 -29 -31 21 -47 58 -11 24 -28 37 -28 22 0
-13 41 -83 69 -119 35 -44 36 -46 17 -46 -7 0 -45 38 -84 85 -39 47 -74 80
-77 74 -7 -10 -4 -15 60 -94 l40 -49 -58 47 c-57 46 -77 56 -77 38 0 -13 68
-70 99 -84 l26 -11 -32 -4 c-20 -2 -33 -9 -33 -17 0 -8 -5 -17 -12 -21 -7 -5
-8 -3 -3 6 6 10 4 12 -9 7 -9 -4 -15 -3 -11 2 5 8 -84 65 -91 58 -12 -12 31
-56 74 -77 28 -14 52 -28 52 -33 0 -4 -18 -5 -40 -2 -22 3 -58 7 -81 10 -30 4
-40 2 -37 -7 3 -8 35 -16 87 -22 96 -10 104 -28 17 -37 -31 -4 -60 -10 -64
-14 -4 -4 18 -5 48 -2 54 6 55 6 20 -7 -91 -35 -113 -47 -104 -56 10 -10 84 5
94 19 6 8 58 41 65 41 3 0 5 -8 5 -19 0 -17 -72 -80 -125 -109 -18 -10 -18
-11 -2 -12 10 0 33 7 52 14 19 8 35 13 35 11 0 -11 -62 -35 -88 -35 -34 0 -45
19 -62 108 -25 124 23 268 123 370 51 51 79 62 121 46z m1236 -75 c118 -6 217
-13 220 -15 2 -3 0 -8 -6 -12 -6 -4 -15 -18 -19 -32 -4 -14 -16 -40 -27 -57
-17 -28 -25 -33 -59 -33 -22 0 -61 11 -87 24 -95 47 -114 50 -195 26 l-72 -21
-90 19 c-49 11 -119 32 -155 46 l-65 25 328 0 c181 0 331 1 333 4 9 9 -157 17
-380 19 -160 1 -205 4 -146 8 143 11 196 10 420 -1z m520 -43 c96 -16 130 -27
148 -49 26 -31 -15 -68 -91 -82 -20 -4 -35 -11 -32 -15 5 -8 -84 -23 -255 -43
-139 -16 -960 -16 -1130 1 -248 23 -332 35 -317 43 8 5 85 1 173 -8 124 -13
265 -17 639 -17 484 -1 608 5 840 41 122 19 145 27 145 52 0 25 -61 46 -188
65 -51 7 -96 16 -99 20 -11 11 78 6 167 -8z m-210 -11 c0 -3 -14 -32 -30 -65
-27 -53 -34 -60 -60 -60 -37 0 -37 5 -3 75 25 50 30 55 60 55 18 0 33 -2 33
-5z m165 -30 c33 -8 74 -19 90 -25 43 -16 21 -25 -107 -44 -130 -20 -162 -20
-155 -3 41 104 37 98 76 91 20 -3 63 -12 96 -19z m-855 -28 c52 -14 86 -26 74
-27 -11 0 -67 -14 -123 -31 -57 -17 -107 -27 -111 -22 -4 4 -11 32 -15 62 l-7
53 43 -5 c24 -2 87 -16 139 -30z m385 -36 l95 -38 -76 -7 c-43 -3 -165 -6
-273 -5 -207 1 -215 6 -51 33 47 8 105 23 130 35 25 11 53 20 62 20 10 1 61
-16 113 -38z m635 -68 c0 -22 -38 -431 -46 -491 -5 -37 -12 -48 -55 -80 -49
-37 -96 -109 -86 -134 4 -9 6 -7 6 3 1 24 38 67 71 84 l29 15 -9 -28 c-6 -15
-19 -117 -29 -227 -11 -110 -27 -220 -35 -244 -9 -24 -16 -54 -16 -66 0 -12
-7 -38 -15 -58 -8 -19 -22 -117 -30 -218 -9 -101 -23 -211 -31 -244 -7 -33
-21 -146 -29 -251 -20 -259 -100 -906 -115 -935 -14 -28 -70 -89 -81 -89 -4 0
-10 17 -12 38 l-4 37 -1 -43 c-2 -42 -3 -44 -57 -67 -107 -48 -209 -67 -375
-72 -96 -3 -161 0 -170 6 -13 9 -15 118 -15 883 l0 873 23 38 c40 63 90 85
238 101 71 8 149 22 173 31 47 16 252 158 292 202 13 14 -7 2 -44 -26 -38 -28
-83 -58 -100 -67 -18 -9 -47 -30 -65 -46 -18 -15 -37 -26 -43 -23 -5 4 -9 1
-9 -5 0 -6 -5 -8 -12 -4 -7 5 -8 3 -3 -6 5 -8 3 -11 -6 -8 -8 3 -29 -1 -46 -9
-18 -7 -83 -17 -145 -22 -62 -6 -129 -17 -148 -25 -39 -17 -93 -51 -89 -57 1
-2 -7 -22 -18 -44 -20 -38 -21 -63 -25 -645 -3 -333 -2 -724 3 -869 5 -146 7
-266 6 -268 -12 -12 -237 62 -237 78 0 6 4 8 9 4 6 -3 9 3 8 14 0 11 -5 17 -9
15 -4 -3 -8 1 -8 8 0 9 -3 9 -10 -2 -7 -11 -10 4 -10 50 0 36 -7 108 -15 160
-8 52 -26 226 -40 385 -14 160 -29 337 -34 394 -7 79 -16 116 -35 152 -14 27
-21 49 -16 49 5 0 -2 16 -15 36 -14 20 -25 42 -25 48 0 6 -7 110 -15 230 l-15
219 -37 66 -37 66 -13 198 c-7 108 -17 206 -23 217 -6 11 -29 31 -50 45 -62
39 -68 57 -85 221 -8 82 -21 193 -28 247 -8 53 -13 97 -12 97 1 0 22 -7 46
-16 24 -9 91 -22 149 -29 90 -11 118 -11 190 1 47 8 105 22 130 31 38 14 111
18 475 24 428 6 652 21 796 53 86 19 89 19 89 -1z m-1800 -21 c0 -5 -7 -9 -15
-9 -8 0 -12 4 -9 9 3 4 9 8 15 8 5 0 9 -4 9 -8z m325 -15 l139 -12 -54 -17
c-108 -34 -193 -43 -283 -30 -84 12 -117 32 -117 70 0 16 -13 17 315 -11z
m-788 -159 c-3 -7 -5 -2 -5 12 0 14 2 19 5 13 2 -7 2 -19 0 -25z m330 -9 c-8
-19 -32 -50 -53 -70 l-39 -37 -23 29 -24 29 31 6 c17 4 50 24 73 45 23 21 44
37 46 35 2 -2 -3 -19 -11 -37z m-250 -160 c49 -71 137 -146 219 -185 41 -19
74 -37 74 -40 0 -2 -23 5 -50 15 -122 46 -229 145 -285 263 -19 40 -35 79 -35
88 0 8 11 -10 23 -40 13 -31 37 -76 54 -101z m248 73 c-21 -31 -34 -41 -61
-44 -19 -2 -34 0 -34 4 0 4 8 8 18 8 10 0 35 18 57 40 21 22 40 38 43 36 2 -2
-8 -22 -23 -44z m27 -32 c-2 -16 -10 -34 -17 -40 -16 -13 -15 -1 3 43 15 35
20 34 14 -3z m-149 3 c-7 -2 -19 -2 -25 0 -7 3 -2 5 12 5 14 0 19 -2 13 -5z
m311 -370 c2 -10 7 -74 11 -143 5 -105 21 -208 41 -269 4 -11 2 -11 -11 -1 -8
7 -12 16 -9 21 3 5 0 8 -6 7 -7 -2 -20 8 -31 22 -15 20 -21 59 -33 200 -8 96
-18 183 -22 194 -7 17 -5 17 24 2 17 -9 33 -24 36 -33z m20 -502 c4 -20 13
-120 21 -224 10 -124 23 -219 39 -281 29 -112 33 -147 46 -386 17 -305 60
-843 70 -867 11 -28 78 -62 195 -101 145 -48 213 -57 410 -57 148 1 196 5 273
23 151 35 290 112 317 175 17 39 18 35 5 -78 -18 -156 -18 -155 -55 -171 -51
-21 -198 -42 -385 -55 -270 -18 -701 13 -766 56 -18 12 -23 33 -38 177 -24
237 -44 533 -57 858 -10 269 -13 293 -45 425 -39 163 -49 224 -64 400 -6 72
-13 150 -15 175 l-5 45 24 -39 c14 -22 27 -56 30 -75z m1632 37 c-4 -29 -15
-141 -27 -248 -11 -107 -26 -224 -34 -260 -14 -67 -83 -673 -130 -1140 -29
-290 -49 -381 -40 -185 9 184 24 395 41 550 8 77 28 268 44 425 16 157 36 310
44 340 9 30 23 130 31 223 10 106 25 200 41 253 13 46 24 86 24 89 0 3 3 5 6
5 3 0 3 -24 0 -52z m-1536 -141 c0 -42 4 -59 15 -63 12 -5 15 -28 16 -118 0
-61 4 -136 8 -166 5 -31 5 -60 0 -66 -6 -7 -3 -32 7 -62 15 -45 20 -51 39 -46
16 4 24 -1 33 -20 12 -26 27 -163 37 -321 6 -109 41 -455 54 -545 6 -36 13
-110 17 -165 l7 -100 -46 48 c-53 54 -62 69 -70 117 -4 19 -20 202 -37 405
-41 508 -47 569 -71 676 -11 52 -24 165 -29 258 -5 91 -12 198 -15 236 l-5 70
20 -40 c12 -25 20 -61 20 -98z m1283 -1975 c-15 -30 -27 -40 -71 -54 -230 -77
-724 -87 -1029 -22 -55 12 -77 21 -93 41 -30 38 -24 48 10 20 35 -30 81 -42
107 -28 37 21 177 32 488 41 309 9 481 5 490 -10 3 -4 -11 -11 -31 -15 -20 -3
-34 -9 -31 -11 3 -3 31 2 63 10 60 15 103 50 105 84 1 15 2 15 6 -1 2 -9 -4
-34 -14 -55z"/>
<path d="M1848 4184 c-10 -10 -10 -124 0 -124 4 0 12 8 18 18 12 19 -5 120
-18 106z"/>
<path d="M1970 4144 c-11 -26 -20 -53 -20 -61 0 -8 -5 -23 -10 -34 -8 -15 -7
-19 4 -19 16 0 91 88 109 128 16 34 -3 40 -27 8 -46 -63 -58 -72 -33 -23 19
34 22 47 12 47 -8 0 -23 -21 -35 -46z"/>
<path d="M1482 4079 c3 -8 20 -23 39 -33 l34 -20 -20 23 c-26 30 -59 48 -53
30z"/>
<path d="M3023 3873 c9 -2 25 -2 35 0 9 3 1 5 -18 5 -19 0 -27 -2 -17 -5z"/>
<path d="M3060 3859 c-20 -6 -17 -7 18 -8 23 -1 42 1 42 3 0 9 -37 12 -60 5z"/>
<path d="M2988 3843 c6 -2 18 -2 25 0 6 3 1 5 -13 5 -14 0 -19 -2 -12 -5z"/>
<path d="M2762 3469 c-121 -11 -184 -27 -251 -60 -100 -50 -160 -134 -180
-250 l-9 -54 -1 58 c-1 35 -5 57 -12 57 -8 0 -10 -21 -5 -73 7 -81 -1 -99 -57
-112 -57 -15 -107 27 -148 123 -25 58 -43 79 -92 104 -36 18 -149 38 -136 24
3 -3 32 -13 65 -22 77 -20 115 -51 148 -121 47 -99 103 -141 170 -129 43 8 83
54 91 104 20 119 64 202 124 238 17 10 31 22 31 27 0 4 4 6 9 3 5 -3 26 1 47
8 22 8 32 15 24 16 -32 3 68 31 125 35 33 2 60 5 60 5 0 1 27 3 60 6 33 3 90
8 125 13 l65 8 -85 0 c-47 0 -122 -3 -168 -8z"/>
<path d="M3190 3363 c-14 -2 -126 -20 -249 -39 -194 -31 -291 -51 -256 -53 20
-2 412 58 484 74 97 20 110 33 21 18z"/>
<path d="M3152 3289 c-85 -28 -152 -52 -150 -55 7 -6 298 82 311 95 17 17 3
14 -161 -40z"/>
<path d="M3292 3190 c0 -19 2 -27 5 -17 2 9 2 25 0 35 -3 9 -5 1 -5 -18z"/>
<path d="M3283 3100 c0 -30 2 -43 4 -27 2 15 2 39 0 55 -2 15 -4 2 -4 -28z"/>
<path d="M3050 3029 l-55 -51 52 42 c47 37 70 60 61 60 -2 0 -28 -23 -58 -51z"/>
<path d="M2749 3037 c-34 -23 -137 -162 -127 -172 3 -3 24 22 48 56 23 33 61
78 83 100 47 44 45 49 -4 16z"/>
<path d="M3273 2985 c0 -27 2 -38 4 -22 2 15 2 37 0 50 -2 12 -4 0 -4 -28z"/>
<path d="M3262 2870 c0 -14 2 -19 5 -12 2 6 2 18 0 25 -3 6 -5 1 -5 -13z"/>
<path d="M1910 2836 c0 -2 8 -10 18 -17 15 -13 16 -12 3 4 -13 16 -21 21 -21
13z"/>
<path d="M3229 2811 c-15 -15 -51 -34 -81 -44 -76 -24 -131 -66 -158 -121 -18
-38 -24 -74 -30 -189 -19 -318 -45 -1114 -35 -1077 2 8 16 256 30 550 14 294
30 568 34 609 13 101 48 156 122 193 30 15 65 29 77 31 24 3 82 51 82 67 0 16
-13 10 -41 -19z"/>
<path d="M2171 2773 c61 -56 90 -112 99 -196 l7 -72 1 70 c1 49 -4 82 -17 110
-18 39 -101 125 -121 125 -5 0 8 -16 31 -37z"/>
<path d="M1965 2791 c11 -4 43 -14 70 -20 101 -24 121 -66 131 -262 7 -156 23
-232 23 -114 0 153 -15 300 -34 329 -25 38 -82 65 -152 71 -38 4 -51 2 -38 -4z"/>
<path d="M3175 2729 c-11 -21 -21 -75 -26 -148 -8 -100 -37 -401 -94 -981 -24
-243 -27 -349 -5 -165 31 261 99 948 110 1108 6 96 15 159 25 179 8 17 13 33
11 36 -3 2 -12 -11 -21 -29z"/>
<path d="M2683 2726 c47 -21 86 -64 93 -103 4 -20 5 -253 2 -517 -3 -265 -2
-440 2 -391 4 50 11 275 15 500 6 386 6 412 -12 445 -21 39 -76 80 -107 79
-18 -1 -17 -2 7 -13z"/>
<path d="M2915 2418 c-4 -79 -5 -161 -3 -183 1 -22 7 40 11 139 4 98 6 181 3
183 -2 2 -7 -60 -11 -139z"/>
<path d="M2342 1705 c0 -16 2 -22 5 -12 2 9 2 23 0 30 -3 6 -5 -1 -5 -18z"/>
<path d="M2912 1270 c0 -19 2 -27 5 -17 2 9 2 25 0 35 -3 9 -5 1 -5 -18z"/>
<path d="M3022 1220 c0 -19 2 -27 5 -17 2 9 2 25 0 35 -3 9 -5 1 -5 -18z"/>
<path d="M2763 955 c0 -22 2 -30 4 -17 2 12 2 30 0 40 -3 9 -5 -1 -4 -23z"/>
<path d="M1873 2470 c0 -41 2 -58 4 -37 2 20 2 54 0 75 -2 20 -4 3 -4 -38z"/>
<path d="M1881 2274 c0 -11 3 -14 6 -6 3 7 2 16 -1 19 -3 4 -6 -2 -5 -13z"/>
<path d="M1951 2014 c0 -11 3 -14 6 -6 3 7 2 16 -1 19 -3 4 -6 -2 -5 -13z"/>
<path d="M1962 1910 c0 -14 2 -19 5 -12 2 6 2 18 0 25 -3 6 -5 1 -5 -13z"/>
<path d="M1972 1790 c0 -14 2 -19 5 -12 2 6 2 18 0 25 -3 6 -5 1 -5 -13z"/>
<path d="M1993 1755 c0 -8 4 -12 9 -9 5 3 6 10 3 15 -9 13 -12 11 -12 -6z"/>
<path d="M1982 1680 c0 -14 2 -19 5 -12 2 6 2 18 0 25 -3 6 -5 1 -5 -13z"/>
<path d="M2012 1370 c0 -14 2 -19 5 -12 2 6 2 18 0 25 -3 6 -5 1 -5 -13z"/>
<path d="M2145 622 c42 -46 601 -54 698 -11 17 7 11 8 -23 4 -184 -20 -512
-15 -651 11 -24 5 -31 3 -24 -4z"/>
</g>
</svg>