<?xml version="1.0" standalone="no"?>
<!DOCTYPE svg PUBLIC "-//W3C//DTD SVG 20010904//EN"
 "http://www.w3.org/TR/2001/REC-SVG-20010904/DTD/svg10.dtd">
<svg version="1.0" xmlns="http://www.w3.org/2000/svg"
 width="512.000000pt" height="512.000000pt" viewBox="0 0 512.000000 512.000000"
 preserveAspectRatio="xMidYMid meet">
<metadata>
Created by potrace 1.16, written by Peter Selinger 2001-2019
</metadata>
<g transform="translate(0.000000,512.000000) scale(0.100000,-0.100000)"
fill="#000000" stroke="none">
<path d="M56 5058 l-56 -63 0 -285 0 -285 96 99 c52 54 98 96 101 92 8 -8 -39
-68 -125 -158 -41 -43 -72 -82 -70 -89 2 -6 50 37 106 95 l102 106 0 -395 0
-395 -35 0 c-24 0 -35 -5 -35 -15 0 -8 -8 -15 -18 -15 -37 0 -42 -20 -42 -157
l0 -134 50 7 c28 4 50 3 50 -2 -1 -7 -95 -60 -130 -72 -4 -2 -9 76 -9 173 0
96 -3 180 -6 185 -4 6 -12 4 -21 -4 -15 -16 -19 -36 -6 -36 5 0 12 -73 16
-162 5 -143 4 -164 -10 -175 -9 -6 -14 -18 -12 -26 2 -11 24 -3 88 33 46 27
88 46 92 44 5 -3 8 -99 8 -214 l0 -208 -42 -15 c-24 -8 -51 -18 -60 -22 -15
-6 -18 -1 -18 33 0 38 2 40 50 60 l50 21 0 145 c0 81 -3 146 -7 146 -3 0 -37
-14 -75 -31 l-68 -32 0 -139 c0 -90 4 -137 10 -133 6 4 10 -11 10 -38 0 -35
-5 -48 -23 -60 -39 -26 -12 -28 53 -2 35 14 65 23 67 21 2 -2 -28 -16 -66 -31
-60 -24 -71 -32 -71 -52 0 -12 5 -23 11 -23 5 0 48 16 95 35 46 19 91 35 99
35 38 0 8 -36 -74 -88 -49 -31 -98 -63 -108 -70 -17 -12 -17 -13 2 -6 52 18
155 15 155 -4 0 -4 -41 -34 -90 -66 -61 -39 -90 -64 -90 -77 0 -11 1 -19 3
-19 11 1 363 115 441 143 l99 36 -7 -91 c-9 -127 -32 -152 -67 -73 -11 25 -22
45 -24 45 -2 0 -2 -28 2 -63 6 -63 6 -64 -25 -76 -52 -22 -65 -13 -83 59 -20
75 -23 71 76 102 38 12 64 23 57 26 -17 5 -155 -37 -164 -52 -4 -6 -5 -43 -1
-83 l6 -72 -29 -7 c-16 -4 -46 -22 -67 -40 -41 -38 -85 -45 -111 -18 -15 14
-17 14 -22 -1 -4 -9 -24 -25 -45 -36 l-39 -19 0 -330 c0 -208 4 -331 10 -335
6 -3 10 -11 10 -16 0 -6 -4 -7 -10 -4 -14 9 -12 -19 2 -33 9 -9 9 -12 0 -12
-8 0 -12 -18 -11 -52 2 -49 2 -51 9 -18 6 31 8 28 9 -25 2 -81 8 -101 37 -114
14 -6 26 -11 28 -11 1 0 1 36 -2 80 l-5 81 37 -3 36 -2 0 -76 c0 -69 -2 -78
-23 -89 -17 -9 -32 -9 -67 2 l-45 13 -6 54 -6 55 -1 -63 c-2 -70 0 -72 87 -87
25 -4 51 -13 58 -20 7 -7 32 -16 55 -20 24 -3 193 -45 377 -93 301 -78 359
-98 339 -117 -6 -7 -642 164 -796 213 -86 28 -122 36 -122 27 0 -20 228 -92
621 -195 129 -34 245 -65 259 -69 22 -7 25 -15 37 -107 7 -54 11 -140 8 -190
l-6 -91 58 -26 c60 -27 160 -66 251 -98 85 -29 51 -5 -44 32 -47 18 -80 35
-72 37 7 2 27 10 43 17 17 7 57 18 90 24 59 11 63 10 199 -37 115 -41 141 -53
148 -73 13 -34 57 -78 103 -101 53 -28 133 -27 202 0 l52 22 26 -24 c13 -13
69 -42 122 -66 54 -23 126 -58 160 -77 112 -61 218 -52 324 27 29 22 59 40 66
40 11 0 333 -116 443 -160 30 -12 69 -32 87 -46 21 -16 45 -24 71 -24 22 0 68
-8 101 -19 l61 -19 47 30 c123 78 672 388 688 388 9 0 209 -50 444 -111 234
-61 450 -116 479 -124 l53 -13 -3 26 c-2 21 -11 29 -43 38 -42 12 -46 25 -17
57 11 12 24 16 40 12 19 -5 23 -2 20 12 -3 14 -61 30 -318 89 -173 39 -355 80
-405 90 l-90 19 4 195 c2 107 5 197 7 199 3 3 91 -8 197 -23 105 -16 214 -31
240 -34 l48 -5 -70 -38 c-62 -34 -77 -38 -123 -34 -29 2 -44 2 -33 -1 11 -3
27 -7 35 -10 8 -3 -25 -26 -80 -55 -113 -61 -120 -66 -89 -73 44 -11 503 -105
569 -117 36 -6 67 -14 69 -16 9 -7 -63 -73 -80 -73 -10 0 -57 9 -106 20 -165
36 -522 110 -534 110 -38 0 23 -15 237 -60 131 -28 301 -64 376 -80 153 -34
151 -33 144 -21 -3 4 -24 11 -48 15 l-41 7 47 48 47 48 -57 12 c-31 7 -52 16
-48 20 5 4 30 25 56 45 27 21 48 43 48 48 0 5 -26 -12 -57 -38 -32 -25 -63
-48 -69 -51 -6 -2 -127 19 -268 46 -141 28 -260 51 -264 51 -4 0 39 25 96 55
l102 55 208 -35 c114 -19 217 -37 230 -40 12 -3 22 -1 22 3 0 5 -89 23 -197
41 -109 18 -205 35 -213 37 -9 4 10 19 53 40 l68 35 140 -21 c164 -23 149 -22
149 -11 0 5 -39 14 -87 21 -49 6 -229 32 -401 56 -172 24 -315 44 -317 44 -3
0 -5 10 -5 21 0 19 4 21 38 16 20 -3 173 -22 339 -43 l302 -37 65 31 66 31 0
970 c0 828 -2 971 -14 971 -8 0 -91 -11 -186 -25 -190 -28 -220 -30 -220 -15
0 12 8 13 180 40 182 28 240 40 240 49 0 4 -73 -4 -162 -19 -90 -15 -184 -31
-211 -34 l-47 -7 2 202 3 203 205 37 c113 21 206 38 208 39 1 0 2 21 2 46 l0
47 -42 -7 c-24 -4 -133 -27 -243 -51 -110 -24 -218 -46 -240 -49 l-40 -6 30
14 c17 8 143 40 280 73 l250 58 3 39 c3 36 2 38 -20 32 -13 -3 -171 -40 -353
-81 -329 -75 -392 -91 -422 -102 -15 -6 -16 10 -10 157 4 102 11 166 18 170 6
4 86 24 177 45 190 42 302 70 485 122 119 33 127 37 127 60 0 20 -4 24 -17 19
-61 -24 -750 -206 -777 -206 -3 0 -6 7 -6 15 0 15 27 24 149 50 89 18 346 90
524 146 109 34 127 43 127 60 0 16 -4 19 -17 14 -82 -32 -373 -116 -575 -167
l-248 -61 0 -192 0 -192 -57 -12 c-62 -12 -70 -10 -138 50 l-35 31 0 97 0 98
40 12 c22 6 40 16 40 21 0 13 -22 13 -54 0 -24 -9 -26 -7 -26 15 0 14 2 25 5
25 2 0 75 22 162 49 87 27 244 75 348 105 182 53 453 140 523 167 32 13 32 14
32 81 0 40 -4 68 -10 68 -6 0 -45 -17 -88 -39 -42 -21 -129 -57 -192 -79 -110
-39 -510 -162 -527 -162 -4 0 -6 71 -5 158 l4 159 -41 32 -40 32 -268 -106
c-319 -127 -481 -186 -622 -226 -197 -55 -162 -34 111 65 483 177 851 327 836
342 -6 6 -113 -32 -313 -111 -406 -159 -752 -288 -781 -290 -17 -1 -36 -5 -43
-9 -8 -5 -9 123 -4 488 l6 496 -71 0 -72 0 0 -110 0 -111 -32 -14 c-29 -12
-34 -12 -40 3 -4 9 -7 30 -7 45 -1 47 -21 20 -21 -28 0 -44 -1 -45 -52 -70
-53 -26 -50 -22 17 28 39 30 5 29 -49 -1 -31 -17 -56 -29 -56 -28 0 2 18 21
40 44 l40 40 0 101 c0 86 -2 101 -16 101 -14 0 -16 -12 -13 -82 4 -75 2 -83
-17 -93 -11 -6 -33 -24 -47 -40 l-26 -30 -1 123 0 122 -31 0 -31 0 4 -151 c2
-105 0 -146 -7 -134 -5 10 -20 30 -32 45 -21 25 -23 39 -23 134 0 64 -4 106
-10 106 -6 0 -10 -45 -10 -115 0 -104 -2 -115 -20 -125 -20 -10 -20 -8 -20
115 0 169 -19 165 -22 -6 l-3 -131 -72 -40 -73 -40 0 146 0 145 42 25 43 26
-31 0 c-16 0 -36 -6 -43 -12 -11 -10 -13 -10 -7 0 5 9 -6 12 -43 12 -37 0 -51
-4 -51 -14 0 -8 -15 -23 -32 -34 -18 -11 -52 -34 -75 -52 l-43 -32 0 66 c0 36
-4 66 -9 66 -14 0 -24 -254 -19 -474 3 -111 4 -182 1 -158 -3 27 -9 42 -18 42
-13 0 -13 27 0 93 2 9 2 17 0 17 -1 0 -43 -20 -91 -45 -56 -29 -108 -48 -141
-52 l-53 -6 0 110 c0 102 2 111 23 131 43 40 47 31 47 -98 0 -73 4 -120 10
-120 6 0 10 50 10 129 l0 128 40 27 c23 15 58 42 78 60 l37 34 -3 91 c-4 111
-22 122 -22 13 l0 -79 -39 -31 c-22 -18 -42 -32 -45 -32 -3 0 -6 50 -6 110 l0
110 -30 0 -30 0 0 -150 c0 -139 -1 -150 -20 -160 -20 -10 -20 -8 -20 150 0
100 -4 160 -10 160 -6 0 -10 -54 -10 -142 l0 -143 -49 -27 c-27 -16 -52 -28
-55 -28 -3 0 -6 77 -6 170 l0 170 -30 0 -29 0 -3 -209 -3 -208 88 54 c49 30
91 52 95 48 4 -4 -1 -12 -11 -19 -15 -12 -17 -33 -17 -172 l0 -159 -78 -44
-77 -43 3 -237 3 -237 -26 -12 -26 -12 1 183 c2 521 -3 1069 -10 1047 -4 -14
-8 -211 -9 -438 l-1 -412 -52 -25 c-37 -17 -44 -23 -23 -19 29 5 29 5 11 -15
-23 -25 -14 -27 20 -4 16 10 21 19 14 23 -8 5 -4 9 9 13 21 5 21 4 19 -201
l-3 -207 -35 -17 c-75 -37 -70 -67 -70 400 l0 418 -141 94 c-134 90 -141 94
-164 80 -13 -8 -104 -77 -203 -153 -165 -127 -180 -141 -186 -175 -3 -20 -6
-129 -6 -242 0 -113 -4 -210 -8 -216 -12 -18 -162 -107 -169 -100 -4 3 -1 6 5
6 7 0 12 6 12 13 0 6 31 32 69 57 l70 45 0 234 1 233 -27 -17 c-16 -10 -38
-25 -50 -32 -12 -8 -29 -13 -37 -11 -18 4 55 58 254 188 128 84 223 157 190
147 -8 -3 -61 -37 -116 -76 -56 -39 -105 -71 -110 -71 -15 0 94 92 200 168 55
39 104 72 109 72 16 0 136 -70 280 -164 l27 -18 0 221 0 221 -55 0 -55 0 0
-35 c0 -19 -4 -35 -9 -35 -5 0 -26 16 -47 35 -33 31 -43 35 -90 35 l-54 0 0
-79 c0 -44 -4 -83 -10 -86 -6 -4 -10 25 -10 79 0 70 -3 86 -15 86 -12 0 -15
-14 -15 -68 0 -44 -5 -75 -15 -88 -14 -18 -14 -18 -16 6 -1 21 -2 20 -11 -10
-19 -68 -28 -55 -28 41 0 61 4 99 12 107 9 9 1 12 -36 12 -45 0 -52 -4 -127
-72 -44 -39 -82 -69 -85 -66 -3 3 23 36 57 72 l61 66 -76 0 -76 0 0 -249 c0
-156 -4 -252 -10 -256 -7 -4 -10 82 -10 249 l0 256 -58 0 c-51 0 -62 -3 -86
-29 -17 -17 -34 -27 -43 -24 -9 4 -43 -23 -94 -73 l-79 -79 0 103 0 102 -134
0 -134 0 -56 -62z m924 -82 c0 -105 -3 -127 -17 -142 -17 -17 -18 -12 -21 99
-2 95 0 121 14 142 9 14 18 25 20 25 2 0 4 -56 4 -124z m1376 115 c-3 -5 -6
-207 -6 -450 l-1 -441 -29 -15 -30 -16 0 445 0 444 33 20 c38 24 40 25 33 13z
m-1101 -95 c5 -63 4 -86 -4 -82 -7 4 -11 41 -11 93 0 48 2 84 4 82 2 -2 7 -44
11 -93z m27 -46 l-10 -55 -1 65 c0 36 3 76 7 90 6 23 7 22 10 -10 1 -19 -1
-60 -6 -90z m-594 -383 c-32 -27 -33 -27 -36 -7 -2 12 4 30 12 39 13 14 16 42
16 135 0 68 5 127 11 139 9 18 5 16 -21 -8 -45 -43 -56 -66 -36 -77 13 -7 16
-26 16 -88 0 -53 -4 -80 -11 -80 -8 0 -10 -17 -7 -49 4 -39 1 -52 -14 -65 -17
-15 -18 -8 -18 211 l0 227 58 59 57 58 3 -233 3 -233 -33 -28z m631 386 l-2
-88 -8 65 c-8 60 -5 110 6 110 3 0 4 -39 4 -87z m-779 -265 c0 -183 3 -342 6
-353 4 -17 -14 -36 -105 -103 -61 -46 -113 -88 -117 -94 -10 -16 7 -5 114 75
51 39 94 68 97 66 3 -3 8 -377 6 -415 -1 -6 -19 -20 -41 -33 l-40 -22 0 170
c0 111 -4 171 -10 171 -7 0 -10 -61 -8 -176 l2 -176 -35 -29 c-19 -16 -37 -29
-41 -29 -8 0 -14 184 -10 260 1 19 10 43 20 53 18 18 19 17 14 -12 -2 -17 -8
-31 -13 -31 -10 0 -10 -91 -1 -164 7 -47 8 -49 25 -32 14 15 17 37 17 151 0
74 -3 136 -7 138 -5 3 -25 -9 -46 -27 l-38 -32 -6 -269 c-3 -153 -10 -275 -16
-282 -5 -7 -16 -13 -23 -13 -11 0 -14 27 -14 135 0 111 -3 137 -15 141 -13 5
-15 64 -15 442 l0 435 131 134 c72 74 128 137 125 141 -4 3 -65 -52 -137 -123
-101 -102 -132 -127 -139 -115 -5 8 -6 19 -2 26 12 19 306 323 315 323 4 1 7
-149 7 -331z m363 312 c-3 -12 -8 -19 -11 -16 -5 6 5 36 12 36 2 0 2 -9 -1
-20z m444 -117 c-2 -27 -3 -5 -3 47 0 52 1 74 3 48 2 -27 2 -69 0 -95z m903
124 c0 -6 -106 -77 -116 -77 -5 0 16 18 46 40 50 35 70 46 70 37z m-872 -104
c-1 -101 -5 -89 -10 30 -2 37 0 67 5 67 4 0 6 -44 5 -97z m891 -4 l1 -56 -63
-42 c-35 -22 -66 -41 -70 -41 -4 0 -7 30 -7 68 l1 67 62 47 c71 54 73 52 76
-43z m-1692 -311 c-1 -68 -3 -13 -3 122 0 135 2 190 3 123 2 -68 2 -178 0
-245z m619 300 c53 -38 58 -48 8 -17 -34 21 -37 21 -67 5 -56 -28 -169 -113
-295 -222 -67 -58 -61 -32 8 32 86 81 223 185 230 174 3 -5 18 6 33 25 15 19
30 35 33 35 3 0 26 -14 50 -32z m-116 18 c0 -2 -8 -10 -17 -17 -16 -13 -17
-12 -4 4 13 16 21 21 21 13z m1524 -278 c7 93 11 114 26 122 41 22 42 18 39
-195 -3 -168 -7 -207 -19 -215 -18 -11 -47 13 -53 44 -2 11 -5 -3 -6 -31 -1
-67 5 -68 143 -7 102 44 176 87 113 64 -16 -5 -30 -10 -31 -10 -2 0 -6 56 -10
124 l-7 125 -35 35 c-20 20 -34 43 -32 53 2 11 39 36 96 65 l94 48 39 -23 39
-22 0 -211 0 -211 -187 -86 c-193 -88 -410 -178 -636 -262 -70 -26 -126 -50
-123 -52 9 -9 637 232 835 321 57 26 106 44 109 41 3 -3 8 -124 10 -269 l4
-263 44 1 44 1 0 110 1 110 282 93 c155 52 406 143 557 203 151 60 276 109
278 109 1 0 2 -89 2 -199 l0 -198 -202 -58 c-446 -126 -660 -185 -808 -225
-242 -64 -766 -194 -970 -240 -204 -46 -563 -136 -824 -205 -93 -25 -175 -45
-183 -45 -10 0 -13 27 -13 123 0 67 -3 193 -7 279 l-6 158 94 44 c52 25 106
48 122 51 l27 7 0 -84 0 -83 -71 -33 c-119 -56 -70 -46 67 13 76 33 137 65
149 80 13 16 89 54 224 110 305 128 330 139 534 238 l187 90 0 288 c0 287 0
288 23 304 l22 15 5 -177 5 -178 9 113z m-74 155 c0 -32 -4 -63 -8 -69 -4 -6
-40 -28 -79 -48 l-73 -36 0 70 c0 38 4 70 9 70 5 0 35 15 67 34 33 19 65 35
72 35 8 1 12 -17 12 -56z m-260 -16 l0 -53 -70 -57 -70 -57 0 63 0 63 68 47
c37 26 68 47 70 47 1 0 2 -24 2 -53z m250 -111 c-21 -19 -158 -92 -143 -76 10
11 142 89 153 90 2 0 -2 -6 -10 -14z m-1804 -112 c-38 -36 -79 -70 -90 -76
-19 -9 -19 -9 -6 4 57 56 151 138 157 138 5 -1 -23 -30 -61 -66z m374 42 c0
-9 -211 -158 -216 -153 -3 3 43 39 103 81 113 79 113 79 113 72z m1430 -36 c0
-29 -15 -42 -117 -104 -10 -5 -13 2 -13 28 0 33 4 37 63 69 34 19 63 35 65 36
1 0 2 -12 2 -29z m-1372 -271 c-10 -7 -14 13 -16 86 -1 52 -5 95 -9 95 -3 0
-44 -27 -91 -61 -47 -33 -91 -63 -98 -66 -10 -3 -14 -34 -17 -106 -3 -99 -3
-98 -5 29 -1 92 2 135 11 146 6 9 62 51 122 92 l110 77 3 -142 c2 -107 -1
-144 -10 -150z m1114 248 c-20 -24 -102 -78 -102 -68 0 6 24 26 52 46 57 38
66 42 50 22z m-1029 -24 c167 -104 231 -153 202 -153 -19 0 -255 158 -255 170
0 15 6 13 53 -17z m609 -95 c-2 -68 -8 -127 -13 -132 -5 -6 -9 -63 -9 -127 0
-107 -8 -144 -27 -126 -3 3 -2 118 2 256 8 247 8 251 29 251 20 0 21 -3 18
-122z m678 52 l0 -41 -32 17 -32 17 29 23 c17 13 31 24 33 24 1 0 2 -18 2 -40z
m-550 -1 c-27 -18 -110 -59 -110 -54 0 7 103 65 115 65 6 0 3 -5 -5 -11z m286
-95 c-9 -8 -21 -12 -27 -9 -7 5 -8 10 0 18 12 12 -5 51 -20 42 -5 -4 -9 -4 -9
-2 0 3 15 14 33 26 l32 20 3 -39 c2 -27 -2 -46 -12 -56z m-1558 -107 c-65 -50
-68 -54 -68 -101 0 -51 7 -55 41 -27 19 15 21 21 11 34 -10 11 -9 17 4 28 9 7
20 22 24 34 6 12 9 -20 9 -85 0 -103 0 -105 -27 -124 -15 -11 -42 -31 -59 -44
l-33 -24 0 199 0 200 58 45 57 46 3 -82 c3 -74 1 -82 -20 -99z m1092 173 c0
-10 -70 -53 -115 -70 -41 -15 -22 1 50 44 69 41 65 39 65 26z m334 4 c10 -4
16 -18 16 -35 0 -16 3 -29 8 -29 7 0 15 -99 16 -203 l1 -59 -182 -73 c-157
-62 -183 -70 -183 -55 0 14 33 35 124 80 68 34 136 63 150 63 l26 2 -1 150
c-1 83 -4 141 -6 129 -3 -13 -26 -31 -70 -53 -36 -18 -91 -48 -121 -67 -30
-19 -56 -33 -58 -31 -11 11 105 107 173 144 84 46 84 46 107 37z m369 -19 c34
-24 37 -29 37 -75 0 -28 -2 -50 -5 -50 -9 0 -125 119 -125 129 0 10 17 19 40
20 9 1 32 -10 53 -24z m-1593 -147 c0 -73 -5 -140 -10 -148 -7 -10 -10 34 -10
133 0 91 4 147 10 147 6 0 10 -51 10 -132z m173 -25 c-15 -13 -32 -23 -36 -23
-4 0 -5 30 -1 68 5 56 10 71 33 89 l26 23 3 -68 c3 -63 1 -68 -25 -89z m-493
-85 c0 -128 -3 -228 -8 -222 -8 9 -4 454 4 454 2 0 4 -104 4 -232z m49 229
c-2 -1 -13 -9 -24 -17 -19 -14 -19 -14 -6 3 7 9 18 17 24 17 6 0 8 -1 6 -3z
m691 -103 c0 -76 -2 -85 -17 -82 -15 3 -18 17 -21 96 -3 91 -2 93 18 82 18 -9
20 -20 20 -96z m470 66 c0 -35 -5 -42 -44 -70 -25 -16 -47 -30 -50 -30 -3 0
-6 18 -6 40 0 37 4 42 48 70 26 16 48 30 50 30 1 0 2 -18 2 -40z m410 16 c0 4
6 -1 14 -12 8 -10 13 -20 11 -22 -7 -7 -43 18 -49 34 -5 14 -4 15 9 4 8 -7 15
-9 15 -4z m-122 -103 l-1 -108 -6 82 c-3 45 -9 84 -12 88 -4 3 -35 -5 -69 -19
-35 -14 -60 -23 -56 -19 5 6 113 67 144 82 1 0 1 -47 0 -106z m-1100 -87 l-23
-18 -3 68 c-3 62 -1 71 20 88 l23 18 3 -68 c3 -62 1 -71 -20 -88z m1034 47
c-2 -43 -8 -82 -13 -87 -5 -6 -9 1 -9 17 0 38 -18 34 -23 -5 -2 -18 -5 4 -5
50 -1 49 2 82 8 82 6 0 11 -21 11 -47 l2 -48 10 58 c6 31 13 57 16 57 4 0 5
-35 3 -77z m23 -71 c-10 -11 -12 4 -6 78 l6 75 3 -74 c2 -40 0 -76 -3 -79z
m22 36 c-2 -18 -4 -6 -4 27 0 33 2 48 4 33 2 -15 2 -42 0 -60z m-109 3 c1 -39
-2 -73 -8 -76 -6 -4 -10 21 -10 69 0 95 15 100 18 7z m-28 -21 c0 -47 -4 -80
-10 -80 -6 0 -10 33 -10 80 0 47 4 80 10 80 6 0 10 -33 10 -80z m-760 -40 c0
-91 -3 -110 -15 -110 -12 0 -15 16 -15 85 0 47 -3 85 -7 85 -14 0 -206 -125
-210 -137 -3 -7 -11 -13 -19 -13 -11 0 -14 -20 -14 -89 0 -50 -4 -93 -10 -96
-6 -4 -10 27 -10 85 l0 91 -31 -21 c-16 -12 -32 -20 -35 -17 -7 6 58 55 136
102 36 21 101 63 145 92 44 29 81 53 82 53 2 0 3 -49 3 -110z m-475 80 c-10
-11 -21 -17 -24 -14 -3 3 3 12 13 20 28 20 32 17 11 -6z m1095 -4 c0 -24 -19
-49 -68 -90 l-22 -19 0 44 c0 40 3 46 38 66 47 28 52 28 52 -1z m-507 -45 c26
-19 45 -36 43 -39 -6 -6 -116 71 -116 81 0 10 11 3 73 -42z m-3 -43 c25 -19
71 -50 103 -67 32 -18 56 -35 53 -38 -11 -12 -226 130 -226 149 0 11 -1 12 70
-44z m-595 32 c-3 -5 -11 -10 -16 -10 -6 0 -7 5 -4 10 3 6 11 10 16 10 6 0 7
-4 4 -10z m415 -79 c0 -63 -2 -69 -22 -74 -13 -2 -30 -8 -40 -11 -14 -7 -15
-3 -8 31 6 26 5 40 -3 45 -7 4 3 19 28 42 21 20 40 36 42 36 2 0 3 -31 3 -69z
m316 18 c19 -22 19 -22 -3 -10 -24 12 -39 31 -25 31 5 0 17 -10 28 -21z m373
-51 c-1 -29 2 -60 5 -68 5 -12 -6 -21 -44 -37 l-50 -21 0 71 c0 50 3 67 10 57
5 -8 7 -32 3 -53 -6 -38 -6 -38 20 -26 15 7 24 16 21 20 -3 5 2 6 11 3 9 -4
15 -3 14 2 -4 21 1 104 7 104 3 0 4 -24 3 -52z m-799 -22 c0 -25 -4 -56 -9
-70 -7 -16 -7 -26 0 -28 5 -2 -5 -12 -23 -22 -18 -10 -27 -13 -20 -5 7 8 12
40 12 79 0 61 10 90 32 90 4 0 8 -20 8 -44z m438 -53 c-16 -19 -44 -16 -86 11
-20 12 -46 26 -58 30 -20 6 -134 -48 -396 -188 -49 -26 -88 -43 -88 -39 0 4
46 33 103 64 56 31 143 80 192 109 50 29 114 63 144 76 l54 22 73 -36 c57 -28
71 -39 62 -49z m-1031 15 c-3 -8 -6 -5 -6 6 -1 11 2 17 5 13 3 -3 4 -12 1 -19z
m703 8 c0 -2 -18 -15 -40 -30 -22 -14 -40 -23 -40 -18 0 4 17 18 38 30 39 23
42 24 42 18z m210 -21 c24 -14 24 -14 -20 -15 -34 0 -66 -12 -130 -47 -171
-93 -325 -173 -342 -179 -11 -3 -18 0 -18 8 0 19 430 248 465 248 11 -1 31 -7
45 -15z m-903 -107 c-2 -18 -4 -4 -4 32 0 36 2 50 4 33 2 -18 2 -48 0 -65z
m343 -168 l0 -260 -65 -32 c-37 -19 -60 -35 -53 -39 6 -4 -1 -6 -15 -6 l-27 2
0 245 c0 135 4 250 8 255 4 6 21 19 37 29 29 19 30 19 14 0 -16 -19 -28 -154
-13 -154 4 0 21 9 38 19 31 19 31 20 28 91 -3 57 -7 70 -18 66 -8 -3 -14 -3
-14 -1 0 7 62 45 73 45 4 0 7 -117 7 -260z m3084 75 c44 -39 122 -102 171
-139 106 -81 129 -102 60 -55 -60 40 -124 89 -227 177 -93 77 -112 81 -238 44
-420 -122 -1105 -300 -1390 -361 -52 -11 -214 -48 -360 -81 -310 -71 -327 -75
-320 -67 6 7 342 89 675 166 538 124 892 215 1265 325 177 52 222 63 264 62
10 0 55 -32 100 -71z m-3289 57 c-68 -59 -167 -134 -171 -130 -3 4 12 19 33
34 21 16 58 46 82 66 24 21 49 38 54 38 7 0 7 -3 2 -8z m650 -156 l0 -124
-150 -47 c-82 -26 -162 -54 -176 -61 l-26 -13 -7 96 c-4 53 -5 97 -4 98 4 4
352 173 358 174 3 1 5 -55 5 -123z m2830 -14 c-7 -8 -83 68 -87 87 -2 9 12 18
42 26 l45 11 3 -59 c2 -33 0 -62 -3 -65z m-3774 90 c3 -4 4 -55 1 -114 l-4
-107 -27 3 c-14 2 -38 7 -53 11 -52 14 -28 -4 27 -20 63 -18 77 -41 18 -30
-21 4 -53 13 -70 20 l-33 14 0 102 0 102 30 -6 c27 -6 30 -4 30 19 0 25 2 26
38 19 20 -3 40 -10 43 -13z m322 -199 l-6 -202 -46 -20 c-34 -14 -48 -16 -53
-8 -4 7 -8 76 -8 155 l0 143 -22 -21 c-30 -28 -38 -25 -38 14 0 31 5 38 56 68
30 18 70 42 87 54 18 11 33 20 34 20 1 -1 -1 -92 -4 -203z m3251 128 c45 -32
154 -112 242 -178 225 -168 311 -228 410 -282 l87 -46 -2 -110 c-2 -157 -10
-205 -31 -205 -24 0 -40 22 -60 83 l-17 52 -7 -40 c-10 -52 -22 -65 -58 -65
-53 0 -75 35 -84 136 -7 83 -8 86 -15 44 -4 -25 -8 -69 -10 -98 -1 -29 -5 -55
-8 -57 -4 -2 -23 2 -44 8 -28 9 -37 17 -37 34 0 13 -4 23 -10 23 -5 0 -10 -4
-10 -9 0 -5 -7 -16 -15 -25 -14 -13 -20 -13 -61 1 -53 18 -57 26 -73 148 -7
49 -14 92 -17 94 -2 2 -4 -39 -4 -93 0 -110 -5 -117 -66 -91 -22 9 -64 21 -94
26 -75 12 -85 27 -94 140 -12 157 -25 139 -26 -33 l0 -157 38 -10 c20 -6 153
-40 294 -75 142 -36 262 -68 268 -71 7 -4 9 -194 8 -553 l-3 -547 -2 542 c-3
505 -4 542 -21 547 -9 3 -134 33 -277 67 -143 34 -270 65 -282 70 l-23 9 0
-908 c0 -909 -1 -932 -32 -932 -12 0 -10 1751 3 1920 6 80 12 274 13 432 1
272 2 286 19 276 10 -5 55 -35 101 -67z m-3044 -96 l0 -164 -44 -20 c-75 -33
-94 -33 -28 0 l62 31 0 159 c0 88 2 159 5 159 3 0 5 -74 5 -165z m2858 109
c-3 -25 -10 -29 -113 -55 -206 -53 -639 -147 -1030 -224 -214 -42 -500 -100
-635 -130 -518 -114 -849 -177 -878 -166 l-27 9 31 1 c40 1 262 46 539 110
121 28 292 66 380 85 88 19 255 55 370 81 116 25 307 66 425 91 235 50 696
159 830 198 110 32 112 32 108 0z m2 -273 l0 -219 -27 -10 c-58 -22 -75 -23
-122 -7 -45 15 -181 115 -181 134 0 10 312 321 323 321 4 0 7 -98 7 -219z
m-216 51 l-161 -157 8 -135 c8 -129 7 -136 -13 -153 -49 -41 -113 -25 -120 30
l-3 28 -18 -32 c-20 -38 -73 -67 -135 -77 -47 -7 -159 9 -179 26 -17 14 -18
189 -1 206 7 7 24 12 39 12 32 0 328 56 373 70 l31 10 -35 -5 c-19 -3 -107
-19 -195 -35 -88 -17 -169 -30 -181 -30 -15 0 12 33 108 127 70 70 128 133
128 140 0 7 10 15 23 18 161 36 463 108 466 111 2 2 9 4 15 4 6 -1 -61 -71
-150 -158z m-2996 -203 c-19 -12 -24 267 -6 289 11 12 13 -11 16 -133 2 -112
-1 -150 -10 -156z m3880 146 c57 -44 142 -103 190 -132 48 -28 100 -60 117
-70 31 -19 61 -95 49 -123 -5 -9 -10 4 -15 33 -9 59 -19 72 -83 104 -28 14
-78 44 -111 66 -64 43 -270 200 -295 225 -28 29 45 -23 148 -103z m-4183 85
c3 -5 1 -10 -4 -10 -6 0 -11 5 -11 10 0 6 2 10 4 10 3 0 8 -4 11 -10z m265
-22 c0 -22 -26 -58 -42 -58 -16 0 -8 59 10 69 26 15 32 13 32 -11z m2650 13
c0 -10 -265 -262 -295 -280 -18 -11 -18 -12 6 -7 30 6 29 22 11 -149 l-7 -70
-50 -28 c-44 -24 -57 -27 -108 -23 -42 4 -67 1 -88 -10 -38 -19 -116 -29 -163
-20 l-36 7 0 69 c0 46 -4 70 -11 70 -8 0 -10 -23 -7 -75 5 -68 3 -75 -13 -75
-10 0 -62 -11 -115 -25 -116 -30 -209 -33 -222 -7 -14 26 -21 192 -8 192 6 0
5 4 -2 9 -10 6 4 24 54 67 121 105 159 142 152 150 -4 4 -46 -27 -93 -67 -48
-41 -106 -90 -130 -110 -40 -33 -51 -54 -22 -43 9 3 11 -24 9 -98 -3 -89 -6
-106 -25 -126 -26 -28 -69 -52 -93 -52 -32 0 -64 40 -64 81 0 68 -19 53 -22
-18 l-3 -67 -50 -19 c-58 -21 -158 -25 -180 -7 -8 7 -15 25 -15 41 0 52 -19
41 -22 -13 -3 -50 -5 -54 -41 -72 -21 -10 -52 -19 -70 -20 l-32 -1 -6 67 c-8
95 -19 97 -19 3 l0 -78 -49 6 c-44 5 -54 3 -87 -24 -20 -16 -46 -29 -58 -29
-11 0 -38 -3 -59 -6 l-37 -7 -1 84 -2 84 -7 -65 c-4 -36 -11 -73 -15 -83 -9
-22 -113 -53 -162 -48 -9 1 -14 20 -15 54 -1 50 -2 51 -5 9 -4 -38 -9 -46 -51
-72 -86 -54 -102 -41 -102 91 l0 96 63 7 c84 10 314 60 361 80 47 19 46 19 46
1 0 -12 4 -11 20 5 11 11 26 17 34 14 8 -3 86 9 173 26 87 17 214 42 283 56
123 24 255 62 247 70 -2 2 -46 -7 -98 -21 -111 -29 -600 -128 -605 -122 -3 2
57 51 133 107 76 57 159 121 185 142 46 38 53 41 337 103 159 36 441 94 628
130 186 36 399 79 473 94 162 35 150 33 150 22z m-2810 -31 c0 -5 -7 -7 -15
-4 -8 4 -15 8 -15 10 0 2 7 4 15 4 8 0 15 -4 15 -10z m87 -397 c-1 -76 -3 -14
-3 137 0 151 2 213 3 138 2 -76 2 -200 0 -275z m-77 132 c0 -157 -4 -245 -10
-245 -6 0 -10 43 -10 108 0 122 11 382 17 382 1 0 3 -110 3 -245z m715 225 c3
-5 1 -10 -4 -10 -6 0 -11 5 -11 10 0 6 2 10 4 10 3 0 8 -4 11 -10z m-565 -80
c0 -91 8 -102 59 -76 40 21 51 20 51 -4 0 -16 -16 -28 -66 -50 -36 -17 -70
-30 -75 -30 -14 0 -11 214 3 228 23 23 28 11 28 -68z m768 -5 c-5 -5 -296 -85
-308 -85 -5 0 -10 15 -10 34 l0 34 158 39 157 39 3 -29 c2 -16 2 -30 0 -32z
m39 18 c-3 -10 -5 -2 -5 17 0 19 2 27 5 18 2 -10 2 -26 0 -35z m-1089 -265
c-27 -17 -33 1 -36 108 -3 103 -2 110 20 128 l23 18 3 -123 c2 -91 -1 -124
-10 -131z m652 118 l0 -114 -62 -22 c-35 -13 -127 -47 -204 -76 -78 -30 -143
-54 -145 -54 -2 0 -4 45 -4 99 l0 100 125 52 c69 29 161 70 205 91 44 20 81
38 83 38 1 0 2 -51 2 -114z m438 82 c-3 -19 -20 -26 -148 -59 -172 -43 -178
-45 -185 -70 -11 -35 -26 -20 -23 23 l3 41 160 43 c191 51 197 51 193 22z
m319 -4 c-3 -3 -12 -4 -19 -1 -8 3 -5 6 6 6 11 1 17 -2 13 -5z m-90 -20 c-3
-3 -12 -4 -19 -1 -8 3 -5 6 6 6 11 1 17 -2 13 -5z m1953 -65 c54 -43 102 -69
129 -69 11 0 44 9 72 20 28 12 53 19 54 18 1 -2 5 -40 8 -85 6 -82 6 -83 -17
-83 -35 0 -209 46 -244 64 -39 20 -49 38 -61 115 -5 33 -13 67 -17 74 -8 13 4
4 76 -54z m-1940 -43 c-36 -33 -340 -256 -350 -256 -6 0 -8 -5 -4 -12 4 -7 3
-8 -4 -4 -7 4 -47 -4 -89 -17 -93 -30 -259 -64 -328 -69 -38 -2 -50 0 -50 11
0 8 66 72 147 142 l147 126 63 7 c35 4 151 24 258 46 229 45 230 45 210 26z
m3198 -177 c37 -36 38 -36 97 -28 99 12 135 11 135 -6 0 -8 -10 -17 -22 -19
-44 -9 -191 -26 -230 -26 l-38 0 0 74 c0 40 -2 89 -5 107 -4 23 0 18 11 -16 9
-30 30 -64 52 -86z m-4348 91 c0 -5 -7 -10 -15 -10 -8 0 -15 5 -15 10 0 6 7
10 15 10 8 0 15 -4 15 -10z m540 -34 c-8 -8 -42 -29 -75 -47 l-60 -32 44 39
c46 40 66 52 91 53 13 1 13 -1 0 -13z m-100 -16 c0 -23 -93 -62 -407 -170
l-113 -39 0 29 c0 24 8 32 55 56 39 20 58 25 66 17 7 -7 -7 -16 -50 -29 -34
-11 -61 -22 -61 -27 0 -9 46 1 81 19 76 38 383 153 412 153 9 1 17 -3 17 -9z
m4380 -243 l0 -223 -137 -12 c-76 -7 -199 -19 -273 -27 -74 -8 -154 -15 -177
-15 l-43 0 0 104 c0 111 2 116 55 116 23 0 24 -3 27 -87 3 -81 5 -88 23 -86
11 1 99 7 195 13 96 6 199 13 228 17 l53 6 -3 76 -3 76 -47 -2 -48 -3 0 129 0
130 38 4 c20 2 54 4 75 5 l37 2 0 -223z m-4920 203 c-8 -5 -19 -10 -25 -10 -5
0 -3 5 5 10 8 5 20 10 25 10 6 0 3 -5 -5 -10z m2621 -202 c14 -124 7 -168 -26
-168 -24 0 -25 -3 -25 -56 0 -40 -3 -54 -12 -51 -16 5 -19 87 -11 262 6 123
20 144 22 34 1 -26 4 -60 7 -78 13 -61 24 -17 25 97 1 64 3 104 5 87 2 -16 9
-74 15 -127z m50 -1 c6 -53 15 -100 20 -103 5 -3 10 53 10 128 l2 133 13 -95
c8 -52 13 -126 12 -165 l-3 -70 -47 -3 c-43 -3 -48 -1 -48 17 0 12 5 21 10 21
6 0 11 57 11 148 1 81 4 134 6 117 1 -16 8 -74 14 -128z m629 139 c0 -10 -22
-15 -82 -20 -46 -4 -107 -9 -135 -12 -44 -5 -53 -4 -53 9 0 16 42 23 180 30
30 2 63 4 73 5 9 1 17 -4 17 -12z m96 -37 c9 -29 24 -53 39 -63 27 -18 34 -46
11 -46 -17 0 -63 36 -76 59 -5 10 -14 37 -19 60 -9 39 -8 42 11 39 15 -2 25
-16 34 -49z m-2931 31 c-3 -5 -14 -10 -24 -10 -10 0 -102 -29 -206 -65 -103
-36 -190 -63 -193 -61 -3 3 6 9 19 14 211 79 299 111 324 120 39 14 88 15 80
2z m2311 -90 l6 -25 12 29 12 30 17 -24 c9 -14 17 -30 17 -37 0 -26 -24 -63
-41 -63 -19 0 -28 37 -33 135 -2 33 -2 42 0 20 3 -22 7 -51 10 -65z m676 53
c3 -21 3 -40 1 -42 -7 -9 -23 15 -32 47 -8 28 -7 32 9 32 13 0 19 -10 22 -37z
m1228 23 c0 -10 -30 -17 -117 -26 -65 -7 -127 -17 -138 -21 -32 -12 67 -9 168
5 67 9 87 9 87 0 0 -7 -26 -14 -67 -19 -38 -3 -150 -20 -250 -36 -212 -34
-193 -33 -193 -15 0 19 22 25 145 40 45 6 63 15 68 37 4 16 15 19 64 20 45 0
218 21 231 28 1 0 2 -5 2 -13z m-1682 -8 c-5 -15 -98 -24 -98 -9 0 13 19 19
63 20 27 1 37 -3 35 -11z m1102 -639 l0 -526 -82 -12 c-68 -10 -274 -50 -400
-78 l-28 -5 0 76 c0 70 2 76 23 80 58 12 389 47 394 42 4 -3 -5 -6 -20 -6 -32
0 -57 -9 -57 -21 0 -5 9 -18 20 -29 12 -12 15 -20 8 -20 -45 -1 -281 -30 -286
-36 -7 -7 198 1 318 12 l65 6 -3 492 c-2 270 -4 492 -6 493 -1 1 -75 20 -164
41 l-162 39 0 -64 0 -63 30 0 30 0 0 -78 c0 -72 -2 -80 -30 -112 -29 -35 -37
-73 -21 -99 11 -17 157 -39 171 -25 15 15 0 224 -17 224 -8 0 -13 -12 -13 -36
0 -34 -1 -35 -32 -32 l-33 3 -3 71 -3 71 32 7 c17 3 67 6 110 6 l79 0 0 -215
0 -216 -157 7 c-109 5 -154 4 -150 -3 4 -6 63 -14 132 -18 l125 -7 0 -104 0
-104 -125 0 -125 0 0 100 c0 60 -4 100 -10 100 -6 0 -10 -68 -10 -185 l0 -185
-55 0 -55 0 0 411 0 410 28 -3 c26 -3 27 -6 27 -55 -1 -29 3 -53 7 -53 4 0 8
32 8 70 l0 70 -35 0 c-19 0 -35 5 -35 11 0 7 14 10 35 7 27 -3 35 0 35 12 0
20 -26 45 -57 54 -20 7 -23 14 -23 65 l0 57 260 -60 260 -61 0 -526z m-3691
598 c-33 -29 -80 -56 -160 -89 -114 -46 -376 -131 -390 -126 -4 2 30 27 76 56
66 41 131 69 297 127 117 40 215 74 218 74 3 0 -16 -19 -41 -42z m2466 33 c4
-6 -5 -10 -20 -10 -15 0 -24 4 -20 10 3 6 12 10 20 10 8 0 17 -4 20 -10z m39
-77 c18 -52 20 -101 6 -123 -19 -30 -35 8 -39 90 -4 92 9 104 33 33z m-2914
12 c0 -23 -3 -25 -47 -25 l-48 1 45 24 c25 13 46 24 48 25 1 0 2 -11 2 -25z
m2507 -1 c-7 -7 -169 -24 -178 -18 -24 14 -1 23 84 30 81 8 110 4 94 -12z
m539 -1 c3 -16 10 -40 16 -55 21 -57 -35 -93 -68 -42 -16 24 -16 28 7 75 13
27 27 49 31 49 4 0 10 -12 14 -27z m1634 -6 c0 -10 -31 -17 -112 -26 -171 -18
-158 -10 -158 -101 0 -44 4 -82 10 -85 5 -3 33 1 62 10 67 19 78 19 78 -4 0
-15 -11 -19 -61 -25 -120 -12 -111 -20 -107 89 3 80 1 94 -12 91 -8 -3 -44 -7
-80 -11 -107 -11 -101 -5 -98 -98 1 -45 2 -270 0 -499 -2 -380 -3 -418 -18
-418 -15 0 -16 14 -11 133 9 174 9 611 1 763 l-7 121 34 6 c19 3 102 15 184
27 83 11 177 24 210 29 86 12 85 12 85 -2z m-2392 -9 c-5 -16 -118 -24 -118
-9 0 11 28 18 83 20 27 1 37 -3 35 -11z m-1884 -117 c-4 -61 -11 -108 -15
-105 -15 9 -11 212 4 217 6 2 13 3 15 2 2 -2 0 -53 -4 -114z m1739 104 c2 -20
-136 -34 -148 -16 -5 10 25 17 95 24 45 5 51 4 53 -8z m-492 -28 c-8 -8 -11
-7 -11 4 0 20 13 34 18 19 3 -7 -1 -17 -7 -23z m317 6 c2 -9 -9 -13 -37 -13
-41 0 -56 14 -23 23 28 8 55 3 60 -10z m-108 -8 c0 -11 -11 -15 -37 -15 -21 0
-48 -3 -60 -6 -17 -5 -23 -2 -23 9 0 10 12 17 33 20 71 9 87 7 87 -8z m650
-135 l0 -150 -79 0 -79 0 -5 113 c-3 61 -8 124 -12 140 -7 24 -5 27 19 27 l25
0 4 -132 3 -133 2 138 2 137 30 0 30 0 0 -125 c0 -77 4 -125 10 -125 6 0 10
50 10 130 0 123 1 130 20 130 19 0 20 -7 20 -150z m1260 110 c0 -22 -4 -40
-10 -40 -5 0 -10 18 -10 40 0 22 5 40 10 40 6 0 10 -18 10 -40z m910 21 c0
-15 -10 -20 -60 -25 -59 -7 -60 -8 -60 -37 0 -26 -3 -29 -20 -24 -12 4 -28 1
-36 -6 -13 -11 -15 -10 -12 2 1 8 -1 14 -7 14 -5 0 -9 -12 -9 -27 2 -23 -2
-28 -22 -28 -23 0 -24 3 -24 59 l0 59 68 11 c37 6 78 12 92 14 66 11 90 7 90
-12z m-1278 -8 c52 -16 58 -21 58 -45 l0 -28 -87 0 c-49 0 -105 -3 -126 -6
l-37 -7 2 -361 3 -361 123 -3 122 -3 0 -64 0 -65 -30 0 c-27 0 -30 3 -24 24 9
37 -21 59 -71 54 -30 -4 -47 0 -64 13 -28 23 -50 24 -79 3 -13 -9 -26 -13 -30
-9 -4 4 -8 202 -10 441 l-3 434 98 0 c66 0 117 -5 155 -17z m165 -855 c-1
-161 -2 -30 -2 292 0 322 1 453 2 293 2 -161 2 -425 0 -585z m-1847 852 c0 -5
-4 -10 -9 -10 -5 0 -16 -3 -25 -6 -9 -3 -16 -1 -16 4 0 9 16 17 43 21 4 0 7
-3 7 -9z m573 -17 c3 -15 -1 -40 -9 -55 -15 -30 -5 -38 16 -13 20 24 30 17 30
-20 0 -40 -17 -52 -49 -35 -13 6 -21 21 -21 36 0 13 -7 41 -15 61 -19 44 -19
41 8 46 12 2 25 5 28 6 4 0 9 -11 12 -26z m1534 -20 c-3 -10 -5 -2 -5 17 0 19
2 27 5 18 2 -10 2 -26 0 -35z m-2367 -434 c0 -372 -3 -470 -12 -467 -10 4 -14
106 -16 459 -1 250 0 460 3 467 2 6 9 12 15 12 7 0 10 -154 10 -471z m2482
454 c43 -9 78 -20 78 -25 0 -4 -38 -8 -85 -8 -84 0 -85 0 -85 25 0 30 -5 29
92 8z m-2544 -458 c1 -299 -1 -462 -8 -469 -7 -7 -10 124 -10 401 0 225 -3
438 -7 473 -5 51 -4 62 8 58 12 -4 14 -80 17 -463z m205 449 c-23 -8 -45 -23
-49 -32 -10 -24 -21 -142 -13 -142 4 0 9 5 11 10 2 6 20 -4 41 -21 26 -21 53
-33 83 -37 38 -4 44 -8 44 -28 0 -24 -1 -24 -110 -24 l-110 0 0 118 c1 150 13
170 105 170 l40 0 -42 -14z m539 -86 c-3 -78 -8 -106 -20 -115 -23 -19 -49
-16 -72 7 -17 17 -20 33 -19 109 l1 90 41 4 c23 2 49 4 58 5 14 2 15 -11 11
-100z m98 -1 c-1 -56 -15 -116 -33 -134 -12 -13 -16 -12 -32 3 -15 15 -17 32
-13 113 5 122 12 135 50 92 21 -24 28 -41 28 -74z m-375 16 c-15 -28 -16 -37
-5 -63 7 -18 20 -39 29 -48 15 -14 14 -15 -9 -8 -34 10 -41 10 -67 2 -16 -5
-28 -1 -44 15 -18 18 -21 30 -17 75 5 53 1 63 -17 45 -6 -6 -36 -11 -67 -13
-74 -4 -76 -18 -3 -18 42 0 55 -3 55 -15 0 -11 -12 -15 -49 -15 -28 0 -53 -5
-57 -11 -5 -9 9 -10 49 -7 41 3 58 1 61 -9 4 -10 -6 -13 -39 -13 -27 0 -45 -5
-45 -11 0 -8 14 -10 44 -6 30 4 49 2 62 -8 17 -13 13 -14 -43 -15 -50 0 -67 4
-88 23 -27 23 -44 91 -27 114 8 13 100 30 222 42 75 7 84 -2 55 -56z m115 17
c-3 -25 -5 -66 -5 -92 0 -48 0 -48 -33 -48 -29 0 -32 2 -19 14 23 23 29 91 12
132 -20 47 -20 46 18 42 32 -3 32 -3 27 -48z m2800 2 c0 -26 -5 -53 -12 -60
-8 -8 -45 -12 -100 -12 -72 0 -88 3 -88 15 0 10 10 15 28 16 26 0 26 1 5 11
-20 10 -38 46 -27 57 2 3 39 8 82 12 42 3 85 7 95 7 14 2 17 -6 17 -46z m70
-1 c0 -44 -2 -49 -25 -53 -24 -5 -25 -3 -25 48 0 51 1 54 25 54 23 0 25 -3 25
-49z m-2020 -106 c0 -120 -3 -145 -14 -145 -12 0 -16 26 -18 145 -3 133 -2
145 15 145 15 0 17 -14 17 -145z m-1670 95 c91 -11 171 -20 178 -20 6 0 12 -6
12 -14 0 -16 -28 -15 -235 10 -142 17 -164 22 -144 35 18 11 -3 12 189 -11z
m2300 -25 l0 -25 -115 0 c-107 0 -115 1 -115 19 0 25 15 28 133 30 l97 1 0
-25z m1073 8 c-7 -2 -19 -2 -25 0 -7 3 -2 5 12 5 14 0 19 -2 13 -5z m-3438
-33 c55 -6 135 -16 178 -22 l79 -11 -7 -95 c-3 -52 -12 -107 -20 -121 -15 -30
-16 -78 -9 -364 4 -157 3 -198 -8 -202 -29 -11 -231 -10 -235 1 -2 7 22 14 69
18 110 11 116 13 128 55 15 53 12 112 -6 132 -14 16 -14 20 6 47 12 16 20 40
18 53 -3 24 -5 24 -105 24 l-102 0 -6 42 c-3 23 -15 53 -25 66 -18 22 -18 28
-6 51 8 16 12 44 9 69 -5 39 -3 44 21 55 15 7 51 12 81 12 l55 0 0 -39 0 -39
-55 -4 c-54 -3 -55 -3 -55 25 0 15 -4 27 -10 27 -5 0 -10 -15 -10 -33 0 -17
-4 -47 -9 -65 -12 -40 -1 -41 22 -2 17 27 23 30 72 30 74 0 85 -6 85 -47 l0
-34 -72 2 c-40 1 -75 -2 -78 -7 -3 -5 34 -10 83 -12 l87 -3 0 59 c0 44 -4 63
-17 73 -15 12 -16 12 -10 -3 3 -10 2 -18 -4 -18 -6 0 -10 19 -9 43 1 23 1 48
1 55 -1 8 -22 12 -71 12 -82 0 -116 13 -123 48 l-5 25 149 -7 149 -7 -1 33
c-1 21 -3 25 -6 12 -5 -24 -1 -24 -266 -3 -110 8 -133 8 -159 -6 -17 -8 -51
-15 -76 -15 l-45 0 7 42 c4 23 9 45 12 48 7 7 142 18 174 14 14 -2 70 -8 125
-14z m-385 -56 l0 -45 -57 6 c-97 10 -105 13 -101 38 3 19 11 23 67 29 35 4
66 10 69 13 15 14 22 1 22 -41z m49 -171 c1 -84 -3 -144 -9 -148 -7 -4 -10 59
-9 182 1 127 4 175 10 148 4 -22 8 -104 8 -182z m2701 142 l0 -65 -115 0 -115
0 0 59 0 60 38 4 c20 2 72 4 115 5 l77 2 0 -65z m-1130 -11 l0 -67 85 5 85 4
0 -41 c0 -52 6 -58 39 -38 l26 15 -22 -20 c-18 -16 -22 -27 -17 -50 9 -42 -12
-50 -145 -58 l-111 -7 0 161 0 162 30 0 30 0 0 -66z m-1810 26 c0 -19 -6 -20
-92 -19 l-93 2 74 7 c40 5 78 13 84 19 17 17 27 13 27 -9z m4400 -359 l0 -359
-97 5 c-54 3 -100 8 -103 10 -9 8 -12 328 -5 508 l7 185 29 0 29 0 0 -260 c0
-167 4 -260 10 -260 6 0 10 92 10 255 0 286 -3 274 78 275 l42 0 0 -359z
m-227 7 c-3 -183 -6 -337 -8 -343 -2 -5 -4 144 -4 333 -1 188 3 342 8 342 4 0
6 -150 4 -332z m-4060 300 c70 -10 77 -14 77 -34 0 -34 -36 -41 -67 -12 -25
23 -26 23 -250 20 -210 -2 -260 4 -186 23 33 8 299 23 328 19 11 -2 55 -9 98
-16z m375 10 c20 -20 13 -38 -15 -39 -25 -1 -24 -2 7 -8 88 -17 61 -46 -30
-32 -43 7 -55 5 -75 -11 l-25 -19 0 31 c0 64 97 119 138 78z m790 -165 l2
-173 -30 0 -30 0 0 168 c0 93 3 172 7 176 4 4 16 6 28 4 19 -3 20 -11 23 -175z
m160 150 c3 -22 0 -23 -67 -23 -69 0 -71 1 -71 25 0 26 1 26 68 23 61 -3 67
-5 70 -25z m46 11 c3 -9 6 -47 6 -86 0 -51 -3 -69 -12 -66 -9 3 -13 31 -14 86
-1 77 6 102 20 66z m2591 6 c-33 -5 -109 -11 -170 -13 l-110 -6 115 13 c63 7
140 13 170 13 l55 0 -60 -7z m-3740 -20 c-15 -17 -17 -32 -12 -100 5 -74 3
-81 -16 -95 -12 -8 -25 -15 -29 -15 -10 0 -11 214 -1 223 3 4 22 7 41 7 34 0
35 0 17 -20z m3004 11 c15 -10 31 -84 22 -100 -9 -13 -105 -3 -127 14 -23 17
-9 52 29 76 35 21 55 23 76 10z m-1221 -17 c12 -8 22 -25 22 -38 0 -19 -5 -22
-37 -22 -21 1 -48 -3 -60 -7 -21 -7 -23 -5 -23 22 0 31 29 61 60 61 9 0 26 -7
38 -16z m1632 -369 c0 -327 -2 -375 -15 -375 -13 0 -15 48 -15 375 0 327 2
375 15 375 13 0 15 -48 15 -375z m-4120 349 c0 -2 -18 -4 -40 -4 -22 0 -40 3
-40 8 0 4 18 6 40 4 22 -2 40 -6 40 -8z m4470 -18 c0 -21 -5 -24 -61 -30 -34
-3 -83 -6 -109 -6 -60 0 -60 2 -60 -212 0 -105 -4 -168 -10 -168 -6 0 -10 78
-10 215 l0 214 68 4 c183 9 182 9 182 -17z m-4082 -20 l4 -29 -109 7 c-298 18
-351 15 -160 -8 53 -7 57 -9 57 -33 l0 -26 -157 8 c-87 4 -160 9 -162 11 -3 3
18 63 27 74 4 6 394 28 457 26 36 -1 40 -4 43 -30z m60 12 c-2 -15 -10 -23
-23 -23 -13 0 -21 8 -23 23 -3 18 1 22 23 22 22 0 26 -4 23 -22z m1360 -35
l-3 -48 -67 -3 -68 -3 0 51 0 50 71 0 70 0 -3 -47z m1502 -38 l0 -85 -70 0
-70 0 0 45 0 45 52 0 c63 0 53 15 -14 23 l-48 5 0 -59 c0 -33 -4 -59 -9 -59
-5 0 -23 -3 -40 -6 l-31 -6 0 84 c0 47 3 88 7 91 3 4 55 7 115 7 l108 0 0 -85z
m860 73 c5 -349 10 -564 16 -645 7 -101 6 -103 -15 -103 l-21 0 0 380 c0 247
4 380 10 380 6 0 10 -6 10 -12z m-2607 -140 c10 -204 9 -298 -3 -298 -6 0 -10
38 -10 95 l0 95 -106 0 c-67 0 -103 4 -99 10 3 6 44 10 91 10 l84 0 0 103 0
103 -85 -4 c-74 -4 -85 -2 -85 12 0 14 15 16 103 16 l104 0 6 -142z m-1770 93
c9 -16 17 -32 17 -35 0 -3 -29 -6 -65 -6 -36 0 -65 4 -65 10 0 11 69 60 85 60
6 0 18 -13 28 -29z m57 8 c-9 -16 -14 -18 -26 -9 -17 15 -9 30 17 30 17 0 18
-3 9 -21z m706 -210 c-15 -33 -15 -29 -16 93 0 92 3 127 13 131 19 6 22 -179
3 -224z m1954 215 c0 -2 -21 -4 -47 -3 -37 1 -42 3 -23 8 24 7 70 3 70 -5z
m1987 -376 c-1 -73 -3 -14 -3 132 0 146 2 205 3 133 2 -73 2 -193 0 -265z
m-3987 172 c0 -133 -4 -210 -10 -210 -6 0 -10 77 -10 210 0 133 4 210 10 210
6 0 10 -77 10 -210z m370 200 c0 -5 -4 -10 -9 -10 -4 0 -6 -11 -3 -25 2 -14 8
-25 13 -25 5 0 9 -4 9 -10 0 -17 -68 30 -75 53 -6 20 -8 19 -17 -13 -5 -19
-14 -39 -19 -44 -14 -15 -11 -23 22 -61 39 -44 16 -49 -30 -6 -28 26 -45 71
-22 56 16 -9 21 11 11 45 -5 18 -7 36 -5 40 7 12 125 11 125 0z m1647 -32 c-3
-7 -5 -2 -5 12 0 14 2 19 5 13 2 -7 2 -19 0 -25z m153 -43 c0 -41 -4 -75 -9
-75 -15 0 -21 28 -21 91 0 46 3 59 15 59 12 0 15 -15 15 -75z m-2361 59 c25
-5 31 -11 29 -28 -2 -11 -9 -21 -15 -20 -7 1 -40 2 -73 3 -57 1 -60 2 -60 26
0 23 4 25 44 25 24 0 58 -3 75 -6z m1171 -14 c0 -22 -7 -23 -87 -14 -35 5 -53
11 -53 20 0 11 18 14 70 14 63 0 70 -2 70 -20z m1013 -31 c-3 -9 -16 -17 -31
-17 -15 -1 -36 -3 -47 -4 -15 -2 -21 4 -23 24 -3 28 5 33 68 40 26 3 40 -15
33 -43z m-2113 -110 c0 -117 -2 -139 -15 -139 -13 0 -15 22 -15 138 0 76 3
142 6 145 18 18 24 -17 24 -144z m47 -71 c-1 -40 -3 -10 -3 67 0 77 1 110 3
73 2 -37 2 -100 0 -140z m-571 177 c3 -8 -4 -26 -15 -41 l-21 -27 0 35 c0 19
3 38 7 41 11 11 23 8 29 -8z m1334 -257 c0 -149 -2 -269 -4 -267 -8 8 -28 498
-21 519 19 60 25 -1 25 -252z m3110 241 c0 -38 -24 -35 -28 4 -2 19 1 27 12
27 11 0 16 -10 16 -31z m-4509 -147 c-8 -12 -10 6 -11 69 0 47 3 89 8 93 11
12 14 -142 3 -162z m1689 153 c0 -12 -14 -15 -70 -15 -56 0 -70 3 -70 15 0 12
14 15 70 15 56 0 70 -3 70 -15z m-1580 -5 c0 -5 -4 -10 -10 -10 -5 0 -10 5
-10 10 0 6 5 10 10 10 6 0 10 -4 10 -10z m87 -137 c-2 -27 -3 -5 -3 47 0 52 1
74 3 48 2 -27 2 -69 0 -95z m53 54 c0 -93 15 -132 39 -103 21 25 51 20 51 -8
0 -28 24 -56 48 -56 12 0 13 -3 5 -11 -6 -6 -29 -10 -51 -7 -30 2 -43 -1 -51
-14 -6 -10 -23 -18 -37 -18 -24 0 -25 3 -24 53 0 28 0 61 -1 72 -2 11 -2 55
-1 98 3 105 22 100 22 -6z m1647 65 c-9 -10 -17 -41 -20 -72 -3 -51 -3 -49 -5
18 -2 68 -1 72 20 72 19 0 20 -1 5 -18z m-1360 -114 c-2 -24 -4 -5 -4 42 0 47
2 66 4 43 2 -24 2 -62 0 -85z m2192 54 c1 -26 8 -72 16 -102 21 -77 20 -80
-20 -80 -39 0 -40 2 -26 98 6 45 5 52 -9 52 -13 0 -21 -19 -34 -80 -16 -73
-20 -80 -41 -80 -24 0 -24 0 -8 38 8 20 24 54 34 74 l19 37 -32 9 c-37 9 -54
32 -43 58 8 18 8 18 13 -1 6 -25 31 -44 59 -45 24 0 53 42 53 77 0 40 17 -9
19 -55z m-1039 43 c0 -12 -14 -15 -70 -15 -56 0 -70 3 -70 15 0 12 14 15 70
15 56 0 70 -3 70 -15z m995 -5 c0 -22 -31 -36 -49 -21 -26 21 -19 36 16 35 20
-1 33 -6 33 -14z m-625 -17 c0 -3 -11 -3 -25 -1 -22 5 -25 2 -25 -23 0 -15 -3
-36 -7 -46 -3 -10 -3 -15 2 -11 21 20 35 -18 37 -101 l2 -86 3 77 c3 52 -1 93
-12 123 -19 57 -19 57 1 53 26 -5 53 -102 53 -190 1 -51 5 -78 14 -81 6 -3
-14 -6 -45 -6 l-58 -1 -2 108 c-3 147 0 195 14 203 12 7 48 -6 48 -18z m-1098
-23 c46 -37 52 -39 68 -25 39 35 65 1 73 -97 l6 -67 -69 -15 c-38 -9 -87 -16
-109 -16 l-41 0 0 58 c0 31 -5 64 -10 72 -7 11 -10 1 -10 -35 0 -82 -7 -95
-49 -95 -55 0 -81 10 -81 31 0 29 30 111 52 142 21 29 94 87 110 87 5 0 32
-18 60 -40z m1842 26 c18 -7 42 -27 54 -43 21 -29 66 -133 60 -138 -2 -2 -20
-6 -40 -10 -33 -6 -38 -5 -38 11 -1 25 -29 75 -30 52 0 -9 4 -28 9 -41 7 -19
6 -27 -4 -30 -18 -8 -55 84 -62 156 -6 63 -3 66 51 43z m-1114 -32 c0 -11 -16
-14 -70 -14 -60 0 -70 3 -70 18 0 15 9 17 70 14 52 -3 70 -7 70 -18z m878 14
c-3 -7 -15 -43 -27 -80 -30 -91 -48 -112 -83 -99 l-27 10 29 68 c16 37 38 78
49 91 21 23 67 31 59 10z m942 -13 l0 -25 -115 0 c-105 0 -115 2 -115 18 0 10
3 22 7 25 3 4 55 7 115 7 l108 0 0 -25z m-3580 -12 c0 -37 -14 -57 -34 -50
-18 7 -21 30 -6 58 16 29 40 24 40 -8z m460 7 c0 -5 -9 -10 -21 -10 -11 0 -17
5 -14 10 3 6 13 10 21 10 8 0 14 -4 14 -10z m3680 -169 l0 -178 -117 -7 c-65
-4 -133 -9 -150 -12 l-33 -6 0 71 0 71 135 0 135 0 0 120 c0 100 3 120 15 120
13 0 15 -27 15 -179z m-4005 134 c0 -28 -29 -25 -33 3 -3 19 0 23 15 20 10 -2
18 -12 18 -23z m2520 -47 c-8 -85 -19 -113 -30 -79 -12 38 8 151 27 151 7 0 8
-24 3 -72z m-2205 42 c0 -5 -4 -10 -10 -10 -5 0 -7 -7 -3 -16 4 -10 13 -14 29
-10 17 5 24 1 29 -15 8 -25 -16 -55 -38 -46 -17 6 -58 87 -51 99 7 11 44 10
44 -2z m1896 -1 c10 -17 -23 -46 -37 -32 -7 7 -9 19 -6 27 7 18 33 21 43 5z
m1234 -104 l0 -105 -115 0 -115 0 0 105 0 105 115 0 115 0 0 -105z m-1530 -87
c0 -127 -3 -169 -11 -161 -16 16 -24 270 -10 306 6 15 13 27 16 27 3 0 5 -77
5 -172z m-1885 136 c8 -9 23 -30 32 -47 l16 -32 -22 19 -21 19 0 -34 c1 -19 7
-52 15 -74 8 -21 13 -40 12 -41 -1 -1 -15 -4 -31 -6 -29 -3 -30 -2 -42 66 -7
38 -16 71 -20 75 -6 5 -1 -71 9 -129 1 -8 -2 -16 -8 -18 -12 -4 -34 95 -35
154 0 22 5 45 12 52 17 17 64 15 83 -4z m1755 3 c0 -8 -11 -24 -25 -37 -20
-19 -24 -30 -19 -56 3 -18 1 -34 -5 -38 -8 -5 -11 16 -11 68 l0 76 30 0 c18 0
30 -5 30 -13z m-1310 -17 c0 -16 -7 -20 -34 -20 -29 0 -33 3 -29 20 4 14 14
20 34 20 22 0 29 -5 29 -20z m1188 -2 c3 -16 -6 -18 -87 -18 -85 0 -91 1 -91
20 0 20 5 21 87 18 74 -3 88 -6 91 -20z m1400 -8 c2 -28 0 -30 -33 -30 -30 0
-35 3 -35 23 0 30 7 37 40 37 21 0 26 -5 28 -30z m-848 16 c0 -3 -4 -8 -10
-11 -5 -3 -10 -1 -10 4 0 6 5 11 10 11 6 0 10 -2 10 -4z m2263 -3 c-13 -2 -33
-2 -45 0 -13 2 -3 4 22 4 25 0 35 -2 23 -4z m-3223 -17 c0 -9 -21 -15 -69 -20
-38 -3 -76 -8 -84 -12 -15 -5 -31 21 -21 37 3 5 43 9 90 9 64 0 84 -3 84 -14z
m3240 -26 c0 -17 -7 -20 -40 -20 -54 0 -56 27 -2 33 20 2 38 4 40 5 1 1 2 -7
2 -18z m-4374 -33 c-3 -16 -11 -36 -17 -44 -17 -20 -39 -16 -39 7 0 11 4 20 8
20 4 0 13 14 19 31 15 40 37 29 29 -14z m327 26 c-13 -2 -35 -2 -50 0 -16 2
-5 4 22 4 28 0 40 -2 28 -4z m1357 -13 c13 21 12 3 -1 -21 -6 -13 -17 -18 -26
-15 -11 5 -14 2 -9 -11 6 -14 4 -15 -4 -6 -8 7 -9 23 -5 44 7 31 8 32 22 13
12 -16 15 -17 23 -4z m320 16 c0 -11 -19 -15 -25 -6 -3 5 1 10 9 10 9 0 16 -2
16 -4z m43 -39 c-4 -6 3 -8 18 -5 13 3 35 2 49 -2 16 -5 -13 -8 -77 -9 -102
-1 -137 11 -66 22 22 4 42 2 50 -5 12 -9 13 -6 8 18 -6 27 -5 28 9 10 8 -10
13 -23 9 -29z m-336 -34 c-2 -16 -4 -5 -4 22 0 28 2 40 4 28 2 -13 2 -35 0
-50z m32 20 c-1 -53 -6 -49 -11 10 -2 20 0 37 4 37 4 0 8 -21 7 -47z m218 41
c-3 -3 -12 -4 -19 -1 -8 3 -5 6 6 6 11 1 17 -2 13 -5z m314 -9 l34 -14 -29 -1
c-22 0 -27 -4 -22 -16 5 -14 4 -15 -9 -4 -13 11 -22 50 -11 50 2 0 19 -7 37
-15z m459 -14 c0 -17 -6 -33 -12 -38 -7 -4 -71 -16 -143 -26 -210 -30 -214
-30 -230 -17 -13 10 -15 8 -16 -16 l-1 -29 -7 30 c-4 17 -4 34 1 40 4 5 8 17
8 27 0 21 11 23 29 6 11 -10 14 -10 18 0 5 14 123 17 123 3 0 -5 -28 -16 -62
-24 -72 -17 -57 -22 22 -7 30 6 61 17 70 25 9 8 27 15 41 16 13 0 49 9 79 19
75 25 80 25 80 -9z m209 13 c2 -2 -14 -4 -37 -4 -23 0 -42 4 -42 9 0 8 70 4
79 -5z m-1968 -35 c-39 -36 -48 -40 -80 -34 -25 4 -50 0 -81 -14 -25 -10 -85
-27 -133 -37 -102 -21 -120 -16 -125 38 l-3 34 83 -8 c112 -12 308 15 308 42
0 9 23 17 55 19 15 1 9 -9 -24 -40z m-1154 -126 c-17 -16 -27 16 -26 85 l1 77
15 -78 c8 -43 13 -81 10 -84z m583 135 c0 -11 -4 -16 -10 -13 -5 3 -10 -1 -10
-9 0 -16 -16 -21 -56 -17 -12 1 -32 -3 -45 -8 -17 -7 16 -10 114 -10 96 -1
137 -4 137 -13 0 -15 -257 -3 -277 14 -8 6 -13 23 -11 37 3 28 28 36 116 37
35 1 42 -3 42 -18z m1138 -75 c-3 -86 -3 -88 -28 -88 -24 0 -25 3 -30 70 -5
61 -6 66 -13 35 -4 -19 -8 -57 -9 -85 l-3 -50 -47 -3 -48 -3 0 105 0 106 90 0
91 0 -3 -87z m-505 70 c-7 -2 -19 -2 -25 0 -7 3 -2 5 12 5 14 0 19 -2 13 -5z
m3337 -3 c0 -11 -65 -24 -79 -15 -24 14 -9 25 34 25 25 0 45 -4 45 -10z
m-4225 -10 c3 -5 1 -10 -4 -10 -6 0 -11 5 -11 10 0 6 2 10 4 10 3 0 8 -4 11
-10z m933 -7 c-10 -2 -26 -2 -35 0 -10 3 -2 5 17 5 19 0 27 -2 18 -5z m1042
-3 c0 -13 -160 -13 -180 0 -10 7 16 10 83 10 58 0 97 -4 97 -10z m2124 -429
c-5 -274 -11 -428 -17 -422 -6 6 -8 168 -5 423 3 365 8 451 24 435 3 -2 2
-199 -2 -436z m-3155 413 c2 -2 -16 -4 -42 -4 -25 0 -49 4 -52 10 -6 9 83 3
94 -6z m-859 -19 c0 -12 -16 -15 -84 -15 -62 0 -87 4 -96 15 -11 13 -1 15 84
15 79 0 96 -3 96 -15z m1509 -1 c9 -8 -145 -2 -164 6 -12 5 15 7 70 3 50 -3
92 -7 94 -9z m-751 -6 c7 -7 12 -16 12 -20 0 -10 -42 -11 -65 -1 -15 5 -14 8
6 19 30 17 32 17 47 2z m130 -9 c-8 -4 -25 -5 -39 -2 l-24 7 25 6 c32 9 59 1
38 -11z m935 14 c-7 -2 -21 -2 -30 0 -10 3 -4 5 12 5 17 0 24 -2 18 -5z m225
-20 c2 -14 -4 -27 -17 -35 -17 -11 -21 -23 -21 -70 0 -32 -4 -58 -10 -58 -6 0
-10 28 -10 65 0 45 -4 65 -12 65 -9 0 -13 -22 -13 -75 -1 -69 -7 -96 -21 -83
-3 4 -2 43 2 88 l7 81 41 -3 c31 -2 42 1 44 14 3 14 -2 15 -38 6 -47 -12 -64
-3 -35 18 30 22 79 14 83 -13z m-1372 -80 c-4 -54 -7 -113 -7 -132 l0 -33 -62
6 c-34 4 -101 14 -149 22 l-88 16 0 74 c0 55 3 74 13 74 8 0 19 -11 25 -25 6
-14 18 -25 26 -25 8 0 54 27 103 59 55 38 99 60 117 60 l28 1 -6 -97z m1786
60 c6 -42 4 -48 -11 -38 -13 8 -15 75 -2 75 5 0 11 -17 13 -37z m-973 11 c2
-2 -2 -39 -10 -84 -12 -78 -13 -80 -40 -80 -43 0 -79 17 -88 42 -4 13 -11 48
-14 78 l-7 55 78 -3 c42 -2 79 -6 81 -8z m191 6 c12 -8 10 -10 -10 -11 -14 -1
-2 -5 25 -10 50 -7 49 -7 -15 -5 l-65 1 0 -55 c0 -30 4 -65 8 -77 7 -20 5 -23
-17 -23 l-26 0 0 95 0 95 43 0 c23 0 49 -5 57 -10z m-845 -40 c6 1 14 8 18 16
8 14 27 10 27 -6 0 -24 -34 -40 -83 -38 -54 1 -87 14 -87 36 0 9 8 9 35 -2 33
-14 35 -14 35 5 0 24 17 25 23 2 3 -13 5 -11 7 7 l2 25 6 -23 c4 -13 12 -23
17 -22z m1655 30 c0 -5 -4 -10 -10 -10 -5 0 -10 5 -10 10 0 6 5 10 10 10 6 0
10 -4 10 -10z m265 -15 c14 -13 25 -31 25 -40 0 -14 -6 -15 -32 -8 -18 4 -54
8 -80 8 -35 0 -48 4 -48 14 0 52 92 70 135 26z m-2935 -14 c0 -29 -1 -30 -37
-25 -57 8 -63 12 -63 34 0 17 6 20 50 20 49 0 50 -1 50 -29z m39 -78 c0 -60
-4 -117 -9 -128 -5 -13 -9 27 -9 108 -1 72 3 127 8 127 5 0 10 -48 10 -107z
m161 98 c0 -5 -9 -7 -20 -4 -11 3 -20 7 -20 9 0 2 9 4 20 4 11 0 20 -4 20 -9z
m310 -151 c0 -101 -3 -129 -14 -133 -8 -3 -17 -3 -20 0 -3 4 -6 72 -6 151 0
144 0 145 20 127 18 -16 20 -31 20 -145z m1575 150 c-28 -12 -145 -12 -145 0
0 6 34 10 83 9 55 0 75 -3 62 -9z m-2209 -112 c-3 -62 -9 -132 -12 -155 -6
-40 -9 -43 -37 -43 -29 0 -30 1 -24 43 3 23 1 87 -5 141 -10 92 -10 100 7 112
11 8 32 14 48 14 l30 0 -7 -112z m437 105 c-7 -2 -19 -2 -25 0 -7 3 -2 5 12 5
14 0 19 -2 13 -5z m2140 -10 c-24 -2 -62 -2 -85 0 -24 2 -5 4 42 4 47 0 66 -2
43 -4z m-2269 -19 c5 -14 4 -15 -9 -4 -17 14 -19 20 -6 20 5 0 12 -7 15 -16z
m134 9 c-10 -2 -28 -2 -40 0 -13 2 -5 4 17 4 22 1 32 -1 23 -4z m2084 -9 c54
-4 85 -11 81 -17 -6 -10 -190 -3 -252 9 -51 10 -23 27 33 20 28 -3 90 -9 138
-12z m683 -21 l14 -33 -59 0 c-52 0 -59 2 -53 18 21 60 76 68 98 15z m-1198
21 c16 -5 22 -15 25 -47 6 -50 -5 -67 -43 -67 -36 0 -59 32 -59 82 0 35 2 38
28 38 15 0 37 -3 49 -6z m219 -16 c-3 -13 -6 -47 -6 -77 l0 -53 -57 4 c-43 4
-61 10 -75 28 -19 24 -25 80 -8 80 6 0 10 5 10 10 0 6 -12 10 -27 10 -22 0
-25 2 -13 10 8 5 53 10 99 10 82 0 83 0 77 -22z m660 7 c4 -8 4 -22 0 -30 -4
-12 -10 -13 -31 -3 -37 17 -32 48 7 48 10 0 21 -7 24 -15z m419 -5 c9 -15 -14
-40 -37 -40 -23 0 -36 29 -17 41 19 12 46 11 54 -1z m-2877 -7 c-15 -2 -42 -2
-60 0 -18 2 -6 4 27 4 33 0 48 -2 33 -4z m4152 -3 c0 -6 -31 -10 -72 -10 -51
0 -68 3 -58 10 20 13 130 13 130 0z m-4472 -62 l3 -58 -29 0 c-28 0 -30 3 -34
43 -3 23 -8 49 -12 57 -5 13 1 16 31 15 l38 0 3 -57z m462 -23 l0 -85 -32 0
c-18 0 -70 3 -115 7 -63 4 -83 9 -83 21 0 12 17 14 103 11 l102 -4 3 62 3 62
-43 4 c-42 3 -41 4 10 5 l52 2 0 -85z m1753 -6 c-4 -4 -6 15 -3 44 l5 52 3
-44 c2 -24 0 -47 -5 -52z m483 74 c-3 -8 -2 -12 3 -9 4 3 17 -1 27 -9 18 -14
18 -15 -6 -34 -21 -17 -23 -22 -12 -45 9 -21 9 -26 -2 -26 -7 0 -19 7 -26 15
-7 8 -22 14 -34 14 -17 -1 -18 -2 -3 -6 26 -7 17 -37 -12 -41 -20 -3 -23 0
-19 16 4 15 2 19 -8 15 -8 -3 -11 -9 -8 -14 9 -15 -33 -10 -49 6 -8 8 -17 11
-21 8 -3 -3 -8 1 -11 10 -9 21 20 74 48 88 49 27 141 35 133 12z m243 -8 c12
-12 10 -15 -12 -20 -14 -4 -28 -13 -31 -21 -6 -15 -36 -20 -36 -6 0 4 -15 13
-32 20 l-33 13 25 20 c19 17 33 20 65 14 22 -3 46 -12 54 -20z m-3149 -31 c0
-51 -37 -133 -60 -134 -10 0 13 165 24 172 15 10 36 -11 36 -38z m2600 35 c36
-1 57 -3 46 -6 -14 -4 -17 -11 -13 -33 5 -23 2 -29 -16 -35 l-22 -8 23 -4 c13
-3 38 0 55 6 30 10 31 10 12 -5 -15 -12 -35 -15 -87 -11 -79 7 -103 17 -123
57 -24 46 -20 53 23 46 20 -3 66 -6 102 -7z m-2250 -114 c0 -114 0 -115 25
-121 14 -3 40 -4 58 -1 18 3 26 3 20 0 -7 -2 -13 -9 -13 -14 0 -12 57 -12 62
0 2 6 34 4 78 -5 48 -9 98 -12 138 -8 l62 6 0 -67 0 -67 -27 4 c-67 11 -638
130 -642 134 -11 10 15 18 92 29 68 10 85 10 102 -1 13 -9 15 -14 6 -14 -8 0
-11 -3 -8 -6 4 -4 13 -1 22 6 10 8 15 30 15 67 0 46 -3 56 -20 60 -17 5 -20
14 -20 59 0 51 1 54 25 54 l25 0 0 -115z m278 86 c4 -23 2 -24 -50 -18 -29 4
-72 7 -95 7 -37 0 -43 3 -43 20 0 20 5 21 93 18 89 -3 92 -4 95 -27z m4250 4
c8 -3 12 -26 12 -69 0 -67 -6 -76 -51 -76 -22 0 -24 10 -6 29 7 9 8 12 0 7 -7
-4 -13 10 -18 43 l-7 48 -164 2 -164 2 0 -76 c0 -60 -3 -75 -15 -75 -17 0 -19
38 -9 125 l6 50 202 -3 c110 -2 207 -5 214 -7z m-4466 -62 c4 -56 2 -71 -6
-62 -7 8 -12 119 -5 119 4 0 9 -26 11 -57z m2888 47 c0 -13 -40 -13 -60 0 -11
7 -5 10 23 10 20 0 37 -4 37 -10z m1650 -310 l0 -320 -58 -29 -59 -30 -191 27
-192 27 0 181 c0 100 -3 201 -6 226 -5 33 -3 46 7 50 8 3 82 1 164 -4 158 -9
252 0 281 29 10 11 12 31 7 89 l-6 74 27 0 26 0 0 -320z m-3225 289 c12 -5
-25 -6 -90 -3 -69 3 -104 2 -95 -4 8 -5 58 -12 110 -15 123 -8 297 -23 486
-43 112 -11 162 -13 190 -5 27 7 41 7 51 0 12 -11 113 -8 283 7 68 5 39 -10
-37 -21 -47 -6 -85 -25 -51 -25 7 0 69 -7 138 -15 69 -8 161 -15 205 -15 44 0
121 -6 170 -14 58 -8 111 -10 150 -5 97 12 127 8 40 -6 -123 -20 -189 -18
-527 20 -172 20 -407 45 -523 55 -115 11 -309 29 -430 40 -121 11 -267 25
-325 30 -58 6 -125 10 -149 10 -72 0 -38 12 56 21 100 8 318 1 348 -12z m1490
11 c4 -6 -13 -10 -45 -10 -32 0 -49 4 -45 10 3 6 24 10 45 10 21 0 42 -4 45
-10z m235 1 c44 -8 44 -9 -22 -10 -87 -1 -90 -21 -3 -21 l65 0 0 -44 c0 -52
-19 -76 -58 -76 -40 0 -49 10 -65 70 -8 30 -18 63 -22 73 -6 14 -2 17 26 16
19 0 54 -4 79 -8z m-3325 -95 c-4 -42 -12 -76 -17 -76 -10 0 -2 135 9 153 12
20 14 -7 8 -77z m505 64 c0 -18 -6 -20 -95 -17 -83 2 -95 4 -95 20 0 15 11 17
95 17 88 0 95 -1 95 -20z m2550 0 l155 -7 -160 -1 c-168 -2 -235 4 -235 21 0
6 16 7 43 2 23 -4 112 -11 197 -15z m1611 -1 c5 -8 9 -38 9 -66 l0 -53 -89 0
c-48 0 -116 3 -150 6 l-61 7 0 41 c0 23 3 52 7 65 l6 24 134 -5 c102 -3 137
-8 144 -19z m-3454 -4 c287 -23 883 -81 1330 -131 423 -46 497 -50 603 -33
128 21 230 26 230 12 0 -7 -7 -13 -16 -13 -8 0 -89 -16 -178 -35 l-163 -35
-254 34 c-252 34 -617 75 -1274 141 -187 19 -374 39 -415 44 -95 13 -102 13
-95 1 3 -5 1 -10 -4 -10 -13 0 -13 3 -5 24 7 20 8 20 241 1z m-1037 -68 c0
-16 -4 -26 -10 -22 -5 3 -10 23 -10 43 0 28 3 33 10 22 5 -8 10 -28 10 -43z
m3014 22 c-36 -40 -103 -61 -186 -57 -79 3 -114 19 -144 63 -13 20 -10 20 168
17 179 -3 180 -3 162 -23z m-3116 4 c-10 -2 -26 -2 -35 0 -10 3 -2 5 17 5 19
0 27 -2 18 -5z m4041 3 c-2 -2 -116 -27 -253 -55 -251 -51 -366 -63 -366 -38
0 7 8 13 18 14 14 1 236 39 417 72 51 9 192 14 184 7z m-3442 -38 c-3 -7 -5
-2 -5 12 0 14 2 19 5 13 2 -7 2 -19 0 -25z m48 -45 c-8 -75 -9 -78 -24 -68
-12 7 -15 117 -4 128 3 4 13 7 20 7 12 0 13 -13 8 -67z m2082 55 c-7 -4 -46
-8 -87 -8 -41 0 -80 4 -87 8 -6 4 33 7 87 7 54 0 93 -3 87 -7z m-2349 -14 c81
-6 92 -9 92 -25 0 -11 -3 -19 -7 -19 -14 0 -187 31 -205 36 -26 8 -22 27 5 21
12 -3 64 -9 115 -13z m445 1 l57 0 0 -56 c0 -92 -10 -148 -26 -142 -8 3 -14 0
-14 -6 0 -6 6 -11 14 -11 17 0 13 -45 -11 -128 -12 -40 -21 -54 -39 -58 -27
-7 -32 -29 -9 -38 32 -12 10 -46 -29 -46 -15 0 -10 41 32 235 17 77 29 142 26
144 -10 11 -24 -19 -44 -99 -11 -47 -33 -122 -47 -167 -23 -71 -29 -81 -47
-77 -12 2 -22 8 -24 14 -2 6 -9 7 -15 3 -7 -4 -8 0 -2 13 5 10 12 109 16 219
4 110 7 204 8 208 1 5 22 5 49 0 26 -4 73 -8 105 -8z m-833 -5 c-34 -11 -60
-11 -35 0 11 5 29 8 40 8 16 0 15 -2 -5 -8z m936 -60 l-7 -70 40 0 40 0 4 73
3 72 2 -81 2 -81 -31 -7 c-65 -13 -69 -10 -69 42 0 53 10 122 18 122 2 0 1
-31 -2 -70z m-1150 23 c-3 -3 -13 -2 -23 1 -17 7 -17 8 2 22 18 13 20 13 23
-1 2 -9 1 -19 -2 -22z m1338 16 c-3 -5 0 -9 6 -9 6 0 9 -4 5 -9 -3 -5 3 -12
12 -14 10 -3 5 -5 -12 -6 -51 -1 -75 9 -75 33 0 19 4 21 35 18 19 -2 32 -8 29
-13z m3038 -16 c16 -14 18 -35 18 -205 0 -147 -3 -189 -12 -185 -10 3 -13 48
-13 180 l0 177 -60 -2 c-57 -2 -57 -2 -12 -5 26 -2 47 -9 47 -15 0 -7 -14 -8
-37 -4 -21 3 -50 6 -65 6 -51 0 -32 28 30 45 31 9 62 18 67 20 17 6 18 5 37
-12z m-3877 -11 c-3 -3 -11 0 -18 7 -9 10 -8 11 6 5 10 -3 15 -9 12 -12z
m1410 -38 l80 -7 -65 -13 c-104 -20 -110 -19 -110 19 0 17 4 27 8 21 4 -7 43
-15 87 -20z m2285 -151 l-5 -178 -3 165 c-2 145 0 190 10 190 2 0 1 -80 -2
-177z m-4129 130 c1 -28 1 -28 8 -4 6 23 31 42 31 24 0 -4 -9 -37 -20 -72 -11
-36 -21 -74 -22 -87 -2 -14 -7 -20 -16 -16 -7 2 -9 8 -4 11 5 3 12 31 15 61 4
37 3 50 -3 40 -7 -11 -10 -3 -10 28 0 46 19 60 21 15z m1699 -38 c410 -51 544
-70 1115 -155 326 -48 310 -48 342 -13 l28 30 0 -404 c0 -262 -3 -403 -10
-403 -5 1 -152 41 -325 89 -290 81 -316 90 -321 112 -4 13 -14 56 -23 94 -34
144 -118 276 -211 331 -113 66 -272 26 -366 -92 -41 -51 -56 -83 -73 -146 -13
-51 -14 -52 -20 -23 -30 137 -69 216 -141 284 -86 82 -165 91 -247 28 -36 -28
-97 -114 -98 -139 0 -15 24 -8 48 15 l25 22 -26 -46 c-15 -25 -30 -67 -33 -92
-8 -54 -9 -54 -99 -29 l-60 17 -3 293 -2 294 27 -6 c16 -3 228 -31 473 -61z
m-1583 35 c363 -74 591 -122 606 -126 12 -4 17 -16 17 -40 0 -19 -4 -34 -9
-34 -8 0 -257 58 -475 110 -48 12 -90 19 -93 17 -2 -3 110 -32 249 -66 139
-33 270 -66 292 -72 l38 -11 -7 -61 c-3 -34 -8 -63 -9 -64 -1 -2 -105 24 -232
57 -126 33 -267 70 -314 82 -99 26 -161 66 -153 101 8 37 34 117 38 117 2 0
26 -4 52 -10z m683 -140 c0 -71 -3 -135 -6 -144 -17 -43 -24 -2 -24 134 0 129
2 149 15 144 12 -5 15 -30 15 -134z m3280 -160 l0 -300 -262 -131 c-145 -72
-259 -127 -255 -123 5 5 119 65 255 134 l247 125 3 298 c1 163 4 297 7 297 3
0 5 -135 5 -300z m154 294 l47 -7 -3 -61 c-3 -56 -5 -61 -27 -64 -13 -2 -39
-1 -57 3 -31 5 -34 9 -34 40 0 34 1 35 40 35 54 0 51 17 -5 26 -28 4 -45 11
-45 20 0 16 16 17 84 8z m-1727 -71 c-3 -10 -5 -4 -5 12 0 17 2 24 5 18 2 -7
2 -21 0 -30z m-1337 -8 c0 -8 -8 -15 -17 -15 -10 0 -35 -3 -55 -6 -30 -5 -38
-3 -38 9 0 15 22 22 83 26 18 1 27 -4 27 -14z m1995 -72 c-10 -18 -22 -30 -26
-27 -17 10 -9 58 14 82 l22 24 4 -23 c1 -13 -5 -38 -14 -56z m-1995 -4 c0 -33
-3 -40 -16 -35 -9 3 -34 9 -56 12 -41 7 -55 22 -44 49 4 11 21 15 61 15 l55 0
0 -41z m2090 -435 c0 -448 -1 -475 -17 -470 -10 3 -182 53 -382 110 -200 57
-367 110 -372 118 -15 24 26 20 158 -16 70 -20 223 -62 340 -94 l212 -59 3
423 c3 398 4 423 22 443 11 12 23 21 28 21 4 0 8 -214 8 -476z m995 440 c17
-4 20 -12 17 -47 l-4 -42 -54 3 -54 4 0 44 0 44 38 0 c20 0 46 -3 57 -6z
m-3135 -45 l50 -11 0 -54 c0 -32 -4 -54 -11 -54 -19 0 -118 31 -123 39 -3 4
-2 26 1 49 6 46 8 47 83 31z m2919 7 c-2 -2 -103 -38 -224 -79 -121 -42 -228
-79 -237 -82 -10 -4 -18 -3 -18 3 0 15 170 76 405 146 49 14 83 20 74 12z
m-2423 -117 c62 -38 131 -150 162 -266 17 -60 22 -68 45 -71 36 -4 34 -22 -2
-22 -36 0 -43 9 -71 99 -43 136 -135 242 -222 256 -29 5 -37 10 -27 16 24 15
81 10 115 -12z m2663 6 c12 -12 -12 -16 -63 -10 -31 4 -56 12 -56 18 0 9 108
2 119 -8z m-3294 -5 c-3 -5 -12 -7 -20 -3 -21 7 -19 13 6 13 11 0 18 -4 14
-10z m183 -33 c8 -6 12 -39 12 -97 l0 -87 -90 26 -90 26 0 40 c0 53 11 69 41
61 23 -7 23 -6 5 8 -10 8 -23 17 -29 19 -6 2 -6 10 1 24 11 20 13 21 74 5 35
-8 69 -19 76 -25z m-380 -73 c2 -49 7 -118 11 -154 8 -61 9 -58 11 60 2 69 3
133 2 143 -1 9 3 17 9 17 5 0 7 -5 3 -12 -5 -7 -2 -9 7 -6 12 5 13 -17 8 -137
-4 -122 -8 -145 -25 -168 -39 -48 -47 -21 -60 210 -7 117 -3 148 19 141 8 -3
13 -34 15 -94z m3494 73 c47 -2 48 -2 48 -35 l0 -34 -50 6 c-27 3 -73 9 -101
12 -51 6 -67 20 -55 50 5 12 16 14 58 9 29 -4 74 -7 100 -8z m-3381 -172 l2
-80 7 95 c4 52 6 98 3 103 -2 4 2 7 11 7 8 0 21 3 30 6 20 8 21 -24 5 -166
-11 -95 -13 -100 -35 -100 -18 0 -24 6 -25 23 0 12 -3 16 -6 9 -3 -7 -2 -24 1
-38 5 -20 12 -25 26 -21 31 8 24 -22 -7 -34 -14 -5 -29 -6 -33 -2 -4 4 -4 89
-1 188 5 182 17 188 22 10z m1246 115 c95 -43 196 -187 223 -317 7 -31 10
-100 8 -152 -6 -142 -53 -237 -140 -282 -44 -23 -67 -24 -112 -5 -118 49 -204
233 -193 411 6 90 23 138 68 189 60 69 143 66 215 -9 104 -108 125 -341 41
-448 -28 -36 -73 -64 -85 -52 -3 3 -11 44 -17 91 -10 72 -9 83 2 68 7 -10 13
-29 13 -43 0 -14 3 -43 6 -64 l7 -38 26 17 c14 9 34 25 43 36 20 23 16 36 -36
104 -26 34 -34 39 -44 28 -15 -17 -48 -18 -57 -3 -4 6 -23 -20 -42 -56 l-35
-67 29 -30 c40 -43 99 -71 132 -63 14 3 38 18 54 33 15 14 27 21 27 15 0 -18
-57 -61 -89 -68 -95 -21 -211 152 -211 315 0 64 10 130 19 130 12 -1 104 -91
98 -96 -3 -3 -24 11 -46 32 -23 20 -43 35 -45 33 -2 -2 -7 -25 -11 -51 l-7
-48 53 0 c39 0 50 -3 39 -10 -8 -5 -32 -10 -52 -10 -21 0 -38 -4 -38 -8 0 -13
30 -124 36 -134 9 -15 74 102 74 134 0 42 17 68 45 68 26 0 45 -25 45 -60 0
-19 72 -121 91 -128 5 -2 9 5 9 15 0 10 3 34 6 54 l6 36 -46 7 c-25 4 -49 12
-52 18 -5 8 8 9 44 4 39 -5 52 -4 52 6 0 12 -15 76 -25 106 -4 9 -17 4 -49
-17 -30 -21 -45 -27 -48 -18 -2 6 -2 47 1 91 6 70 4 80 -14 92 -11 8 -39 14
-64 14 -38 0 -49 -5 -82 -40 -139 -146 -54 -520 129 -570 96 -25 186 69 212
223 36 203 -100 451 -272 498 -79 21 -144 -38 -191 -175 -23 -69 -27 -74 -22
-36 7 56 55 157 92 192 63 60 111 70 180 38z m204 -123 c41 -63 75 -156 84
-227 4 -34 0 -26 -15 30 -28 102 -68 184 -125 255 -36 45 -40 53 -15 30 18
-16 50 -56 71 -88z m-788 94 c61 -23 148 -138 146 -191 0 -8 -7 3 -15 24 -32
88 -118 163 -173 151 -72 -16 -120 -102 -121 -216 0 -89 19 -159 59 -219 35
-52 63 -69 115 -70 33 0 45 6 79 42 22 23 35 33 29 22 -5 -10 -21 -29 -34 -40
-86 -78 -164 -50 -229 83 -38 75 -50 187 -30 271 14 57 61 119 105 138 38 16
39 16 69 5z m1884 -333 c-1 -62 -3 -14 -3 107 0 121 2 172 3 113 2 -59 2 -158
0 -220z m-1900 279 c-16 -11 -16 -15 -1 -60 9 -26 19 -47 24 -47 4 0 15 21 25
47 10 26 20 43 22 37 6 -19 -36 -106 -50 -102 -6 3 -22 31 -35 63 -24 60 -21
74 17 75 11 0 11 -3 -2 -13z m-449 -49 c45 -12 82 -28 82 -35 0 -6 16 -17 35
-23 28 -9 35 -17 35 -38 0 -15 -4 -32 -8 -38 -8 -11 -158 -55 -214 -62 -29 -3
-39 0 -44 12 -10 27 6 206 19 206 7 0 49 -10 95 -22z m433 -76 c19 -7 20 -10
6 -15 -15 -6 -48 24 -61 56 -3 9 -7 8 -15 -3 -14 -19 -14 -9 0 27 l10 27 19
-42 c11 -23 29 -46 41 -50z m589 48 c-12 -8 -11 -10 8 -10 12 0 22 -4 22 -10
0 -5 -9 -10 -20 -10 -19 0 -20 -4 -15 -52 6 -51 5 -52 -9 -28 -8 14 -15 42
-16 63 0 20 -4 37 -9 37 -5 0 -26 -19 -47 -42 -37 -42 -37 -42 -18 -8 19 34
73 70 104 70 13 0 13 -1 0 -10z m-460 -79 c-12 -24 -30 -28 -30 -6 0 13 31 38
38 30 2 -2 -1 -13 -8 -24z m-181 8 c41 -14 40 -30 -1 -18 -45 13 -48 12 -48
-13 0 -12 -3 -19 -6 -15 -9 8 4 57 15 57 4 0 22 -5 40 -11z m115 -31 c20 -29
20 -47 -1 -70 -21 -24 -50 -23 -63 1 -33 62 25 125 64 69z m116 -58 c-12 -86
-24 -107 -18 -35 3 48 2 50 -24 50 -14 -1 -25 3 -22 6 2 4 -4 10 -13 12 -10 3
3 5 30 6 41 1 47 4 47 23 0 12 2 19 5 16 3 -3 1 -38 -5 -78z m-880 20 c0 -5
-4 -10 -10 -10 -5 0 -10 5 -10 10 0 6 5 10 10 10 6 0 10 -4 10 -10z m635 -108
c37 -91 120 -120 176 -61 33 35 36 51 13 70 -8 7 -22 26 -31 43 l-16 31 23
-20 c12 -11 31 -32 42 -47 17 -25 18 -30 4 -57 -35 -67 -102 -89 -155 -52 -38
27 -80 110 -86 167 -4 48 -4 48 4 9 5 -22 17 -59 26 -83z m2613 36 c-2 -54 -7
-83 -15 -86 -10 -3 -13 15 -13 66 0 74 6 102 21 102 6 0 9 -36 7 -82z m-2568
58 c0 -3 -4 -8 -10 -11 -5 -3 -10 -1 -10 4 0 6 5 11 10 11 6 0 10 -2 10 -4z
m-661 -22 c2 -2 -7 -8 -20 -13 -25 -9 -59 2 -59 20 0 9 68 3 79 -7z m3171 -44
c0 -41 -4 -62 -13 -66 -7 -2 -51 4 -98 14 l-84 18 85 46 c47 25 91 46 98 47 8
1 12 -17 12 -59z m-2244 -13 c-16 -97 -94 -206 -161 -223 -35 -9 -88 1 -120
22 -38 25 -24 27 29 3 40 -17 52 -19 82 -9 76 25 139 114 151 211 3 27 10 46
15 42 6 -3 7 -23 4 -46z m-809 12 c24 -11 43 -23 43 -25 0 -2 -15 -4 -34 -4
-23 0 -45 9 -63 25 -24 21 -26 24 -9 25 11 0 39 -9 63 -21z m103 11 c24 -8 24
-8 -7 -9 -17 -1 -35 4 -38 9 -7 11 9 11 45 0z m524 -48 c9 -24 12 -41 6 -37
-5 3 -10 -1 -10 -9 0 -9 -4 -16 -10 -16 -5 0 -10 26 -10 57 0 64 1 64 24 5z
m-705 6 c28 -17 49 -33 47 -35 -7 -7 -80 15 -100 30 -11 8 -16 19 -12 25 10
16 8 16 65 -20z m3025 -47 c48 -11 90 -22 93 -25 3 -2 -11 -8 -30 -11 -37 -7
-177 29 -177 45 0 14 14 13 114 -9z m-178 -56 c-18 -11 -81 -45 -139 -75
l-106 -55 -4 -45 c-3 -32 -4 -28 -3 15 l1 60 95 53 c52 29 109 56 125 60 17 5
31 14 31 20 3 26 5 26 19 7 14 -18 13 -21 -19 -40z m-1319 3 c-3 -7 -5 -2 -5
12 0 14 2 19 5 13 2 -7 2 -19 0 -25z m2047 -58 c199 -44 367 -83 375 -85 9 -4
0 -15 -25 -33 l-39 -28 -90 21 c-49 12 -224 55 -389 95 l-298 74 48 17 c27 10
51 18 53 18 2 1 167 -35 365 -79z m-1024 -130 c0 -42 -3 -50 -19 -50 -21 0
-31 19 -31 59 0 32 7 41 32 41 15 0 18 -8 18 -50z m-80 8 c0 -17 -13 -30 -49
-50 -60 -34 -61 -34 -61 -4 0 18 11 31 43 50 52 31 67 32 67 4z m-578 -47
c130 -44 196 -70 176 -71 -10 0 -301 101 -318 111 -28 16 -5 9 142 -40z m348
-36 c0 -36 -4 -65 -9 -65 -24 0 -41 34 -41 81 0 46 2 49 25 49 24 0 25 -2 25
-65z m90 -41 c0 -67 -4 -103 -10 -99 -11 7 -14 188 -3 198 12 13 13 7 13 -99z
m-49 -9 l-8 -90 -2 100 c0 62 3 95 8 90 6 -6 7 -46 2 -100z"/>
<path d="M3885 4259 c-71 -27 -149 -56 -171 -64 -32 -12 -42 -21 -42 -38 0
-12 -2 -41 -5 -65 -3 -29 -1 -41 7 -38 6 3 76 32 156 64 211 86 237 100 213
115 -5 3 -82 -21 -173 -54 -91 -32 -172 -59 -180 -59 -29 0 6 19 100 55 235
90 260 103 260 127 0 16 -35 7 -165 -43z"/>
<path d="M3855 4105 c-126 -47 -172 -68 -179 -84 -5 -12 -7 -23 -4 -26 6 -6
268 95 329 126 37 19 48 33 32 42 -5 3 -84 -23 -178 -58z"/>
<path d="M2713 4112 l-63 -28 -5 -132 c-2 -73 -3 -132 -1 -132 2 0 17 5 35 11
l31 11 0 99 c0 59 4 99 10 99 6 0 10 -38 10 -95 l0 -95 28 12 c42 18 63 39 83
83 40 87 10 196 -53 195 -7 0 -41 -13 -75 -28z m81 -88 c7 -36 -9 -84 -31 -91
-14 -5 -23 119 -9 129 17 12 34 -3 40 -38z"/>
<path d="M3851 4020 c-157 -57 -191 -73 -179 -85 9 -9 351 119 356 133 5 17 5
17 -177 -48z"/>
<path d="M2522 4032 c-38 -6 -89 -66 -100 -117 -34 -157 106 -216 178 -74 47
92 2 204 -78 191z m36 -117 c4 -49 -14 -85 -44 -85 -24 0 -34 17 -34 58 0 41
15 59 34 43 14 -12 16 -10 16 9 0 38 25 16 28 -25z"/>
<path d="M2010 3970 c-8 -5 -10 -10 -5 -10 6 0 17 5 25 10 8 5 11 10 5 10 -5
0 -17 -5 -25 -10z"/>
<path d="M2345 3945 c-44 -16 -61 -28 -63 -44 -3 -15 1 -19 12 -15 14 5 16 -6
16 -86 0 -80 2 -91 16 -86 9 3 20 6 25 6 5 0 9 40 9 88 0 85 1 89 25 100 17 8
25 20 25 37 0 14 -1 25 -2 24 -2 0 -30 -11 -63 -24z"/>
<path d="M2155 3898 c-66 -36 -113 -126 -101 -192 10 -50 47 -80 92 -73 92 15
143 100 122 202 -14 64 -62 91 -113 63z m19 -66 c2 -4 -7 -12 -20 -19 -19 -9
-24 -8 -24 1 0 23 32 37 44 18z m42 -37 c9 -37 -3 -73 -31 -91 -20 -13 -28
-14 -40 -4 -23 19 -18 42 17 83 38 44 46 45 54 12z"/>
<path d="M2161 3764 c0 -11 3 -14 6 -6 3 7 2 16 -1 19 -3 4 -6 -2 -5 -13z"/>
<path d="M1963 3818 l-53 -21 0 -102 c0 -119 4 -135 31 -128 15 4 19 14 19 53
0 44 2 49 30 59 21 7 30 17 30 31 0 19 -4 21 -31 15 -28 -6 -30 -5 -27 17 2
16 13 26 38 34 27 9 36 18 38 38 4 31 -3 31 -75 4z"/>
<path d="M1570 3767 c-47 -23 -115 -55 -150 -71 -36 -16 -60 -31 -54 -33 24
-8 294 123 294 143 0 5 6 8 -90 -39z"/>
<path d="M2890 3789 c-215 -58 -628 -187 -606 -188 10 -1 486 137 596 173 73
23 80 34 10 15z"/>
<path d="M1660 3702 l-45 -18 -3 -102 c-3 -101 0 -108 32 -96 13 5 16 23 16
91 l0 84 27 -3 c38 -4 41 -32 8 -63 -17 -15 -25 -31 -21 -40 21 -55 118 50
100 108 -9 31 -34 57 -53 56 -9 0 -36 -8 -61 -17z"/>
<path d="M1535 3656 l-40 -13 -3 -106 -3 -106 51 21 c35 14 50 26 50 39 0 22
0 22 -34 9 -24 -9 -26 -7 -26 15 0 18 8 28 25 35 14 5 25 17 25 26 0 12 -6 15
-25 10 -17 -4 -25 -2 -25 7 0 8 11 19 25 25 15 7 25 20 25 32 0 11 -1 20 -2
19 -2 -1 -21 -7 -43 -13z"/>
<path d="M1413 3609 l-53 -20 0 -94 c0 -80 2 -93 15 -89 8 4 15 19 15 34 0 20
6 31 20 35 28 9 26 35 -2 27 -17 -4 -20 -2 -15 12 4 10 7 22 7 27 0 5 11 9 25
9 18 0 25 5 25 19 0 10 7 21 15 25 15 5 22 36 8 35 -5 0 -32 -9 -60 -20z"/>
<path d="M2248 3593 c7 -3 16 -2 19 1 4 3 -2 6 -13 5 -11 0 -14 -3 -6 -6z"/>
<path d="M628 3574 c-25 -13 -28 -20 -28 -64 0 -54 7 -64 45 -54 23 6 25 10
25 70 0 35 -3 64 -7 64 -5 -1 -20 -8 -35 -16z m32 -49 c0 -35 -4 -47 -21 -56
-15 -8 -19 -8 -15 0 4 6 2 11 -3 11 -19 0 -13 68 7 79 28 17 32 13 32 -34z"/>
<path d="M630 3489 c0 -5 5 -7 10 -4 6 3 10 8 10 11 0 2 -4 4 -10 4 -5 0 -10
-5 -10 -11z"/>
<path d="M1118 3719 c-14 -8 -18 -23 -18 -69 0 -64 9 -73 46 -45 19 14 18 14
-3 15 -30 0 -33 46 -4 55 11 3 19 15 19 30 0 27 -12 31 -40 14z"/>
<path d="M1030 3667 c-36 -16 -40 -25 -40 -89 0 -43 4 -58 14 -58 10 0 13 15
12 56 -1 38 3 58 12 61 9 3 12 -11 12 -51 0 -43 3 -56 15 -56 12 0 15 13 15
59 0 33 3 66 6 75 7 19 -10 20 -46 3z"/>
<path d="M917 3588 c-4 -24 -9 -58 -13 -75 -4 -21 -3 -33 4 -33 6 0 14 15 18
33 7 31 7 31 17 10 12 -28 41 -32 32 -4 -3 10 -11 38 -18 61 -17 58 -33 61
-40 8z"/>
<path d="M857 3603 c-10 -10 -8 -131 2 -137 14 -9 21 20 21 85 0 55 -7 69 -23
52z"/>
<path d="M1118 3563 c-39 -15 -50 -33 -23 -33 22 0 75 29 75 40 0 13 -8 12
-52 -7z"/>
<path d="M185 3713 c11 -3 26 -10 33 -15 9 -8 12 -6 12 6 0 12 -9 16 -32 15
-22 -1 -26 -3 -13 -6z"/>
<path d="M124 3645 c1 -59 1 -59 35 -66 18 -4 37 -13 42 -21 7 -10 9 -9 9 4 0
11 -10 20 -27 24 -16 3 -33 7 -40 9 -7 2 -14 28 -16 57 -4 52 -4 52 -3 -7z"/>
<path d="M150 3655 c0 -13 4 -26 9 -29 5 -4 7 3 4 14 -3 11 -1 20 5 20 5 0 13
-11 16 -25 6 -24 26 -36 26 -16 0 5 3 16 6 25 3 9 1 16 -6 16 -6 0 -9 -4 -5
-9 3 -5 1 -12 -5 -16 -5 -3 -10 3 -10 13 0 11 -9 22 -20 25 -16 4 -20 0 -20
-18z"/>
<path d="M503 3628 c-31 -10 -45 -28 -23 -28 16 0 60 23 60 32 0 4 -1 8 -2 7
-2 -1 -18 -6 -35 -11z"/>
<path d="M513 3460 c0 -41 2 -58 4 -37 2 20 2 54 0 75 -2 20 -4 3 -4 -38z"/>
<path d="M2495 3299 c-134 -107 -168 -144 -75 -81 80 55 202 161 185 161 -5 0
-55 -36 -110 -80z"/>
<path d="M2555 3153 c-16 -2 -149 -24 -295 -48 -146 -24 -278 -46 -295 -48
-29 -4 -29 -4 5 -5 19 -1 73 5 120 13 136 24 500 75 537 75 18 0 33 5 33 10 0
10 -45 11 -105 3z"/>
<path d="M657 3212 c-20 -22 -22 -52 -4 -76 15 -20 47 -12 46 13 0 10 -2 11
-6 4 -2 -7 -11 -13 -19 -13 -19 0 -19 59 1 66 8 4 15 10 15 15 0 15 -16 10
-33 -9z"/>
<path d="M617 3185 c-12 -44 -47 -62 -47 -25 0 11 5 20 10 20 6 0 10 4 10 10
0 5 -7 7 -15 4 -11 -5 -15 -21 -15 -61 0 -30 4 -52 9 -49 5 3 7 14 4 25 -6 25
33 36 46 13 14 -25 17 -13 11 43 -5 47 -6 48 -13 20z"/>
<path d="M515 3170 c-16 -7 -17 -9 -3 -9 13 -1 18 -12 20 -48 l3 -48 5 58 c3
31 3 57 0 56 -3 0 -14 -4 -25 -9z"/>
<path d="M468 3145 c-3 -4 -1 -20 5 -36 8 -21 8 -34 1 -46 -21 -33 -33 -25
-37 24 l-3 48 -2 -52 c-2 -55 4 -61 39 -43 14 8 19 21 19 48 0 38 -12 67 -22
57z"/>
<path d="M390 3067 c0 -31 4 -57 9 -57 15 0 22 18 10 25 -5 4 -9 22 -7 40 1
19 -1 37 -5 41 -4 4 -7 -18 -7 -49z"/>
<path d="M3937 2123 c-4 -3 -7 -18 -7 -33 0 -25 4 -28 43 -33 51 -7 61 1 52
42 -6 28 -10 31 -44 31 -21 0 -41 -3 -44 -7z m83 -41 c0 -15 -6 -17 -35 -14
-21 3 -35 10 -35 18 0 9 12 14 35 14 27 0 35 -4 35 -18z"/>
<path d="M3206 2743 c-11 -11 -6 -23 8 -23 8 0 17 4 20 9 7 10 -19 23 -28 14z"/>
<path d="M2367 2683 c-9 -8 -9 -120 -1 -150 4 -13 13 -23 20 -23 20 0 20 153
1 169 -8 6 -17 8 -20 4z"/>
<path d="M1950 2650 c0 -5 5 -10 11 -10 5 0 7 5 4 10 -3 6 -8 10 -11 10 -2 0
-4 -4 -4 -10z"/>
<path d="M1955 2600 c4 -6 11 -8 16 -5 14 9 11 15 -7 15 -8 0 -12 -5 -9 -10z"/>
<path d="M1968 2563 c7 -3 16 -2 19 1 4 3 -2 6 -13 5 -11 0 -14 -3 -6 -6z"/>
<path d="M1328 2153 c12 -2 30 -2 40 0 9 3 -1 5 -23 4 -22 0 -30 -2 -17 -4z"/>
<path d="M3530 2520 c0 -5 16 -10 35 -10 19 0 35 5 35 10 0 6 -16 10 -35 10
-19 0 -35 -4 -35 -10z"/>
<path d="M2500 2370 c0 -38 2 -40 30 -40 28 0 30 2 30 40 0 38 -2 40 -30 40
-28 0 -30 -2 -30 -40z m48 -2 c-6 -18 -28 -21 -28 -4 0 9 7 16 16 16 9 0 14
-5 12 -12z"/>
<path d="M5050 2025 c0 -14 5 -25 10 -25 6 0 10 11 10 25 0 14 -4 25 -10 25
-5 0 -10 -11 -10 -25z"/>
<path d="M2778 2333 c-38 -6 -36 -23 2 -20 16 1 30 8 30 15 0 6 -1 11 -2 11
-2 -1 -15 -4 -30 -6z"/>
<path d="M380 2039 c0 -17 4 -28 10 -24 6 3 10 17 10 31 0 13 -4 24 -10 24 -5
0 -10 -14 -10 -31z"/>
<path d="M1153 2095 c0 -33 2 -45 4 -27 2 18 2 45 0 60 -2 15 -4 0 -4 -33z"/>
<path d="M915 1920 l-30 -8 30 0 c17 0 39 3 50 8 l20 9 -20 -1 c-11 0 -33 -4
-50 -8z"/>
<path d="M615 1980 c-3 -5 -1 -10 4 -10 6 0 11 5 11 10 0 6 -2 10 -4 10 -3 0
-8 -4 -11 -10z"/>
<path d="M2921 1721 c-8 -5 -9 -11 -3 -15 5 -3 15 1 22 9 14 16 3 20 -19 6z"/>
<path d="M738 1513 c6 -2 18 -2 25 0 6 3 1 5 -13 5 -14 0 -19 -2 -12 -5z"/>
<path d="M798 1503 c6 -2 18 -2 25 0 6 3 1 5 -13 5 -14 0 -19 -2 -12 -5z"/>
<path d="M4625 1551 c-5 -4 -7 -370 -2 -372 8 -2 322 -37 324 -35 1 1 3 89 4
196 l2 195 -89 7 c-147 10 -235 14 -239 9z m203 -27 l92 -7 0 -173 c0 -96 -3
-174 -7 -174 -5 0 -62 7 -128 15 -66 8 -126 15 -132 15 -10 0 -13 40 -13 165
l0 165 48 0 c27 0 90 -3 140 -6z"/>
<path d="M5044 1380 c0 -74 1 -105 3 -67 2 37 2 97 0 135 -2 37 -3 6 -3 -68z"/>
<path d="M1038 1263 c6 -2 18 -2 25 0 6 3 1 5 -13 5 -14 0 -19 -2 -12 -5z"/>
<path d="M1810 1327 c5 -6 439 -70 550 -82 36 -4 62 -4 59 -1 -10 11 -619 93
-609 83z"/>
<path d="M318 1463 c7 -3 16 -2 19 1 4 3 -2 6 -13 5 -11 0 -14 -3 -6 -6z"/>
<path d="M2383 890 c-1 -38 1 -70 5 -70 10 1 62 48 62 56 0 11 -51 84 -59 84
-3 0 -7 -31 -8 -70z"/>
<path d="M2314 746 c-3 -8 -4 -27 -2 -43 4 -40 42 -40 46 0 5 42 -31 77 -44
43z"/>
<path d="M1732 854 c-13 -24 -3 -54 18 -54 23 0 36 36 20 55 -16 19 -27 19
-38 -1z"/>
<path d="M3607 463 c-11 -10 -8 -63 3 -63 6 0 10 16 10 35 0 36 -2 40 -13 28z"/>
<path d="M3320 4910 l0 -210 33 14 c71 30 126 60 129 70 8 27 -4 336 -13 336
-5 0 -9 -54 -9 -125 0 -77 -4 -125 -10 -125 -6 0 -10 48 -10 125 l0 125 -35 0
-34 0 -4 -122 -3 -123 -2 123 c-2 115 -3 122 -22 122 -19 0 -20 -7 -20 -210z
m150 -85 c0 -14 -76 -55 -101 -55 -22 0 -5 19 39 43 55 31 62 32 62 12z"/>
<path d="M3800 4955 l0 -165 67 33 c37 17 187 91 333 164 l265 132 -97 1 c-94
0 -98 -1 -172 -40 l-76 -40 0 40 0 40 -45 0 -45 0 0 -57 0 -58 -75 -42 -75
-42 0 100 0 99 -40 0 -40 0 0 -165z m225 15 c-7 -11 -99 -60 -112 -60 -4 0 19
16 52 34 71 40 68 38 60 26z"/>
<path d="M4965 4808 c-77 -33 -212 -89 -300 -125 -153 -62 -195 -83 -166 -83
15 0 377 144 525 208 50 21 92 44 94 50 6 18 -1 15 -153 -50z"/>
<path d="M4945 4724 c-82 -35 -194 -83 -248 -106 -56 -24 -103 -50 -109 -61
-8 -16 -7 -19 3 -14 69 28 427 180 472 200 52 24 76 48 45 46 -7 0 -80 -29
-163 -65z"/>
<path d="M3553 4580 c-209 -78 -393 -152 -399 -161 -8 -14 462 161 516 192 34
20 -18 6 -117 -31z"/>
<path d="M45 4211 l-50 -5 70 -6 70 -5 3 -134 c2 -97 -1 -137 -10 -149 -11
-13 -10 -14 2 -10 12 4 15 33 18 161 l3 157 -28 -2 c-16 -1 -50 -4 -78 -7z"/>
<path d="M4949 3970 c-80 -21 -205 -59 -279 -84 -73 -25 -136 -43 -140 -41 -4
2 -22 0 -41 -5 -19 -5 -53 -14 -76 -20 l-43 -11 0 -95 c0 -84 2 -95 16 -90 9
3 18 6 20 6 2 0 4 35 4 79 l0 79 48 11 c26 7 55 14 65 17 15 5 17 -2 17 -52 0
-42 4 -60 18 -70 26 -21 60 -16 87 11 20 19 25 34 25 72 0 26 -4 55 -9 62 -8
12 4 18 57 32 317 83 397 107 400 123 4 21 2 21 -169 -24z m-309 -188 c0 -53
-12 -72 -47 -72 -21 0 -23 4 -23 54 0 56 5 64 48 65 20 1 22 -4 22 -47z"/>
<path d="M5074 3940 c-26 -10 -54 -48 -54 -72 0 -11 -10 -20 -27 -23 -67 -14
-78 -20 -78 -45 0 -18 6 -26 21 -28 32 -5 74 16 83 40 l8 23 7 -22 c4 -12 16
-25 26 -28 25 -8 60 11 60 32 0 13 -3 14 -12 5 -19 -19 -48 -14 -59 12 -16 35
7 80 44 84 15 2 27 9 27 18 0 16 -14 17 -46 4z"/>
<path d="M5073 3884 c-9 -23 13 -40 32 -24 12 10 13 16 4 26 -15 18 -28 18
-36 -2z"/>
<path d="M4743 3850 c-26 -11 -31 -30 -8 -30 11 0 15 -12 15 -51 0 -69 24 -61
28 9 2 29 7 52 13 52 5 0 9 7 9 15 0 17 -23 19 -57 5z"/>
<path d="M4466 3777 c-37 -12 -62 -37 -35 -37 29 0 89 24 89 37 0 15 -2 15
-54 0z"/>
<path d="M5050 3740 c0 -5 13 -10 29 -10 17 0 33 5 36 10 4 6 -8 10 -29 10
-20 0 -36 -4 -36 -10z"/>
<path d="M4495 3720 c-18 -8 -17 -9 8 -9 15 -1 27 4 27 9 0 12 -8 12 -35 0z"/>
<path d="M4431 3686 c-1 -38 -1 -38 30 -32 17 3 35 6 40 6 5 0 9 5 9 10 0 6
-13 10 -28 10 -20 0 -32 7 -40 23 -10 20 -11 18 -11 -17z"/>
<path d="M5058 3373 c-15 -4 -18 -17 -18 -90 0 -74 2 -84 16 -79 9 3 27 6 40
6 23 0 24 2 24 85 0 92 -2 94 -62 78z m52 -43 c0 -15 -7 -20 -25 -20 -18 0
-25 5 -25 20 0 15 7 20 25 20 18 0 25 -5 25 -20z m-8 -65 c-4 -19 -19 -35 -34
-35 -10 0 -10 44 -1 54 14 14 38 0 35 -19z"/>
<path d="M4958 3363 c-28 -4 -28 -5 -28 -84 0 -46 -4 -79 -10 -79 -5 0 -10 -6
-10 -14 0 -8 7 -13 18 -11 9 2 34 7 55 10 l38 6 -3 87 c-3 93 -4 94 -60 85z
m42 -48 c0 -20 -5 -25 -25 -25 -20 0 -25 5 -25 25 0 20 5 25 25 25 20 0 25 -5
25 -25z m0 -74 c0 -42 -36 -50 -42 -10 -5 33 -2 39 24 39 13 0 18 -8 18 -29z"/>
<path d="M4803 3337 l-53 -10 0 -113 c0 -62 4 -115 8 -118 4 -2 64 6 133 19
69 12 149 26 177 30 33 4 52 12 52 20 0 7 -8 11 -17 9 -83 -17 -290 -54 -309
-54 -25 0 -25 0 -22 97 l3 96 64 13 c35 7 66 16 69 19 8 8 -45 4 -105 -8z"/>
<path d="M4855 3305 c-5 -2 -22 -6 -37 -9 -27 -6 -28 -9 -28 -71 0 -61 1 -65
23 -65 37 0 67 12 67 25 0 9 -11 12 -40 8 -52 -7 -53 12 -1 21 22 3 43 11 47
17 5 9 -6 10 -40 5 -30 -5 -46 -4 -46 3 0 6 9 11 19 11 29 0 36 20 9 22 -13 0
-3 4 21 7 25 3 46 12 49 19 3 11 -19 15 -43 7z"/>
<path d="M3 2995 c0 -27 2 -38 4 -22 2 15 2 37 0 50 -2 12 -4 0 -4 -28z"/>
<path d="M240 2588 c-7 -31 -16 -61 -20 -67 -3 -6 -54 -23 -113 -39 -69 -17
-107 -32 -107 -40 0 -8 6 -11 13 -9 6 3 62 17 124 32 l112 28 6 63 c9 84 1
102 -15 32z"/>
<path d="M88 2513 c7 -3 16 -2 19 1 4 3 -2 6 -13 5 -11 0 -14 -3 -6 -6z"/>
<path d="M612 1125 c6 -6 237 -75 252 -75 26 0 -13 14 -120 45 -119 35 -142
40 -132 30z"/>
<path d="M330 1004 c0 -6 50 -27 168 -70 91 -33 128 -38 55 -7 -74 31 -223 83
-223 77z"/>
<path d="M4528 933 c7 -3 16 -2 19 1 4 3 -2 6 -13 5 -11 0 -14 -3 -6 -6z"/>
<path d="M696 881 c7 -7 100 -40 164 -58 43 -13 -30 22 -92 43 -79 26 -86 28
-72 15z"/>
<path d="M260 706 c0 -7 151 -88 156 -83 4 4 -137 87 -149 87 -4 0 -7 -2 -7
-4z"/>
<path d="M710 579 c-82 -22 -270 -83 -266 -86 3 -4 294 77 331 92 20 7 -31 3
-65 -6z"/>
<path d="M1375 521 c16 -15 125 -61 125 -52 0 9 -34 26 -95 48 -22 7 -35 9
-30 4z"/>
<path d="M1026 500 c21 -21 463 -214 471 -206 7 6 -151 81 -339 162 -128 54
-150 62 -132 44z"/>
<path d="M177 420 c-166 -47 -186 -55 -175 -65 6 -6 322 90 348 106 27 15 -2
8 -173 -41z"/>
<path d="M1612 456 c10 -7 62 -30 115 -51 54 -21 241 -96 417 -167 175 -71
320 -127 323 -125 7 8 -668 286 -832 343 -33 11 -37 11 -23 0z"/>
<path d="M4365 409 c36 -17 365 -97 365 -89 0 8 -90 34 -263 75 -116 27 -134
29 -102 14z"/>
<path d="M740 370 c-58 -16 -67 -17 -93 -3 -37 19 -49 7 -18 -16 13 -10 20
-21 15 -24 -5 -3 -82 -32 -170 -65 -263 -98 -379 -145 -369 -149 14 -4 129 36
393 136 258 98 312 121 312 132 0 5 -1 9 -2 8 -2 0 -32 -9 -68 -19z"/>
<path d="M1460 375 c0 -12 277 -131 286 -123 5 6 -260 128 -277 128 -5 0 -9
-2 -9 -5z"/>
<path d="M1620 225 c0 -8 82 -47 87 -41 3 2 -13 14 -36 25 -41 22 -51 25 -51
16z"/>
<path d="M3190 181 c0 -5 6 -11 13 -14 127 -53 330 -130 422 -161 67 -23 -79
44 -193 88 -75 30 -161 63 -189 75 -29 11 -53 17 -53 12z"/>
<path d="M1840 134 c0 -9 271 -135 282 -132 9 3 -262 138 -277 138 -3 0 -5 -3
-5 -6z"/>
<path d="M2540 56 c0 -2 15 -9 33 -15 29 -10 30 -9 13 4 -18 14 -46 20 -46 11z"/>
</g>
</svg>