<?xml version="1.0" standalone="no"?>
<!DOCTYPE svg PUBLIC "-//W3C//DTD SVG 20010904//EN"
 "http://www.w3.org/TR/2001/REC-SVG-20010904/DTD/svg10.dtd">
<svg version="1.0" xmlns="http://www.w3.org/2000/svg"
 width="512.000000pt" height="512.000000pt" viewBox="0 0 512.000000 512.000000"
 preserveAspectRatio="xMidYMid meet">
<metadata>
Created by potrace 1.16, written by Peter Selinger 2001-2019
</metadata>
<g transform="translate(0.000000,512.000000) scale(0.100000,-0.100000)"
fill="#000000" stroke="none">
<path d="M2530 4477 c0 -24 51 -101 108 -162 121 -131 162 -211 162 -315 0
-70 -13 -104 -75 -204 -72 -115 -105 -238 -105 -387 0 -76 -1 -79 -24 -79 -50
0 -67 166 -27 270 11 31 49 103 83 160 71 121 88 170 88 254 0 51 -20 160 -32
171 -2 2 -2 -31 1 -72 5 -108 -11 -166 -79 -281 -51 -85 -76 -139 -116 -247
-5 -13 -11 8 -17 65 -13 112 2 223 48 375 29 96 37 140 40 220 l4 100 -9 -82
c-6 -45 -30 -144 -54 -220 -51 -160 -69 -281 -56 -374 17 -118 38 -214 59
-267 12 -29 21 -57 21 -62 0 -5 -28 -11 -62 -13 l-63 -3 66 -2 c63 -2 79 -10
79 -38 0 -2 -39 -4 -87 -4 l-88 0 0 74 c-1 106 -48 200 -155 304 -42 43 -85
92 -94 110 -34 66 -37 147 -11 291 3 14 -2 6 -10 -18 -26 -77 -29 -161 -10
-226 18 -63 64 -135 101 -160 28 -18 109 -131 123 -171 9 -24 9 -26 -2 -9 -6
11 -57 65 -113 120 -135 135 -157 173 -162 289 l-5 91 -14 -40 c-8 -22 -17
-74 -20 -116 -11 -144 38 -224 187 -306 98 -54 150 -110 150 -161 0 -18 -9
-21 -82 -26 -466 -38 -736 -108 -788 -207 -18 -32 -24 -230 -11 -367 12 -134
47 -313 85 -435 22 -71 23 -79 8 -84 -102 -35 -246 -100 -305 -136 -95 -60
-185 -149 -228 -229 -32 -59 -34 -69 -34 -158 0 -85 3 -101 29 -154 113 -229
697 -569 1171 -681 149 -35 291 -49 445 -42 247 10 434 54 694 163 165 69 261
121 449 246 314 208 419 371 343 533 -28 61 -97 132 -176 181 l-59 36 83 79
c101 96 153 162 199 254 60 121 81 226 66 331 -12 83 -36 140 -84 192 -85 95
-215 118 -367 66 -42 -15 -83 -24 -92 -21 -13 5 -16 24 -16 102 0 110 -13 152
-58 184 -110 78 -424 136 -802 149 l-195 7 -3 53 c-4 65 23 212 49 271 10 24
48 83 83 130 76 103 89 140 84 234 -5 107 -32 153 -157 276 -58 57 -118 122
-133 145 -16 22 -28 37 -28 33z m-493 -659 c-3 -8 -6 -5 -6 6 -1 11 2 17 5 13
3 -3 4 -12 1 -19z m69 -160 c16 -17 58 -49 94 -73 36 -23 71 -49 79 -59 8 -9
-9 -2 -37 16 -28 18 -71 45 -96 60 -55 33 -96 93 -102 150 l-5 43 19 -53 c11
-29 32 -67 48 -84z m928 -364 c260 -23 444 -62 555 -117 53 -27 66 -45 57 -80
-34 -136 -710 -248 -1316 -218 -173 9 -495 42 -542 57 -10 3 -18 3 -18 0 0
-14 289 -66 369 -66 31 0 33 -2 27 -27 -4 -16 -9 -91 -12 -168 -5 -106 -2
-163 10 -233 27 -158 98 -315 186 -416 l33 -38 -39 7 c-70 12 -209 45 -219 53
-19 13 -53 67 -93 148 -72 146 -110 291 -122 464 l-7 115 -2 -101 c-2 -165 44
-374 120 -543 16 -35 27 -66 24 -69 -2 -2 -26 6 -52 19 -44 22 -50 30 -76 94
-65 161 -103 401 -93 585 4 79 3 87 -5 45 -5 -27 -10 -108 -10 -180 -1 -145
20 -275 71 -425 15 -47 27 -86 27 -87 -2 -1 -74 34 -201 95 -5 3 -1 -9 9 -25
9 -16 22 -30 29 -30 6 0 50 -22 99 -48 73 -39 91 -54 114 -93 39 -67 72 -110
103 -132 23 -16 18 -6 -26 62 -30 45 -54 85 -54 88 0 4 21 0 48 -9 39 -13 57
-28 103 -86 31 -39 78 -86 105 -104 55 -36 141 -64 181 -59 25 4 24 5 -17 17
-89 26 -171 83 -220 151 l-20 28 104 -34 c124 -40 253 -64 346 -64 136 0 319
52 443 126 34 20 66 39 70 42 15 7 -19 -50 -68 -118 l-47 -65 42 40 c23 22 65
74 92 114 44 68 56 79 129 118 44 23 95 53 112 65 55 37 137 109 137 119 0 6
-4 7 -10 4 -13 -8 -12 7 5 85 8 36 14 76 14 90 -1 14 -11 -23 -23 -82 -20
-103 -23 -109 -57 -132 -50 -34 -199 -110 -205 -104 -2 3 7 30 20 60 62 140
106 359 112 558 l4 144 97 31 c54 17 113 39 131 48 l32 18 0 -68 c0 -85 -45
-439 -71 -558 -30 -137 -85 -315 -127 -413 -70 -161 -184 -319 -280 -386 -127
-88 -495 -145 -753 -116 -176 19 -401 83 -384 110 3 5 -27 45 -68 88 -139 149
-238 331 -326 600 -75 228 -110 444 -111 673 l0 77 58 -24 c134 -54 341 -84
719 -106 475 -27 1051 34 1243 132 90 46 86 83 -12 123 -156 65 -466 108 -868
120 -64 2 -75 5 -78 20 -4 18 4 19 140 12 78 -3 219 -13 312 -21z m-664 2 c0
-16 -27 -21 -165 -31 -333 -26 -596 -91 -612 -153 -7 -30 8 -44 84 -72 39 -14
59 -17 72 -10 54 28 337 86 519 105 l62 7 0 -35 0 -34 -77 -7 c-99 -9 -247
-32 -338 -53 l-70 -17 45 -7 c29 -4 77 0 135 12 50 10 137 23 194 30 86 9 105
9 112 -2 5 -8 7 -18 6 -24 -2 -5 -68 -17 -148 -27 -147 -17 -256 -14 -387 11
-204 40 -291 86 -262 141 34 64 316 138 645 169 147 14 185 13 185 -3z m218
-107 c-7 -5 -61 -9 -120 -9 l-106 0 11 35 c7 24 13 31 19 23 6 -10 8 -10 8 -1
0 8 27 13 88 15 l87 3 13 -29 c11 -24 11 -30 0 -37z m46 40 c9 -45 -5 -59 -20
-18 -16 45 -16 49 0 49 7 0 16 -14 20 -31z m-289 -18 c-6 -28 -10 -30 -63 -36
-31 -3 -120 -14 -197 -24 -77 -10 -144 -15 -149 -10 -26 24 208 87 374 101 44
4 43 5 35 -31z m652 9 c87 -11 192 -29 233 -40 l75 -19 -125 6 c-69 3 -215 9
-325 12 l-199 6 -7 34 -7 34 99 -7 c54 -3 169 -15 256 -26z m-397 -98 l0 -29
-122 -6 c-67 -4 -123 -5 -126 -2 -2 2 -2 15 2 29 7 28 23 31 169 34 l77 2 0
-28z m452 -7 c116 -16 287 -57 316 -75 14 -8 12 -9 -8 -5 -156 30 -420 55
-591 55 l-139 0 0 28 0 27 155 -7 c85 -3 205 -14 267 -23z m-452 -84 c0 -16
-12 -19 -116 -25 -92 -6 -119 -5 -125 6 -20 30 -5 34 144 37 88 1 97 -1 97
-18z m500 -5 c47 -9 105 -22 130 -30 l45 -14 -65 -1 c-36 0 -137 6 -225 14
-88 8 -206 15 -262 15 -99 0 -103 1 -103 21 0 22 1 22 198 16 110 -3 234 -12
282 -21z m-360 -96 c-85 -9 -380 -10 -425 -1 -25 6 55 9 220 8 143 0 235 -3
205 -7z m617 -112 c-11 -214 -59 -413 -138 -576 l-50 -103 -64 -29 c-65 -29
-192 -72 -251 -84 l-32 -7 25 52 c32 66 59 200 72 354 14 154 14 305 1 305 -5
0 -10 -25 -10 -56 0 -68 -25 -240 -50 -350 -40 -172 -105 -301 -163 -325 -18
-8 -68 -14 -112 -14 -67 0 -86 4 -118 24 -143 88 -277 465 -277 777 l0 74 223
-6 c132 -4 295 -2 402 5 172 11 426 42 490 61 60 17 59 20 52 -102z m670 87
c62 -19 122 -62 147 -106 18 -33 17 -33 -30 12 -62 59 -100 78 -188 94 -67 12
-68 13 -25 14 25 1 68 -6 96 -14z m48 -74 c98 -55 155 -179 142 -310 -23 -215
-218 -446 -480 -566 -70 -32 -127 -53 -117 -42 3 2 42 21 88 41 230 100 411
279 468 462 44 139 26 266 -48 350 -45 51 -108 78 -183 77 -71 -1 -158 -31
-198 -69 -16 -14 -31 -24 -34 -21 -7 7 74 66 116 84 90 39 168 37 246 -6z
m-57 -58 c67 -50 99 -179 72 -294 -31 -137 -141 -292 -259 -368 l-48 -31 -54
23 c-30 13 -79 32 -109 42 -30 10 -56 19 -58 20 -1 1 11 55 28 121 17 65 39
168 49 229 18 109 19 110 67 160 89 92 157 127 237 121 28 -2 60 -12 75 -23z
m-2388 -645 c73 -184 154 -324 258 -444 34 -40 62 -75 62 -78 0 -16 -22 -3
-32 20 -11 23 -13 24 -24 9 -27 -37 35 -118 137 -180 75 -46 243 -101 357
-116 280 -37 633 30 739 140 19 20 82 88 140 151 58 63 121 126 142 141 20 15
97 48 171 74 74 26 165 63 202 82 l68 35 57 -33 c72 -43 153 -123 178 -174 31
-63 27 -140 -10 -201 -58 -93 -240 -209 -420 -268 -175 -57 -481 -122 -700
-148 -164 -19 -588 -16 -750 6 -290 38 -599 113 -792 191 -187 75 -328 194
-359 302 -55 189 119 401 439 534 50 21 95 39 98 39 4 0 21 -37 39 -82z m2027
-45 l85 -36 -34 -18 c-34 -17 -144 -49 -169 -49 -38 1 -42 16 -19 79 14 36 29
61 37 61 8 0 53 -17 100 -37z m-562 -587 c-52 -80 -348 -146 -590 -132 -199
11 -345 48 -403 101 -20 18 -34 37 -30 41 4 4 50 -5 102 -20 107 -30 278 -56
379 -56 140 0 391 40 512 82 22 8 41 13 43 12 2 -1 -4 -14 -13 -28z m-1476
-297 c207 -53 464 -86 766 -99 441 -18 826 15 1174 100 68 17 126 28 128 26 8
-8 -90 -60 -182 -97 -264 -106 -618 -157 -1020 -146 -296 8 -472 35 -671 102
-97 32 -304 128 -304 141 0 3 8 3 18 -1 9 -4 50 -15 91 -26z m1576 -231 c-275
-89 -802 -106 -1075 -33 -30 8 -40 12 -21 10 183 -26 313 -37 461 -37 205 -1
348 13 532 51 159 33 184 36 103 9z"/>
<path d="M1566 2911 c-12 -133 26 -464 64 -546 9 -22 41 -62 70 -90 41 -39 48
-43 31 -18 -92 134 -140 343 -141 606 0 129 -13 156 -24 48z"/>
<path d="M3532 2545 c0 -16 2 -22 5 -12 2 9 2 23 0 30 -3 6 -5 -1 -5 -18z"/>
<path d="M1771 2055 c0 -5 6 -21 14 -35 8 -14 14 -20 14 -15 0 6 -6 21 -14 35
-8 14 -14 21 -14 15z"/>
<path d="M3330 1948 c-49 -86 -126 -149 -255 -214 -187 -92 -375 -129 -618
-121 -183 6 -305 33 -442 101 l-90 44 45 -40 c76 -68 222 -131 368 -159 86
-16 322 -5 432 20 224 51 428 157 514 267 30 38 91 153 85 159 -2 1 -20 -24
-39 -57z"/>
<path d="M1393 2017 c-133 -71 -190 -121 -229 -202 -39 -82 -29 -152 36 -234
137 -173 528 -325 1010 -391 200 -27 320 -33 460 -21 115 10 295 40 287 47 -1
2 -61 -4 -132 -12 -163 -20 -522 -14 -665 11 -385 65 -753 222 -864 368 -123
161 -75 316 135 440 86 50 63 47 -38 -6z"/>
<path d="M1523 1848 c-73 -77 -93 -177 -54 -263 70 -154 459 -305 891 -346
430 -41 912 59 1019 210 27 37 38 101 23 127 -9 15 -10 12 -6 -16 10 -70 -63
-146 -190 -199 -146 -61 -297 -88 -531 -97 -414 -16 -787 69 -951 219 -102 92
-107 177 -16 258 l47 42 -54 -29 c-61 -33 -105 -81 -124 -137 l-13 -40 -15 24
c-45 70 -51 162 -15 232 13 26 23 47 22 47 -1 0 -16 -15 -33 -32z"/>
<path d="M3874 1778 c89 -87 94 -162 17 -249 -21 -24 -60 -59 -86 -78 l-47
-34 31 43 c66 91 61 171 -15 247 -38 37 -121 90 -129 81 -2 -2 15 -40 37 -86
45 -92 56 -152 38 -206 -11 -35 -83 -116 -120 -136 -10 -5 8 17 40 49 68 67
86 114 69 175 -14 52 -80 120 -144 151 -62 29 -97 33 -45 5 55 -29 121 -91
136 -127 33 -77 8 -151 -77 -227 -65 -58 -120 -91 -224 -133 -104 -42 -77 -42
74 2 128 36 305 111 398 167 163 98 212 206 138 304 -24 31 -120 104 -137 104
-4 0 17 -24 46 -52z"/>
<path d="M2170 4205 c-7 -136 11 -198 85 -288 123 -149 168 -267 189 -492 2
-22 2 7 0 65 -4 122 -33 272 -65 337 -13 26 -53 78 -89 117 -85 90 -100 119
-109 219 -5 53 -9 68 -11 42z"/>
<path d="M2442 3937 c-21 -55 -31 -150 -13 -117 14 26 44 147 39 161 -3 8 -14
-12 -26 -44z"/>
<path d="M2890 3909 c0 -4 7 -23 15 -42 33 -79 10 -141 -75 -204 -101 -75
-110 -84 -121 -123 -9 -31 -9 -49 0 -80 6 -22 16 -40 22 -40 6 0 9 3 7 8 -2 4
-10 19 -17 33 -20 41 7 89 70 124 129 70 170 145 139 255 -9 32 -39 84 -40 69z"/>
<path d="M2431 3354 c0 -11 3 -14 6 -6 3 7 2 16 -1 19 -3 4 -6 -2 -5 -13z"/>
</g>
</svg>