<?xml version="1.0" standalone="no"?>
<!DOCTYPE svg PUBLIC "-//W3C//DTD SVG 20010904//EN"
 "http://www.w3.org/TR/2001/REC-SVG-20010904/DTD/svg10.dtd">
<svg version="1.0" xmlns="http://www.w3.org/2000/svg"
 width="512.000000pt" height="512.000000pt" viewBox="0 0 512.000000 512.000000"
 preserveAspectRatio="xMidYMid meet">
<metadata>
Created by potrace 1.16, written by Peter Selinger 2001-2019
</metadata>
<g transform="translate(0.000000,512.000000) scale(0.100000,-0.100000)"
fill="#000000" stroke="none">
<path d="M2723 4670 c0 -36 2 -50 4 -32 2 17 2 47 0 65 -2 17 -4 3 -4 -33z"/>
<path d="M2701 4563 c-7 -20 -40 -77 -73 -127 -107 -162 -176 -333 -164 -401
8 -43 39 -81 84 -104 55 -28 78 -59 100 -131 12 -39 20 -55 21 -40 2 57 -21
104 -84 170 -69 71 -85 101 -85 158 0 63 54 197 134 332 66 112 98 180 84 180
-2 0 -10 -16 -17 -37z"/>
<path d="M2879 4189 c-30 -56 -30 -80 0 -133 31 -57 58 -145 71 -239 8 -55 9
-50 6 43 -4 112 -17 160 -61 212 -29 34 -31 55 -11 103 17 39 13 47 -5 14z"/>
<path d="M3023 4159 c23 -32 22 -103 -2 -172 -11 -31 -25 -94 -31 -139 -19
-141 -8 -128 -104 -128 l-83 0 9 58 c5 31 15 82 23 113 20 77 18 104 -4 53
-23 -50 -41 -132 -41 -184 l0 -39 -153 0 c-316 -1 -579 -47 -732 -129 -27 -15
-71 -48 -97 -73 -67 -67 -72 -94 -61 -324 6 -104 9 -192 7 -194 -2 -2 -34 10
-71 26 -102 46 -140 56 -218 55 -107 -1 -175 -30 -256 -111 -120 -120 -188
-307 -174 -479 23 -300 199 -559 465 -686 39 -19 89 -38 112 -41 l40 -7 -40
-42 c-87 -89 -105 -165 -78 -336 19 -116 54 -204 105 -263 130 -148 511 -283
896 -318 469 -42 950 97 1216 353 84 80 131 152 170 258 37 101 36 151 -5 233
-50 103 -153 193 -323 282 l-71 37 29 87 c84 247 145 571 168 901 14 184 14
404 1 451 -38 136 -291 257 -625 300 l-97 12 7 61 c4 33 18 104 31 156 13 52
24 112 24 133 0 42 -21 100 -41 112 -7 5 -5 -2 4 -16z m-237 -521 c-3 -29 -6
-60 -6 -69 0 -14 -23 -17 -172 -22 -95 -3 -211 -12 -257 -21 -241 -45 -421
-125 -466 -209 -23 -43 -16 -54 60 -102 278 -176 1000 -204 1441 -56 97 33
194 92 194 119 0 26 -65 98 -115 127 -94 55 -265 107 -396 121 -37 4 -72 10
-79 14 -9 6 -11 26 -5 74 8 78 -4 75 170 46 157 -26 242 -51 343 -100 166 -82
211 -171 140 -275 -75 -110 -309 -200 -627 -240 -198 -25 -506 -17 -692 19
-128 24 -275 69 -344 103 -172 88 -236 200 -169 298 82 122 253 182 614 218
19 2 111 5 204 5 l169 2 -7 -52z m159 46 c19 -5 20 -10 14 -70 -3 -36 -8 -66
-10 -68 -2 -2 -38 -1 -80 1 -70 5 -76 7 -73 27 2 11 6 42 9 69 l6 47 57 0 c31
0 66 -3 77 -6z m-176 -268 c-2 -2 -96 -9 -208 -15 -112 -7 -209 -15 -215 -18
-6 -4 -32 -8 -59 -10 -92 -5 -237 -68 -266 -115 -10 -16 -7 -21 19 -36 16 -9
30 -22 30 -29 0 -7 8 -17 18 -23 27 -17 -25 -1 -70 21 -129 65 93 189 388 218
91 9 371 14 363 7z m128 -13 c-20 -2 -52 -2 -70 0 -17 2 0 4 38 4 39 0 53 -2
32 -4z m188 -17 c125 -22 206 -45 250 -72 63 -37 76 -50 69 -67 -5 -15 -8 -15
-32 1 -15 9 -30 20 -33 25 -3 4 -14 5 -25 1 -14 -4 -15 -3 -6 4 10 7 3 13 -27
26 -23 9 -50 16 -61 16 -12 0 -17 5 -14 13 3 10 -19 18 -83 30 -48 10 -97 17
-108 17 -11 0 -27 5 -35 10 -22 14 8 13 105 -4z m102 -52 c-3 -3 -12 -4 -19
-1 -8 3 -5 6 6 6 11 1 17 -2 13 -5z m-754 -31 c-7 -2 -19 -2 -25 0 -7 3 -2 5
12 5 14 0 19 -2 13 -5z m1243 -140 c-28 -426 -76 -704 -183 -1043 -145 -464
-288 -721 -444 -801 -173 -88 -461 -85 -640 6 -89 46 -150 120 -244 297 -154
290 -281 752 -304 1111 -6 95 -13 134 -31 172 -20 44 -24 70 -28 204 l-4 154
43 -37 c110 -95 329 -169 597 -201 171 -21 496 -16 661 10 253 40 460 116 541
200 19 19 36 35 38 35 3 0 2 -48 -2 -107z m-1491 -23 c13 -5 14 -9 5 -9 -8 0
-24 4 -35 9 -13 5 -14 9 -5 9 8 0 24 -4 35 -9z m69 -7 c3 -8 -2 -13 -13 -13
-10 0 -21 6 -24 13 -3 7 3 13 14 13 10 0 21 -6 23 -13z m38 0 c-6 -2 -10 -9
-6 -14 3 -5 0 -9 -5 -9 -12 0 -14 13 -4 23 3 4 11 7 17 6 6 0 5 -3 -2 -6z m62
-18 c4 -10 -1 -15 -14 -15 -11 0 -20 7 -20 15 0 8 6 15 14 15 8 0 16 -7 20
-15z m60 -3 c2 -4 28 -9 58 -10 29 -2 69 -6 88 -11 22 -5 -1 -7 -65 -3 -65 3
-105 9 -115 18 -12 12 -11 14 7 14 12 0 24 -4 27 -8z m-833 -86 c50 -21 154
-101 181 -139 20 -28 23 -47 27 -145 2 -61 0 -123 -3 -137 -15 -59 -65 -10
-91 89 -46 176 -179 228 -291 112 -73 -76 -103 -166 -104 -307 0 -192 105
-395 240 -462 40 -20 58 -22 166 -19 119 2 121 2 167 -28 54 -36 101 -104 122
-174 8 -27 13 -51 12 -53 -2 -2 -17 1 -33 6 -16 5 -74 12 -129 15 -55 3 -117
11 -138 17 -49 13 -131 48 -126 53 2 2 33 -2 69 -10 36 -7 97 -13 135 -12 70
1 70 1 -35 13 -174 20 -282 67 -363 158 -20 23 -26 26 -22 12 4 -11 -17 5 -45
35 -31 33 -71 94 -102 155 -27 55 -53 102 -58 105 -17 11 -32 99 -32 190 0 98
20 206 48 263 l15 32 -20 -25 c-11 -14 -35 -52 -52 -84 -65 -121 -47 -320 45
-505 25 -49 67 -116 93 -148 26 -32 39 -51 29 -43 -70 57 -172 240 -203 366
-23 95 -23 261 1 339 49 162 155 295 272 340 48 18 173 14 225 -9z m22 -213
c31 -34 51 -79 67 -155 12 -60 29 -80 110 -132 34 -21 36 -26 62 -149 15 -69
38 -164 52 -211 24 -77 34 -146 21 -146 -3 0 -23 9 -45 20 -47 24 -66 25 -137
4 -137 -40 -268 36 -349 201 -70 145 -83 300 -34 428 53 141 183 212 253 140z
m-163 -913 c19 -15 55 -39 80 -53 54 -32 46 -35 -13 -6 -41 21 -197 128 -197
136 0 6 92 -48 130 -77z m2183 -38 c108 -64 189 -132 225 -189 17 -26 36 -54
42 -61 6 -7 9 -16 5 -21 -3 -5 1 -11 7 -14 9 -2 13 -25 12 -68 -1 -91 -38
-165 -128 -254 -39 -38 -70 -73 -71 -77 0 -3 -4 -10 -9 -15 -5 -5 -6 -3 -2 5
12 20 -2 14 -62 -27 -70 -47 -198 -112 -289 -146 -245 -93 -681 -114 -996 -51
-360 73 -664 252 -764 450 -65 130 -54 216 40 314 l41 42 143 0 c173 0 203
-11 258 -92 39 -59 42 -74 19 -100 -21 -23 -21 -85 0 -125 49 -96 281 -199
505 -224 171 -20 413 8 496 56 59 34 138 123 174 193 17 34 36 62 41 62 6 0
10 7 10 15 0 8 27 63 59 122 33 59 74 143 92 186 39 90 34 89 152 19z"/>
<path d="M1442 2931 c-126 -44 -201 -155 -232 -347 -28 -169 14 -354 110 -488
32 -44 88 -92 97 -83 2 3 -14 29 -37 58 -140 177 -180 404 -109 617 29 88 76
151 140 190 47 29 61 33 107 29 87 -6 154 -75 193 -197 13 -39 27 -70 31 -70
12 0 10 20 -8 81 -55 184 -157 258 -292 210z"/>
<path d="M3321 1484 c0 -11 3 -14 6 -6 3 7 2 16 -1 19 -3 4 -6 -2 -5 -13z"/>
</g>
</svg>