<?xml version="1.0" standalone="no"?>
<!DOCTYPE svg PUBLIC "-//W3C//DTD SVG 20010904//EN"
 "http://www.w3.org/TR/2001/REC-SVG-20010904/DTD/svg10.dtd">
<svg version="1.0" xmlns="http://www.w3.org/2000/svg"
 width="512.000000pt" height="512.000000pt" viewBox="0 0 512.000000 512.000000"
 preserveAspectRatio="xMidYMid meet">
<metadata>
Created by potrace 1.16, written by Peter Selinger 2001-2019
</metadata>
<g transform="translate(0.000000,512.000000) scale(0.100000,-0.100000)"
fill="#000000" stroke="none">
<path d="M2318 4315 c-4 -4 -31 -9 -60 -11 -64 -4 -152 -21 -120 -23 14 -1 26
-10 32 -27 16 -42 12 -54 -18 -54 -25 0 -155 -30 -194 -45 -12 -5 -17 3 -20
35 l-4 41 61 20 c33 11 46 18 30 15 -96 -15 -226 -87 -251 -140 -16 -32 -16
-36 5 -78 25 -52 67 -80 166 -113 162 -53 341 -77 570 -79 156 -1 377 20 355
34 -7 4 17 21 56 39 37 17 73 39 81 49 13 15 13 15 4 -5 -13 -25 -54 -56 -96
-71 -59 -21 4 -12 91 13 116 33 207 78 224 110 12 22 11 27 -4 44 -26 28 -135
84 -152 77 -10 -4 -12 -2 -8 6 5 8 -1 9 -20 4 -18 -4 -25 -3 -21 4 3 5 1 10
-4 10 -6 0 -11 -4 -11 -10 0 -9 16 -24 101 -102 16 -14 29 -32 29 -40 0 -7
-10 0 -21 15 -24 32 -75 60 -139 77 -25 6 -53 13 -62 16 -12 4 -15 0 -11 -16
3 -11 9 -20 14 -20 5 0 9 -4 9 -10 0 -5 -8 -10 -17 -10 -10 0 -14 -4 -8 -8 6
-4 10 -17 11 -29 0 -13 -1 -21 -3 -19 -2 2 -14 -6 -27 -19 -30 -29 -161 -72
-266 -86 -110 -15 -303 -7 -353 14 -31 13 -38 21 -35 39 2 13 9 22 16 21 6 -2
12 1 12 7 0 5 7 7 15 4 9 -4 15 0 15 9 0 8 10 17 22 20 12 4 19 9 15 13 -4 4
1 16 10 27 10 10 17 22 15 26 -1 3 12 8 30 11 21 3 34 11 36 23 4 22 -18 22
-133 -2 -203 -42 -264 -112 -158 -182 15 -11 22 -19 15 -19 -24 0 -82 66 -82
93 0 86 278 158 547 143 61 -3 120 -9 130 -13 16 -6 16 -5 4 10 -7 9 -18 14
-23 11 -5 -3 -21 -1 -36 5 -15 6 -67 15 -117 20 -89 8 -89 8 50 8 85 -1 150 3
165 10 21 10 13 11 -45 7 -48 -2 -62 -1 -45 5 16 6 -21 8 -105 6 -71 -1 -96 0
-55 2 83 4 104 15 96 49 -5 18 -1 24 16 27 13 2 -38 5 -112 6 -74 1 -151 4
-170 7 -19 3 -38 2 -42 -1z m95 -132 c-7 -2 -19 -2 -25 0 -7 3 -2 5 12 5 14 0
19 -2 13 -5z m-76 -9 c-3 -3 -12 -4 -19 -1 -8 3 -5 6 6 6 11 1 17 -2 13 -5z
m-90 -20 c-3 -3 -12 -4 -19 -1 -8 3 -5 6 6 6 11 1 17 -2 13 -5z m-139 -38
c-58 -18 -118 -40 -132 -49 -15 -10 -26 -13 -26 -7 0 14 78 49 160 71 111 30
110 20 -2 -15z m856 -118 c-22 -25 -132 -98 -147 -98 -10 0 14 19 73 60 12 8
36 25 53 38 39 28 45 28 21 0z m-927 -50 c9 -10 13 -18 8 -18 -15 0 -34 35
-33 60 l1 25 4 -25 c3 -14 12 -33 20 -42z"/>
<path d="M2703 4313 c9 -2 25 -2 35 0 9 3 1 5 -18 5 -19 0 -27 -2 -17 -5z"/>
<path d="M2813 4303 c9 -2 23 -2 30 0 6 3 -1 5 -18 5 -16 0 -22 -2 -12 -5z"/>
<path d="M2878 4293 c6 -2 18 -2 25 0 6 3 1 5 -13 5 -14 0 -19 -2 -12 -5z"/>
<path d="M2068 4273 c6 -2 18 -2 25 0 6 3 1 5 -13 5 -14 0 -19 -2 -12 -5z"/>
<path d="M2978 4273 c7 -3 16 -2 19 1 4 3 -2 6 -13 5 -11 0 -14 -3 -6 -6z"/>
<path d="M3110 4230 c8 -5 20 -10 25 -10 6 0 3 5 -5 10 -8 5 -19 10 -25 10 -5
0 -3 -5 5 -10z"/>
<path d="M3150 4217 c0 -3 12 -12 26 -22 15 -9 23 -12 20 -6 -7 11 -46 35 -46
28z"/>
<path d="M2838 4203 c6 -2 18 -2 25 0 6 3 1 5 -13 5 -14 0 -19 -2 -12 -5z"/>
<path d="M2898 4193 c7 -3 16 -2 19 1 4 3 -2 6 -13 5 -11 0 -14 -3 -6 -6z"/>
<path d="M3210 4176 c0 -2 8 -10 18 -17 15 -13 16 -12 3 4 -13 16 -21 21 -21
13z"/>
<path d="M2678 4133 c7 -3 16 -2 19 1 4 3 -2 6 -13 5 -11 0 -14 -3 -6 -6z"/>
<path d="M2848 4133 c6 -2 18 -2 25 0 6 3 1 5 -13 5 -14 0 -19 -2 -12 -5z"/>
<path d="M3254 4079 c3 -18 1 -38 -5 -45 -6 -8 -9 -14 -5 -14 9 0 -63 -62
-116 -99 -28 -20 -61 -34 -85 -36 -21 -2 -109 -12 -196 -24 -105 -14 -213 -21
-321 -21 -162 0 -163 0 -162 -22 1 -31 -37 -34 -167 -14 -55 9 -102 15 -104
12 -6 -6 109 -24 221 -35 270 -27 329 -31 418 -31 72 0 113 6 164 22 65 21 67
23 35 26 -29 3 -13 11 100 48 158 51 209 86 228 156 12 47 11 108 -3 108 -5 0
-6 -14 -2 -31z"/>
<path d="M2600 4078 c-24 -10 -24 -10 -5 -18 11 -4 52 -21 92 -38 39 -17 74
-28 77 -24 9 8 -26 29 -88 52 -31 12 -54 26 -51 31 7 11 7 11 -25 -3z"/>
<path d="M2450 4060 c-9 -6 -10 -10 -3 -10 6 0 15 5 18 10 8 12 4 12 -15 0z"/>
<path d="M2498 4063 c12 -2 30 -2 40 0 9 3 -1 5 -23 4 -22 0 -30 -2 -17 -4z"/>
<path d="M2852 4045 c-7 -8 -13 -18 -13 -22 0 -5 -10 -13 -22 -20 -31 -17 -4
-16 38 1 24 10 35 22 35 35 0 24 -19 27 -38 6z"/>
<path d="M2391 4007 c-52 -18 -97 -39 -99 -46 -4 -11 2 -12 24 -6 60 15 75 15
98 0 19 -13 49 -15 150 -13 120 3 166 14 135 33 -8 6 -10 4 -4 -5 6 -10 2 -12
-16 -7 -13 4 -28 7 -34 8 -5 0 1 5 15 10 19 7 16 8 -17 4 -34 -4 -47 0 -71 20
-46 39 -76 39 -181 2z m183 -17 c28 -28 -64 -40 -119 -16 -21 10 -26 15 -15
19 8 3 22 8 30 11 22 8 91 -1 104 -14z"/>
<path d="M2770 4036 c0 -2 8 -10 18 -17 15 -13 16 -12 3 4 -13 16 -21 21 -21
13z"/>
<path d="M1770 3976 c0 -2 8 -10 18 -17 15 -13 16 -12 3 4 -13 16 -21 21 -21
13z"/>
<path d="M1820 3927 c15 -20 71 -51 110 -61 14 -3 0 5 -30 19 -30 14 -63 33
-74 43 -20 16 -20 16 -6 -1z"/>
<path d="M2035 3830 c11 -5 27 -9 35 -9 9 0 8 4 -5 9 -11 5 -27 9 -35 9 -9 0
-8 -4 5 -9z"/>
<path d="M2978 3803 c7 -3 16 -2 19 1 4 3 -2 6 -13 5 -11 0 -14 -3 -6 -6z"/>
<path d="M3347 3593 c-4 -71 -7 -159 -7 -198 0 -85 -19 -71 -21 15 0 37 -3 49
-8 35 -7 -16 -9 -13 -15 20 -10 54 -23 75 -46 75 -44 0 -306 -245 -412 -386
-53 -70 -168 -256 -168 -273 0 -6 5 -11 11 -11 5 0 8 4 5 9 -13 20 91 151 255
320 l176 181 -13 -62 c-8 -35 -13 -85 -12 -113 0 -42 2 -37 10 30 13 119 24
149 72 202 44 48 44 48 72 32 21 -13 32 -32 46 -80 9 -35 17 -81 18 -101 0
-20 5 -40 10 -43 12 -7 14 -95 3 -95 -10 0 3 -227 15 -266 10 -32 -1 -574 -17
-809 -5 -71 -9 -181 -10 -244 -1 -63 -4 -112 -7 -109 -3 4 -5 145 -5 315 0
269 -2 315 -18 363 l-18 55 -2 -240 c-1 -132 -6 -277 -11 -322 -27 -217 -121
-452 -267 -662 -24 -35 -42 -66 -39 -68 2 -3 18 -2 34 2 23 5 41 24 84 93 53
84 103 186 134 275 28 78 65 283 75 411 5 72 12 132 15 135 3 3 4 -60 3 -139
-2 -80 0 -181 4 -225 4 -44 3 -72 -1 -61 -5 11 -8 -5 -7 -45 0 -35 -3 -93 -7
-129 -4 -43 -3 -55 2 -35 10 32 9 24 -5 -135 -5 -55 -4 -62 7 -45 9 14 13 61
13 152 0 72 2 129 5 127 2 -3 7 -66 10 -142 4 -104 6 -60 8 183 2 176 6 376
11 445 6 94 8 20 9 -303 0 -236 3 -431 6 -435 3 -3 6 316 7 709 1 393 2 940 3
1217 2 276 2 502 1 502 -1 0 -5 -57 -8 -127z m-70 -1275 c-2 -13 -4 -3 -4 22
0 25 2 35 4 23 2 -13 2 -33 0 -45z"/>
<path d="M3322 3660 c0 -14 2 -19 5 -12 2 6 2 18 0 25 -3 6 -5 1 -5 -13z"/>
<path d="M3323 3575 c0 -27 2 -38 4 -22 2 15 2 37 0 50 -2 12 -4 0 -4 -28z"/>
<path d="M3169 3386 c-10 -24 -26 -75 -35 -112 -43 -182 -61 -227 -106 -270
-48 -46 -163 -126 -171 -118 -2 3 -22 -15 -43 -39 -27 -31 -53 -81 -83 -158
-71 -184 -97 -236 -145 -287 -53 -57 -131 -100 -232 -131 -127 -37 -170 -112
-161 -273 8 -149 58 -217 165 -226 113 -10 235 38 339 133 110 99 138 185 153
460 14 266 33 312 154 370 88 42 152 96 214 183 l47 67 11 -70 c10 -66 11 -56
18 157 6 164 5 236 -4 261 -10 34 -12 35 -28 19 -12 -12 -16 -30 -14 -63 4
-45 3 -46 -21 -42 -22 4 -27 -1 -46 -51 -12 -31 -21 -63 -21 -70 0 -7 -16 -45
-35 -83 -36 -72 -104 -144 -200 -213 -73 -52 -105 -116 -124 -247 -6 -42 -9
-49 -10 -23 -1 54 26 166 51 211 16 29 50 60 110 101 137 94 183 173 195 332
3 45 11 87 17 95 8 11 8 13 -1 7 -16 -9 -16 -7 -2 33 6 18 21 36 33 41 17 7
18 9 3 9 -15 1 -16 5 -7 21 6 11 8 20 5 20 -3 0 -15 -20 -26 -44z m-327 -528
c-25 -28 -66 -109 -94 -186 -16 -46 -22 -95 -28 -252 -10 -261 -27 -310 -142
-414 -64 -58 -109 -84 -162 -93 -28 -4 -37 0 -59 27 -23 27 -27 41 -27 94 0
83 14 100 103 127 40 11 83 27 97 35 l25 15 -22 -19 c-11 -10 -46 -27 -77 -36
-69 -22 -96 -53 -96 -110 0 -57 22 -86 65 -86 45 0 177 89 219 147 52 74 58
103 65 318 l7 200 37 91 c33 79 87 164 104 164 4 0 -3 -10 -15 -22z m-55 -810
c-28 -58 -89 -124 -152 -168 -46 -32 -125 -73 -130 -68 -2 2 21 16 51 32 77
40 185 144 220 210 36 70 45 64 11 -6z"/>
<path d="M2670 3308 c-70 -95 -192 -389 -189 -458 0 -8 13 28 28 80 38 131 83
234 146 335 30 47 52 85 50 85 -2 0 -18 -19 -35 -42z"/>
<path d="M3311 3194 c0 -11 3 -14 6 -6 3 7 2 16 -1 19 -3 4 -6 -2 -5 -13z"/>
<path d="M1985 3050 c4 -253 45 -365 154 -422 112 -58 260 -24 309 72 12 24
22 53 21 65 0 11 -6 0 -14 -24 -26 -84 -97 -131 -200 -131 -177 0 -248 121
-265 450 l-8 145 3 -155z"/>
<path d="M1745 3075 c10 -9 25 -28 32 -43 12 -25 12 -25 7 -2 -7 29 -32 60
-48 60 -6 0 -2 -7 9 -15z"/>
<path d="M1843 2994 c-8 -22 6 -196 22 -277 28 -135 116 -251 233 -305 117
-54 269 -28 371 64 70 63 89 98 131 246 43 151 36 160 -9 11 -37 -120 -78
-186 -145 -231 -146 -97 -334 -76 -452 50 -58 62 -89 130 -119 265 -31 134
-34 217 -4 103 35 -134 49 -180 58 -180 4 0 13 -17 19 -37 43 -143 206 -249
351 -228 117 17 222 100 221 173 -1 9 -7 0 -15 -21 -18 -52 -47 -81 -108 -108
-72 -32 -182 -33 -250 -2 -27 13 -46 27 -42 33 3 5 0 7 -8 4 -8 -3 -18 0 -23
7 -5 8 -3 10 7 4 8 -5 -9 13 -38 39 -54 49 -95 121 -109 191 -7 36 -8 37 -14
15 -5 -20 -9 -11 -19 40 -26 135 -33 160 -42 160 -5 0 -12 -7 -16 -16z"/>
<path d="M1734 2975 c-4 -14 1 -73 10 -130 9 -57 15 -143 14 -192 l-2 -88 -6
70 -7 70 1 -87 c2 -91 6 -105 27 -93 11 8 8 157 -6 270 l-5 40 12 -40 c6 -22
10 -98 9 -170 0 -71 -2 -263 -3 -425 -7 -791 -9 -855 -17 -841 -5 8 -8 38 -6
65 l4 51 -10 -50 c-15 -71 -5 -109 43 -158 l42 -42 6 30 c9 48 1 1196 -10
1350 -13 175 -35 307 -61 357 -11 21 -21 38 -24 38 -3 0 -7 -11 -11 -25z m63
-1482 c-1 -54 -3 -10 -3 97 0 107 2 151 3 98 2 -54 2 -142 0 -195z m30 255
c-3 -7 -5 -2 -5 12 0 14 2 19 5 13 2 -7 2 -19 0 -25z m10 -170 c-2 -13 -4 -3
-4 22 0 25 2 35 4 23 2 -13 2 -33 0 -45z m-20 -251 c-2 -23 -3 -1 -3 48 0 50
1 68 3 42 2 -26 2 -67 0 -90z m-30 -9 c-3 -7 -5 -2 -5 12 0 14 2 19 5 13 2 -7
2 -19 0 -25z"/>
<path d="M2745 2920 c-27 -28 -45 -50 -39 -50 13 0 99 88 93 95 -3 2 -27 -18
-54 -45z"/>
<path d="M3204 2858 c-21 -29 -82 -98 -135 -154 -129 -135 -148 -186 -168
-451 -17 -218 -53 -355 -115 -436 -41 -54 -111 -107 -142 -107 -13 0 -24 2
-24 3 0 2 36 40 79 84 99 101 142 185 165 323 19 122 29 295 18 340 -6 25 -10
-10 -14 -130 -10 -287 -46 -389 -185 -527 -46 -46 -83 -87 -83 -92 0 -18 39
-22 73 -7 19 8 54 31 76 52 98 88 143 222 176 524 8 74 21 155 30 180 13 39
14 41 9 10 -3 -19 -14 -120 -25 -225 -34 -333 -83 -451 -227 -549 -88 -60
-171 -82 -253 -67 -133 23 -261 129 -315 259 -22 54 -28 88 -32 169 -5 124 12
187 64 232 38 34 45 36 159 51 131 17 253 84 300 164 28 48 69 155 62 162 -2
3 -16 -15 -31 -40 -46 -78 -130 -161 -203 -198 -67 -35 -121 -51 -218 -63 -42
-6 -57 -14 -91 -49 -62 -65 -78 -128 -71 -285 8 -198 60 -339 166 -450 57 -58
174 -122 193 -103 7 7 -6 19 -43 38 -111 55 -176 121 -233 233 -15 28 -9 24
41 -27 65 -66 132 -105 225 -128 123 -32 233 4 351 115 120 113 159 228 182
530 21 277 32 315 136 441 34 41 79 103 101 138 22 34 47 62 55 62 8 0 13 5
11 12 -9 26 -27 16 -64 -34z"/>
<path d="M1911 2854 c0 -11 3 -14 6 -6 3 7 2 16 -1 19 -3 4 -6 -2 -5 -13z"/>
<path d="M2472 2810 c0 -14 2 -19 5 -12 2 6 2 18 0 25 -3 6 -5 1 -5 -13z"/>
<path d="M3292 2810 c0 -14 2 -19 5 -12 2 6 2 18 0 25 -3 6 -5 1 -5 -13z"/>
<path d="M3302 2760 c0 -14 2 -19 5 -12 2 6 2 18 0 25 -3 6 -5 1 -5 -13z"/>
<path d="M3240 2722 c0 -27 8 -64 19 -84 l18 -37 6 56 c4 40 2 65 -9 85 -21
41 -34 34 -34 -20z"/>
<path d="M2499 2697 c-9 -66 -43 -112 -109 -145 -47 -23 -68 -27 -139 -27 -84
0 -76 -12 10 -14 60 -1 131 21 176 55 42 32 76 101 71 147 -3 28 -4 25 -9 -16z"/>
<path d="M3311 2675 c-3 -36 -4 -37 -11 -15 -8 25 -10 1 -14 -145 -2 -69 8
-81 15 -20 4 30 5 15 3 -40 -2 -63 0 -85 7 -73 5 10 8 82 6 175 -1 87 -4 140
-6 118z"/>
<path d="M3135 2639 c-20 -23 -52 -74 -71 -113 -56 -118 -65 -170 -63 -366 1
-193 -14 -271 -69 -375 -59 -109 -297 -317 -439 -382 -84 -39 -158 -38 -210 3
-21 17 -52 52 -69 78 -41 61 -95 198 -99 250 -2 23 -10 61 -19 85 -38 104 -59
243 -60 395 -1 124 -4 151 -17 159 -42 27 -73 -32 -46 -88 9 -18 21 -71 27
-117 17 -125 45 -243 79 -337 32 -87 39 -117 20 -91 -16 22 -4 -17 43 -147 68
-190 115 -243 215 -243 133 0 365 145 498 311 52 64 66 71 39 17 -29 -58 -118
-161 -193 -223 -286 -239 -509 -283 -627 -124 -13 18 -24 26 -24 18 -1 -8 -9
2 -20 21 -35 63 -21 21 19 -59 65 -128 116 -159 248 -148 126 10 338 138 497
301 56 57 67 66 37 29 -96 -117 -263 -248 -402 -312 -148 -70 -249 -64 -341
17 -44 39 -49 42 -30 16 90 -129 217 -144 404 -47 259 133 473 371 594 660 21
51 40 91 41 89 2 -2 -8 -47 -22 -102 -44 -171 -130 -315 -287 -480 -78 -81
-92 -104 -63 -104 8 0 15 5 15 11 0 5 5 7 10 4 20 -13 9 -44 -27 -74 -20 -17
-34 -34 -30 -38 22 -21 257 254 347 407 24 39 45 69 47 66 7 -7 -63 -139 -113
-212 -26 -38 -74 -102 -108 -143 -34 -40 -69 -84 -79 -97 l-19 -24 49 6 c26 4
58 12 70 20 28 18 153 205 205 308 55 109 113 289 132 412 19 120 22 411 4
380 -6 -10 -28 -105 -48 -210 -41 -203 -65 -286 -55 -186 8 74 53 312 71 378
9 30 21 52 29 52 16 0 28 52 23 96 -2 21 -9 30 -24 32 -35 5 -62 -39 -69 -116
-20 -213 -102 -494 -159 -541 -9 -8 -16 -18 -16 -24 0 -6 7 -2 16 9 14 18 15
18 4 -4 -6 -13 -16 -20 -22 -16 -8 5 -9 1 -5 -10 4 -10 3 -15 -3 -11 -5 3 -16
-7 -24 -22 -9 -18 -23 -29 -37 -30 -19 -2 -20 0 -9 7 8 5 12 10 8 10 -4 0 6
29 23 65 59 130 80 226 90 415 5 96 14 196 19 223 12 57 48 130 106 216 65 94
58 126 -11 50z m-212 -904 c-3 -9 -8 -14 -10 -11 -3 3 -2 9 2 15 9 16 15 13 8
-4z m-9 -107 c-3 -4 -11 -5 -19 -1 -21 7 -19 12 4 10 11 0 18 -5 15 -9z m-19
-18 c4 -6 2 -9 -2 -8 -5 2 -32 -24 -60 -57 -90 -108 -263 -244 -388 -306 -183
-90 -302 -72 -371 55 l-27 51 44 -47 c25 -26 61 -54 82 -63 87 -36 217 -9 359
77 104 63 254 190 305 259 38 50 47 56 58 39z m15 -23 c0 -2 -10 -12 -22 -23
l-23 -19 19 23 c18 21 26 27 26 19z"/>
<path d="M2130 2540 c8 -5 20 -10 25 -10 6 0 3 5 -5 10 -8 5 -19 10 -25 10 -5
0 -3 -5 5 -10z"/>
<path d="M1742 2490 c0 -14 2 -19 5 -12 2 6 2 18 0 25 -3 6 -5 1 -5 -13z"/>
<path d="M1754 2345 c0 -49 1 -71 3 -48 2 23 2 64 0 90 -2 26 -3 8 -3 -42z"/>
<path d="M3091 2264 c-14 -53 -36 -158 -61 -289 -15 -79 -34 -137 -66 -204
-53 -112 -56 -127 -9 -46 56 96 75 157 115 370 36 189 44 255 21 169z"/>
<path d="M1896 2183 c-9 -26 -16 -56 -15 -67 0 -12 6 -3 13 20 18 56 26 69 36
54 4 -6 1 -28 -6 -48 -9 -26 -13 -87 -12 -197 l2 -160 6 160 c5 159 13 202 32
174 5 -9 6 -3 2 16 -11 55 -25 95 -34 95 -4 0 -15 -21 -24 -47z"/>
<path d="M1763 2055 c0 -44 2 -61 4 -37 2 23 2 59 0 80 -2 20 -4 1 -4 -43z"/>
<path d="M1740 1879 c0 -145 4 -240 11 -249 7 -10 8 60 3 230 -3 135 -8 247
-10 249 -2 2 -4 -101 -4 -230z"/>
<path d="M1951 2083 c-19 -21 -9 -315 14 -428 29 -142 91 -245 189 -317 57
-41 67 -34 11 8 -132 101 -198 309 -194 615 0 72 -1 132 -2 134 -2 1 -10 -4
-18 -12z"/>
<path d="M1875 1820 c3 -287 13 -380 56 -525 23 -79 62 -145 85 -145 11 0 7
10 -15 37 -35 45 -75 169 -97 301 -10 57 -20 202 -24 352 l-8 255 3 -275z"/>
<path d="M2051 1855 c1 -19 18 -51 18 -35 0 8 -4 22 -9 30 -5 8 -9 11 -9 5z"/>
<path d="M3272 1795 c0 -16 2 -22 5 -12 2 9 2 23 0 30 -3 6 -5 -1 -5 -18z"/>
<path d="M1922 1730 c0 -19 2 -27 5 -17 2 9 2 25 0 35 -3 9 -5 1 -5 -18z"/>
<path d="M3262 1733 c-1 -17 -7 -44 -12 -58 -6 -17 -7 -33 -1 -43 7 -13 11 -9
16 19 3 19 5 53 2 74 -3 35 -4 36 -5 8z"/>
<path d="M1931 1664 c0 -11 3 -14 6 -6 3 7 2 16 -1 19 -3 4 -6 -2 -5 -13z"/>
<path d="M1941 1614 c0 -11 3 -14 6 -6 3 7 2 16 -1 19 -3 4 -6 -2 -5 -13z"/>
<path d="M1951 1574 c0 -11 3 -14 6 -6 3 7 2 16 -1 19 -3 4 -6 -2 -5 -13z"/>
<path d="M3224 1575 c3 -11 8 -33 12 -48 8 -35 19 -24 29 28 6 36 5 38 -8 21
-14 -19 -14 -19 -26 0 -12 18 -12 18 -7 -1z"/>
<path d="M1961 1534 c0 -11 3 -14 6 -6 3 7 2 16 -1 19 -3 4 -6 -2 -5 -13z"/>
<path d="M1853 1495 c0 -27 2 -38 4 -22 2 15 2 37 0 50 -2 12 -4 0 -4 -28z"/>
<path d="M3169 1400 c-26 -52 -63 -120 -82 -150 -20 -30 -34 -56 -32 -58 10
-10 75 22 101 49 25 26 29 28 35 12 5 -15 8 -12 14 12 4 17 18 51 31 77 28 56
33 100 6 53 l-17 -30 -5 65 -5 65 -46 -95z"/>
<path d="M1990 1445 c0 -5 5 -17 10 -25 5 -8 10 -10 10 -5 0 6 -5 17 -10 25
-5 8 -10 11 -10 5z"/>
<path d="M1863 1380 c0 -25 2 -35 4 -22 2 12 2 32 0 45 -2 12 -4 2 -4 -23z"/>
<path d="M1871 1274 c0 -27 4 -58 9 -69 6 -13 7 3 3 45 -7 79 -13 91 -12 24z"/>
<path d="M3253 1285 c0 -22 2 -30 4 -17 2 12 2 30 0 40 -3 9 -5 -1 -4 -23z"/>
<path d="M3333 1235 c0 -27 2 -38 4 -22 2 15 2 37 0 50 -2 12 -4 0 -4 -28z"/>
<path d="M3243 1048 c-47 -37 -106 -68 -131 -68 -11 0 -39 -7 -63 -15 -24 -9
-65 -18 -91 -20 -25 -2 -70 -11 -99 -19 -121 -36 -356 -42 -641 -14 -120 11
-170 6 -135 -13 9 -6 22 -7 27 -4 5 3 40 -1 76 -11 36 -9 101 -22 143 -30 l76
-14 -65 6 c-36 3 -91 12 -124 20 -63 16 -88 13 -34 -5 18 -6 105 -27 193 -46
87 -20 162 -38 165 -42 3 -3 -40 -3 -94 1 -108 7 -250 35 -311 60 -21 9 -40
15 -42 12 -7 -7 124 -55 198 -71 97 -22 456 -32 594 -17 346 38 617 142 569
219 -16 26 -83 70 -131 87 -42 14 -43 14 -80 -16z m-122 -102 c-36 -37 -122
-86 -192 -111 -55 -20 -60 -13 -12 16 21 13 41 28 45 33 4 6 8 8 8 3 0 -8 147
67 165 84 5 5 11 9 14 9 3 0 -10 -15 -28 -34z m-583 -113 c-21 -2 -55 -2 -75
0 -21 2 -4 4 37 4 41 0 58 -2 38 -4z"/>
<path d="M1990 945 c0 -7 61 -37 66 -33 2 3 -12 12 -31 21 -19 9 -35 15 -35
12z"/>
</g>
</svg>