<?xml version="1.0" standalone="no"?>
<!DOCTYPE svg PUBLIC "-//W3C//DTD SVG 20010904//EN"
 "http://www.w3.org/TR/2001/REC-SVG-20010904/DTD/svg10.dtd">
<svg version="1.0" xmlns="http://www.w3.org/2000/svg"
 width="512.000000pt" height="512.000000pt" viewBox="0 0 512.000000 512.000000"
 preserveAspectRatio="xMidYMid meet">
<metadata>
Created by potrace 1.16, written by Peter Selinger 2001-2019
</metadata>
<g transform="translate(0.000000,512.000000) scale(0.100000,-0.100000)"
fill="#000000" stroke="none">
<path d="M1403 4550 c-29 -17 -53 -37 -53 -45 0 -9 20 -55 44 -104 107 -213
158 -366 172 -521 3 -41 15 -97 25 -124 l18 -49 -25 24 c-14 13 -41 56 -60 95
-42 89 -118 162 -202 195 -74 30 -226 32 -287 6 -55 -24 -145 -79 -145 -89 0
-4 16 -14 35 -22 19 -8 68 -46 107 -83 133 -125 177 -142 383 -152 130 -6 156
-10 198 -31 26 -13 55 -32 64 -42 16 -17 14 -17 -28 1 -88 38 -220 36 -304 -6
-42 -21 -94 -72 -115 -113 -20 -41 -40 -126 -40 -176 0 -34 1 -34 23 -20 12 9
66 22 120 31 119 19 196 46 260 92 l48 34 -3 -37 c-3 -34 -6 -38 -46 -49 -79
-24 -79 -24 -46 -44 20 -12 34 -32 42 -58 19 -62 70 -374 87 -525 8 -75 19
-148 24 -161 6 -14 27 -32 53 -44 24 -10 54 -25 68 -31 25 -12 25 -12 -5 -6
-16 3 -68 23 -114 45 -46 21 -86 38 -87 36 -2 -2 14 -201 36 -443 22 -241 46
-520 54 -619 30 -358 57 -672 65 -749 5 -53 4 -79 -3 -81 -6 -2 -36 -8 -67
-14 -102 -21 -115 -54 -32 -79 41 -12 296 -54 433 -71 294 -36 728 -39 1030
-6 196 21 427 60 478 80 71 29 51 59 -50 77 -34 6 -66 14 -70 17 -10 8 8 265
37 541 32 311 69 764 79 995 5 106 5 108 -9 66 -20 -60 -32 -159 -50 -426 -9
-126 -21 -264 -25 -305 -13 -110 -4 125 16 410 20 284 10 399 -32 383 -15 -6
-15 -4 -1 18 10 17 18 78 26 204 14 216 29 349 42 392 6 18 16 89 23 158 11
103 17 130 35 149 29 31 27 54 -6 63 -47 13 -289 5 -501 -16 -159 -17 -270
-21 -522 -21 l-319 0 -11 38 c-15 58 -71 102 -128 102 -21 0 -35 8 -46 25 -9
14 -25 25 -36 25 -14 0 -22 11 -29 38 -28 99 -84 134 -168 106 -25 -9 -46 -14
-47 -12 -1 2 -7 16 -14 31 -11 26 -10 32 13 59 16 19 25 42 25 64 0 40 -25 94
-43 94 -6 0 8 12 33 26 97 55 141 117 160 225 13 72 30 104 60 114 80 25 -110
62 -210 40 -58 -12 -105 -41 -152 -94 l-45 -49 -12 36 c-39 109 -134 358 -147
383 -8 16 -18 29 -22 29 -4 0 -31 -14 -59 -30z m58 -93 c-8 -35 -8 -63 -1 -86
18 -62 4 -43 -34 45 -20 48 -35 88 -34 89 2 1 17 9 33 18 40 21 50 3 36 -66z
m89 -162 c52 -134 80 -254 83 -355 2 -63 -1 -83 -13 -90 -13 -8 -17 5 -27 83
-11 92 -54 275 -92 397 -25 80 -27 97 -6 80 8 -6 32 -58 55 -115z m299 -92
c-17 -15 -40 -41 -50 -58 -18 -28 -19 -28 -19 -7 0 36 18 62 53 77 48 21 52
18 16 -12z m114 -70 c-26 -127 -103 -211 -202 -221 -28 -2 -51 -1 -51 2 0 24
29 51 76 72 60 27 70 37 22 23 -17 -5 -34 -6 -37 -3 -10 10 89 94 112 95 21 1
21 1 -3 8 -23 6 -22 8 30 49 30 23 58 42 61 42 3 0 -1 -30 -8 -67z m-223 -46
c-25 -103 -40 -147 -50 -147 -18 0 -18 18 1 48 10 18 19 47 19 64 0 28 37 124
45 116 2 -2 -5 -38 -15 -81z m-83 -69 c-3 -8 -6 -5 -6 6 -1 11 2 17 5 13 3 -3
4 -12 1 -19z m-402 -33 c32 -9 75 -26 94 -38 46 -28 116 -92 144 -131 14 -20
3 -13 -31 20 -67 66 -117 100 -182 125 -50 19 -52 19 -39 2 11 -15 9 -14 -10
2 -25 21 -89 25 -168 10 -21 -4 -35 -4 -32 -1 8 9 86 24 129 25 20 1 62 -6 95
-14z m412 -7 c-3 -8 -6 -5 -6 6 -1 11 2 17 5 13 3 -3 4 -12 1 -19z m-570 -34
c-3 -3 -12 -4 -19 -1 -8 3 -5 6 6 6 11 1 17 -2 13 -5z m151 -44 c34 -16 62
-33 62 -38 0 -4 16 -16 36 -26 58 -27 32 -30 -43 -5 -55 19 -64 24 -44 29 33
8 15 21 -74 54 -42 16 -56 24 -35 20 19 -3 63 -19 98 -34z m93 -37 c13 -16 12
-17 -3 -4 -10 7 -18 15 -18 17 0 8 8 3 21 -13z m450 -20 c12 -14 12 -16 0 -9
-9 6 -12 5 -9 -5 3 -8 11 -13 17 -11 17 3 13 -59 -6 -80 -18 -21 -70 -24 -94
-5 -39 30 -49 79 -22 109 21 24 95 25 114 1z m-323 -57 c18 -9 36 -14 41 -11
10 6 24 -25 16 -34 -13 -12 -161 -13 -232 -1 -40 7 -72 15 -69 17 2 3 37 11
78 20 40 8 77 18 82 23 12 11 46 6 84 -14z m308 -143 c9 -21 19 -63 21 -93 4
-51 3 -54 -11 -36 -9 11 -16 25 -16 32 0 7 -16 34 -36 59 -38 51 -39 75 0 75
18 0 28 -9 42 -37z m-160 -54 c20 -6 42 -25 59 -51 l27 -41 -23 6 c-13 4 -45
7 -71 7 -56 0 -65 19 -10 22 l37 1 -45 7 -45 7 45 2 c37 1 42 3 27 12 -24 14
-161 7 -202 -10 -24 -10 -26 -14 -15 -22 11 -7 7 -8 -13 -3 -37 8 -100 -33
-126 -83 -11 -21 -20 -32 -21 -25 -1 38 60 117 120 155 52 33 175 41 256 16z
m335 11 c10 -6 26 -24 34 -40 19 -37 19 -46 0 -30 -14 12 -36 3 -55 -22 -10
-13 -72 32 -66 47 7 18 -15 20 -32 3 -9 -9 -12 -9 -12 0 0 17 60 52 88 52 13
0 32 -5 43 -10z m-211 -81 c0 -13 -6 -11 -24 7 -9 8 -16 23 -16 32 1 14 5 12
20 -7 11 -13 20 -27 20 -32z m-356 -55 c-38 -25 -87 -64 -110 -86 l-41 -39 0
33 c-1 22 1 27 6 15 6 -16 11 -14 48 18 49 41 144 105 157 105 5 0 -21 -21
-60 -46z m542 -60 c-4 -10 -2 -13 6 -8 8 5 9 -4 5 -32 -4 -21 -7 -48 -7 -59
-1 -20 -1 -20 -15 -1 -15 20 -21 97 -8 109 12 13 25 7 19 -9z m247 -3 c33 -13
67 -50 67 -73 0 -27 -46 -23 -82 7 -35 29 -91 33 -126 9 -18 -12 -22 -13 -22
-1 0 45 102 81 163 58z m-516 -96 c20 -8 34 -17 31 -20 -6 -7 -76 14 -83 25
-9 14 10 12 52 -5z m1818 4 c-22 -5 -103 -20 -180 -34 -77 -14 -185 -34 -240
-45 -236 -44 -473 -49 -695 -15 -52 8 -117 15 -145 16 -47 1 -48 2 -15 8 19 4
45 13 57 19 15 9 115 12 345 12 248 0 369 5 523 20 262 26 271 27 335 27 55 1
55 1 15 -8z m-1620 -34 c61 -8 151 -19 200 -24 l90 -8 -85 -1 c-125 -2 -360
31 -360 50 0 6 10 8 23 4 12 -3 72 -13 132 -21z m398 -2 c-7 -2 -19 -2 -25 0
-7 3 -2 5 12 5 14 0 19 -2 13 -5z m1312 -15 c2 -7 -4 -74 -13 -148 l-17 -135
-107 -3 c-83 -2 -113 1 -131 12 -12 9 -47 19 -77 24 l-55 9 38 8 c44 9 109 0
140 -19 18 -11 26 -11 47 0 l25 13 -35 14 c-61 25 -130 29 -190 10 -47 -14
-111 -16 -445 -17 -372 -1 -394 -2 -468 -23 -147 -42 -251 -113 -333 -229 -25
-36 -54 -85 -64 -111 l-17 -45 -16 153 -16 154 4 -150 c4 -191 -11 -150 -22
58 l-8 152 -8 -155 c-4 -85 -5 -175 -2 -199 7 -64 -5 -44 -25 41 l-18 73 -1
-75 c-2 -117 -17 -66 -41 140 -20 175 -27 225 -30 225 0 0 -3 51 -5 113 -2 63
1 112 6 112 5 0 9 -21 10 -47 0 -27 7 -100 14 -163 l14 -115 -5 120 c-3 66 -7
137 -11 158 -5 36 -5 37 26 37 27 0 34 -6 56 -50 20 -40 30 -50 51 -50 13 0
37 -9 52 -20 24 -18 37 -19 120 -14 50 4 92 11 92 15 0 5 -4 9 -10 9 -5 0 -10
5 -10 10 0 6 6 10 14 10 7 0 30 11 51 25 l37 26 146 -23 c111 -17 191 -22 327
-22 190 0 282 9 485 49 253 51 417 67 425 43z m-1902 -98 l6 -75 -14 70 c-16
84 -19 117 -6 95 5 -8 11 -49 14 -90z m337 40 c13 -9 12 -12 -4 -25 -11 -8
-32 -15 -46 -15 -32 0 -66 23 -56 38 9 15 85 15 106 2z m1153 -230 c22 -6 37
-13 35 -14 -1 -2 -106 -6 -233 -10 -235 -6 -256 -3 -169 30 45 17 302 13 367
-6z m-570 3 c4 -3 0 -15 -10 -25 -12 -13 -31 -18 -72 -18 -72 0 -207 -17 -293
-36 -80 -18 -180 -79 -203 -124 l-16 -31 40 25 c80 51 277 82 347 56 34 -13
43 -6 13 11 -33 17 -146 23 -193 11 -37 -11 -38 -11 -20 6 34 32 212 67 361
72 6 0 -8 -29 -32 -65 -42 -63 -65 -136 -52 -169 10 -26 -5 -25 -64 5 -77 38
-158 59 -234 59 -50 0 -69 -5 -106 -28 -46 -30 -78 -62 -61 -62 5 0 31 10 58
21 65 29 214 23 289 -12 48 -22 49 -23 21 -27 -39 -5 -113 -82 -154 -159 -37
-69 -33 -69 -124 -22 -69 35 -98 41 -151 27 -85 -21 -86 13 -4 181 71 147 174
226 355 272 66 16 117 23 283 38 9 0 19 -2 22 -6z m107 -32 c0 -4 -29 -52 -64
-104 -38 -57 -76 -129 -93 -177 -26 -75 -43 -100 -43 -64 0 42 122 276 173
332 22 24 27 26 27 13z m826 -83 c-3 -40 -11 -154 -16 -253 -11 -206 -17 -245
-32 -245 -8 0 -9 62 -6 218 4 152 3 186 -2 112 -12 -155 -32 -334 -37 -344
-14 -23 -19 30 -17 172 l3 157 -14 -150 c-7 -82 -14 -160 -14 -171 -1 -18 -9
-23 -48 -28 -27 -4 -55 -9 -64 -12 -15 -4 -16 9 -15 120 l1 124 -32 46 c-32
45 -32 46 -12 57 26 13 62 3 39 -11 -17 -11 -9 -13 14 -4 20 8 21 28 2 43 -10
8 -25 7 -59 -6 -43 -16 -47 -16 -65 0 -28 26 -58 21 -99 -17 -21 -18 -72 -57
-113 -86 -98 -69 -154 -122 -199 -191 l-37 -56 -53 75 c-65 89 -95 162 -86
206 10 47 80 186 113 226 l30 35 260 7 c259 6 464 21 518 38 16 4 33 9 38 9 5
1 6 -31 2 -71z m-386 -233 c7 -8 21 -15 31 -15 25 0 25 -52 0 -185 -36 -186
-89 -287 -181 -342 -100 -61 -185 -51 -217 25 -38 90 16 265 111 365 41 42
217 167 236 167 4 0 13 -7 20 -15z m-730 -75 c0 -5 -19 -10 -42 -10 -32 0 -39
3 -28 10 20 13 70 13 70 0z m-102 -17 c-9 -10 -27 -40 -41 -68 -15 -27 -26
-46 -27 -42 -1 17 61 127 72 127 7 0 5 -7 -4 -17z m199 -10 c27 -18 133 -154
157 -202 11 -21 11 -38 2 -83 l-11 -57 -38 34 c-20 19 -37 31 -37 28 0 -3 -8
4 -17 15 -27 31 -57 35 -84 14 -21 -18 -23 -28 -27 -144 -4 -103 -1 -139 17
-209 21 -84 32 -109 129 -294 29 -56 55 -119 58 -140 l5 -40 -15 39 c-24 64
-47 87 -146 153 -111 73 -179 142 -221 224 -83 166 -82 413 4 597 21 46 26 51
32 33 11 -34 55 -27 88 14 32 40 63 45 104 18z m-703 -44 c5 -4 19 -63 32
-131 23 -116 37 -270 68 -718 7 -107 14 -163 15 -125 1 84 -38 724 -56 894
l-6 64 39 -7 c23 -4 51 -20 69 -36 l29 -30 -18 -49 c-16 -44 -16 -63 -7 -183
11 -139 23 -347 42 -706 6 -136 16 -229 25 -255 29 -81 90 -123 193 -132 l56
-5 -46 13 c-75 22 -145 82 -173 149 -25 60 -61 493 -73 894 -6 186 -5 192 15
203 24 13 159 37 166 30 3 -3 -2 -43 -10 -89 -32 -176 3 -373 88 -501 52 -78
118 -135 217 -189 99 -53 118 -74 126 -145 8 -58 30 -91 70 -101 33 -8 69 16
84 58 45 120 45 121 111 168 74 53 132 124 156 190 8 25 18 82 21 127 5 73 8
82 30 94 39 21 109 105 135 160 l22 51 50 -7 c27 -3 54 -9 58 -11 5 -3 6 -56
3 -117 -3 -62 -12 -251 -20 -422 -20 -420 -28 -460 -118 -542 -104 -96 -295
-160 -502 -170 -190 -9 -348 32 -520 134 -183 109 -197 150 -225 668 -14 244
-22 279 -14 60 11 -320 30 -517 54 -573 32 -74 163 -196 262 -245 128 -64 209
-80 393 -80 141 0 172 3 260 26 187 50 330 139 380 236 35 70 43 138 54 461 6
162 13 356 17 431 7 160 3 169 -76 169 l-48 0 12 53 11 52 80 10 80 11 -6
-296 c-7 -313 -24 -628 -39 -748 -19 -143 -97 -240 -255 -318 -49 -24 -135
-56 -190 -71 -91 -25 -115 -28 -280 -28 -158 0 -190 3 -258 23 -135 39 -247
103 -349 200 -32 30 -58 50 -58 44 0 -25 85 -114 153 -159 152 -102 302 -145
507 -146 335 -1 612 127 713 328 26 52 36 133 52 410 37 646 43 713 71 736 12
10 14 0 14 -62 0 -41 5 -128 10 -194 8 -91 6 -171 -5 -340 -9 -121 -22 -321
-29 -444 -16 -254 -15 -251 -107 -312 -159 -107 -456 -180 -725 -178 -140 0
-162 3 -335 43 -244 56 -374 110 -429 177 -17 22 -36 39 -42 39 -8 0 -9 -46
-4 -162 4 -89 5 -160 2 -158 -2 3 -14 122 -25 265 -12 143 -35 414 -51 602
-41 465 -80 931 -80 948 0 11 12 10 63 -7 34 -11 66 -24 71 -29z m413 -151
c-3 -8 -6 -5 -6 6 -1 11 2 17 5 13 3 -3 4 -12 1 -19z m-10 -40 c-3 -8 -6 -5
-6 6 -1 11 2 17 5 13 3 -3 4 -12 1 -19z m-10 -55 c-3 -10 -5 -4 -5 12 0 17 2
24 5 18 2 -7 2 -21 0 -30z m-10 -150 c-2 -21 -4 -4 -4 37 0 41 2 58 4 38 2
-21 2 -55 0 -75z m402 81 c41 -34 77 -99 86 -151 5 -31 15 -49 34 -63 23 -15
29 -30 34 -72 4 -32 22 -84 47 -133 22 -44 40 -88 40 -98 0 -11 -18 -40 -41
-65 -23 -26 -52 -67 -65 -92 -20 -38 -23 -41 -24 -20 0 14 4 41 10 59 8 30 6
39 -14 65 -50 66 -128 214 -151 290 -29 90 -43 237 -26 279 13 34 31 34 70 1z
m-112 -81 c-2 -16 -4 -3 -4 27 0 30 2 43 4 28 2 -16 2 -40 0 -55z m-280 -90
c-3 -10 -5 -4 -5 12 0 17 2 24 5 18 2 -7 2 -21 0 -30z m290 -20 c-3 -10 -5 -4
-5 12 0 17 2 24 5 18 2 -7 2 -21 0 -30z m-280 -25 c-3 -8 -6 -5 -6 6 -1 11 2
17 5 13 3 -3 4 -12 1 -19z m593 -76 c0 -77 -6 -76 -25 5 -18 74 -18 72 5 66
17 -5 20 -14 20 -71z m210 19 c0 -69 -38 -169 -82 -217 -42 -46 -58 -54 -58
-29 0 8 -10 34 -21 58 -19 39 -21 54 -15 129 l8 85 46 -4 c26 -3 58 0 72 6 43
17 50 14 50 -28z m-760 -46 c0 -5 -5 -3 -10 5 -5 8 -10 20 -10 25 0 6 5 3 10
-5 5 -8 10 -19 10 -25z m1267 -427 c-2 -13 -4 -5 -4 17 -1 22 1 32 4 23 2 -10
2 -28 0 -40z m-52 -523 c-20 -187 -28 -217 -66 -249 -100 -85 -539 -141 -918
-117 -216 13 -338 31 -448 66 -103 32 -134 63 -144 143 -10 78 -11 162 -1 162
12 0 198 -69 187 -69 -5 -1 -44 10 -85 23 l-75 24 -3 -26 c-8 -61 9 -152 34
-181 61 -72 347 -122 705 -122 383 0 706 62 750 143 8 15 39 214 43 273 1 11
4 25 8 31 4 6 11 42 15 80 l8 69 3 -50 c2 -27 -4 -117 -13 -200z m-31 52 c-9
-24 -96 -77 -188 -113 -60 -25 -75 -35 -61 -39 37 -12 50 -22 53 -43 13 -88
-446 -196 -566 -133 -20 11 -73 26 -117 34 -84 15 -196 55 -202 72 -2 7 43 7
134 1 258 -17 520 21 718 103 117 49 171 79 204 115 26 28 35 29 25 3z m-1299
-127 c13 -5 14 -9 5 -9 -8 0 -24 4 -35 9 -13 5 -14 9 -5 9 8 0 24 -4 35 -9z
m52 -16 c-3 -3 -12 -4 -19 -1 -8 3 -5 6 6 6 11 1 17 -2 13 -5z m50 -10 c-3 -3
-12 -4 -19 -1 -8 3 -5 6 6 6 11 1 17 -2 13 -5z m56 -11 c-7 -2 -19 -2 -25 0
-7 3 -2 5 12 5 14 0 19 -2 13 -5z m70 -10 c-7 -2 -19 -2 -25 0 -7 3 -2 5 12 5
14 0 19 -2 13 -5z"/>
<path d="M1430 3775 c13 -14 31 -25 39 -25 11 0 6 8 -14 25 -39 32 -55 32 -25
0z"/>
<path d="M1900 3581 c0 -5 6 -14 14 -20 16 -13 32 2 21 19 -8 12 -35 13 -35 1z"/>
<path d="M1876 3081 c-4 -5 -2 -12 3 -15 5 -4 12 -2 15 3 4 5 2 12 -3 15 -5 4
-12 2 -15 -3z"/>
<path d="M1910 3020 c0 -5 5 -10 10 -10 6 0 10 5 10 10 0 6 -4 10 -10 10 -5 0
-10 -4 -10 -10z"/>
<path d="M2020 2750 c-42 -27 -90 -94 -90 -127 0 -16 32 -17 48 -1 17 17 15
31 -3 24 -26 -10 -1 26 57 83 58 57 55 64 -12 21z"/>
<path d="M3015 2520 c-10 -12 -24 -19 -31 -16 -7 3 -29 -8 -49 -24 -102 -81
-139 -183 -87 -242 21 -24 35 -23 70 7 39 32 66 90 91 188 11 43 25 85 31 92
19 23 -5 18 -25 -5z"/>
<path d="M3091 2439 c0 -14 -7 -47 -15 -72 -8 -26 -11 -45 -6 -42 12 8 32 90
27 116 -4 24 -4 24 -6 -2z"/>
<path d="M2790 2278 c0 -26 21 -66 38 -73 11 -4 12 -2 4 8 -6 7 -18 29 -26 48
-9 19 -15 26 -16 17z"/>
<path d="M3029 2254 c-13 -14 -40 -34 -59 -45 -29 -15 -31 -18 -13 -19 23 0
77 41 94 71 13 26 7 24 -22 -7z"/>
<path d="M2856 2166 c-11 -18 -13 -31 -7 -48 9 -22 10 -21 10 8 1 16 6 35 13
42 6 6 9 14 6 17 -3 3 -13 -6 -22 -19z"/>
<path d="M2500 2380 c0 -8 10 -26 21 -40 11 -14 18 -19 14 -12 -30 57 -35 65
-35 52z"/>
<path d="M2544 2355 c16 -37 46 -85 46 -72 0 11 -50 107 -55 107 -3 0 1 -16 9
-35z"/>
<path d="M2355 2255 c-21 -95 -16 -265 10 -338 23 -63 29 -56 8 8 -21 63 -23
289 -4 354 7 23 10 45 8 48 -3 2 -13 -30 -22 -72z"/>
<path d="M2540 2301 c0 -5 7 -15 17 -22 15 -13 15 -12 4 9 -12 23 -21 28 -21
13z"/>
<path d="M2405 1905 c7 -33 70 -150 86 -161 6 -3 -1 12 -15 34 -13 22 -36 66
-51 98 -15 33 -23 46 -20 29z"/>
<path d="M1720 2355 c0 -11 8 -114 17 -230 13 -149 20 -198 24 -170 4 22 5 -5
4 -60 -3 -76 -1 -89 5 -55 6 34 7 22 5 -50 -3 -66 -1 -86 5 -65 6 20 7 5 3
-47 -4 -56 -2 -78 6 -78 7 0 9 -4 6 -10 -10 -16 24 -347 41 -397 15 -46 65
-146 69 -141 2 2 -1 48 -6 103 -24 263 -70 784 -79 900 -6 72 -15 147 -21 168
-13 49 -79 159 -79 132z m27 -142 c-2 -16 -4 -3 -4 27 0 30 2 43 4 28 2 -16 2
-40 0 -55z m10 -150 c-3 -10 -5 -2 -5 17 0 19 2 27 5 18 2 -10 2 -26 0 -35z"/>
<path d="M3182 1948 c5 -15 28 -18 29 -3 0 6 -7 12 -17 13 -10 3 -15 -1 -12
-10z"/>
<path d="M3262 1840 c-4 -190 -23 -516 -32 -570 -15 -84 -55 -139 -123 -173
-32 -16 -79 -33 -105 -38 -43 -7 -41 -8 21 -4 124 8 196 59 216 155 14 63 34
502 29 630 l-4 95 -2 -95z"/>
<path d="M3133 1673 c-7 -3 -13 -13 -13 -23 0 -19 17 -30 38 -23 6 3 12 13 12
23 0 19 -17 30 -37 23z"/>
<path d="M2353 1553 c-18 -6 -16 -33 1 -33 19 0 31 19 20 30 -5 4 -15 5 -21 3z"/>
<path d="M2393 1478 c2 -7 10 -13 17 -13 7 0 15 6 18 13 2 7 -5 12 -18 12 -13
0 -20 -5 -17 -12z"/>
<path d="M2895 1240 c-4 -7 -3 -16 3 -22 14 -14 45 -2 40 15 -6 16 -34 21 -43
7z"/>
<path d="M2568 1078 c66 -5 158 -5 225 0 104 9 97 9 -113 9 -210 0 -217 0
-112 -9z"/>
<path d="M2475 1041 c-55 -22 410 -18 470 4 6 2 -93 3 -220 4 -126 0 -239 -4
-250 -8z"/>
<path d="M2630 1950 c0 -5 7 -10 15 -10 8 0 15 5 15 10 0 6 -7 10 -15 10 -8 0
-15 -4 -15 -10z"/>
<path d="M2624 1829 c-10 -17 13 -36 27 -22 12 12 4 33 -11 33 -5 0 -12 -5
-16 -11z"/>
<path d="M2690 1685 c0 -8 7 -15 15 -15 8 0 15 7 15 15 0 8 -7 15 -15 15 -8 0
-15 -7 -15 -15z"/>
<path d="M2960 1857 c0 -17 -4 -48 -10 -67 -9 -32 -8 -33 5 -16 14 18 22 116
10 116 -3 0 -5 -15 -5 -33z"/>
<path d="M2037 3864 c-14 -15 -6 -34 14 -34 14 0 19 5 17 17 -3 18 -20 27 -31
17z"/>
<path d="M2027 3773 c-10 -9 -8 -41 2 -47 16 -10 41 5 41 24 0 10 -7 21 -16
24 -19 7 -19 7 -27 -1z"/>
<path d="M1503 3285 c0 -22 2 -30 4 -17 2 12 2 30 0 40 -3 9 -5 -1 -4 -23z"/>
<path d="M3693 3225 c0 -22 2 -30 4 -17 2 12 2 30 0 40 -3 9 -5 -1 -4 -23z"/>
<path d="M1513 3185 c0 -27 2 -38 4 -22 2 15 2 37 0 50 -2 12 -4 0 -4 -28z"/>
<path d="M3683 3075 c0 -33 2 -45 4 -27 2 18 2 45 0 60 -2 15 -4 0 -4 -33z"/>
<path d="M1523 3070 c0 -30 2 -43 4 -27 2 15 2 39 0 55 -2 15 -4 2 -4 -28z"/>
<path d="M1533 2950 c0 -25 2 -35 4 -22 2 12 2 32 0 45 -2 12 -4 2 -4 -23z"/>
<path d="M3673 2940 c0 -30 2 -43 4 -27 2 15 2 39 0 55 -2 15 -4 2 -4 -28z"/>
<path d="M1543 2840 c0 -25 2 -35 4 -22 2 12 2 32 0 45 -2 12 -4 2 -4 -23z"/>
<path d="M3663 2800 c0 -25 2 -35 4 -22 2 12 2 32 0 45 -2 12 -4 2 -4 -23z"/>
<path d="M1553 2700 c0 -25 2 -35 4 -22 2 12 2 32 0 45 -2 12 -4 2 -4 -23z"/>
<path d="M3653 2690 c0 -25 2 -35 4 -22 2 12 2 32 0 45 -2 12 -4 2 -4 -23z"/>
<path d="M1560 2626 c0 -2 8 -10 18 -17 15 -13 16 -12 3 4 -13 16 -21 21 -21
13z"/>
<path d="M3643 2565 c0 -27 2 -38 4 -22 2 15 2 37 0 50 -2 12 -4 0 -4 -28z"/>
<path d="M3633 2455 c0 -27 2 -38 4 -22 2 15 2 37 0 50 -2 12 -4 0 -4 -28z"/>
</g>
</svg>