<?xml version="1.0" standalone="no"?>
<!DOCTYPE svg PUBLIC "-//W3C//DTD SVG 20010904//EN"
 "http://www.w3.org/TR/2001/REC-SVG-20010904/DTD/svg10.dtd">
<svg version="1.0" xmlns="http://www.w3.org/2000/svg"
 width="512.000000pt" height="512.000000pt" viewBox="0 0 512.000000 512.000000"
 preserveAspectRatio="xMidYMid meet">
<metadata>
Created by potrace 1.16, written by Peter Selinger 2001-2019
</metadata>
<g transform="translate(0.000000,512.000000) scale(0.100000,-0.100000)"
fill="#000000" stroke="none">
<path d="M2260 4444 c-385 -59 -737 -232 -1044 -515 -111 -102 -246 -271 -315
-394 l-22 -40 23 29 c153 192 279 329 399 431 286 245 577 386 933 452 116 21
446 24 556 5 432 -77 759 -249 1070 -562 l125 -125 -80 94 c-127 149 -307 299
-497 412 -173 103 -397 179 -630 213 -131 20 -387 19 -518 0z"/>
<path d="M2440 4344 c-299 -22 -603 -125 -855 -291 -238 -157 -454 -377 -565
-575 -17 -32 -30 -58 -27 -58 2 0 31 42 65 93 249 379 680 676 1132 778 144
32 349 45 502 31 144 -13 303 -46 417 -85 39 -14 71 -23 71 -20 0 20 -239 94
-365 112 -82 12 -296 20 -375 15z"/>
<path d="M2343 4263 c-12 -2 -32 -14 -46 -27 -18 -17 -36 -22 -74 -22 -62 0
-115 -29 -127 -70 -17 -59 -17 -59 -112 -61 -114 -4 -126 -7 -168 -44 -34 -29
-36 -30 -60 -14 -32 22 -57 13 -79 -27 -10 -18 -33 -42 -50 -53 -32 -21 -32
-22 -29 -93 l3 -72 -43 0 c-98 0 -221 -98 -254 -204 -15 -48 -18 -52 -44 -48
-64 9 -140 -58 -140 -124 0 -26 -6 -34 -44 -52 -24 -12 -62 -22 -84 -22 -50 0
-52 -3 -110 -175 -66 -194 -93 -340 -99 -550 -10 -322 50 -599 180 -835 56
-102 117 -196 160 -248 49 -58 47 -45 -2 22 -204 276 -313 590 -327 946 -7
170 10 329 56 511 29 112 58 201 45 138 -11 -59 25 -174 70 -223 l23 -24 -53
-55 c-45 -46 -55 -64 -65 -112 -9 -45 -9 -66 0 -99 7 -22 12 -54 11 -71 -10
-157 -6 -200 23 -257 28 -55 28 -58 16 -120 -19 -93 -17 -124 10 -153 19 -20
25 -38 26 -81 2 -68 22 -100 79 -124 38 -16 49 -28 76 -82 17 -35 42 -77 55
-95 18 -24 24 -44 24 -85 0 -29 5 -70 10 -90 19 -69 114 -126 188 -114 32 5
41 1 86 -42 28 -26 62 -55 75 -64 21 -15 22 -19 12 -51 -15 -45 -6 -78 30
-113 32 -31 49 -33 306 -34 76 0 78 -1 116 -60 49 -75 136 -104 231 -78 51 15
53 15 81 -8 61 -49 175 -67 257 -40 43 14 166 27 285 30 55 1 66 5 95 32 30
28 39 32 95 32 72 0 144 29 171 70 9 14 15 42 15 63 -2 31 2 39 15 39 9 0 44
12 77 26 33 14 86 31 117 38 85 20 139 56 172 115 20 37 39 57 69 72 59 30 76
47 87 91 8 29 18 41 44 52 18 7 42 25 53 40 14 17 31 26 50 26 65 0 100 62 89
157 -4 30 -11 64 -17 75 -8 14 -5 29 10 62 12 23 21 49 21 57 0 8 16 34 35 58
44 55 69 135 60 193 -6 41 -5 44 38 80 50 41 62 77 42 123 -12 30 -61 79 -87
87 -9 3 -1 22 24 59 20 30 42 74 48 99 7 25 21 62 31 82 26 50 24 64 -10 99
-23 22 -39 29 -69 29 l-40 0 16 49 c13 42 14 58 3 103 -15 67 -63 145 -99 161
-37 16 -43 27 -37 60 3 18 -3 44 -16 69 -17 34 -20 52 -15 99 4 34 2 76 -5
104 -15 60 -74 125 -113 125 -18 0 -36 10 -52 29 -14 17 -34 33 -44 36 -13 4
-20 15 -20 30 0 47 -89 125 -142 125 -15 0 -29 10 -39 29 -9 15 -34 37 -56 47
-28 13 -43 28 -49 49 -15 50 -65 75 -146 74 -41 -1 -74 4 -83 11 -8 7 -22 37
-31 67 -22 74 -45 83 -122 44 -91 -45 -106 -46 -157 -11 -61 42 -117 60 -187
60 -61 0 -134 -27 -144 -54 -4 -10 -19 0 -47 31 -57 62 -115 88 -174 76z m115
-60 c23 -15 42 -35 42 -44 0 -9 9 -24 19 -33 18 -16 17 -35 -5 -84 0 -1 -27
10 -60 24 -75 34 -124 38 -198 17 -59 -17 -149 -85 -160 -121 -3 -10 -38 -37
-77 -62 -38 -24 -73 -48 -76 -53 -10 -16 40 5 84 35 l43 29 -10 -26 c-6 -15
-10 -37 -10 -49 0 -22 -4 -23 -73 -22 -64 0 -82 -4 -140 -32 -103 -51 -115
-37 -26 28 196 143 256 188 303 231 28 26 71 57 96 69 25 12 55 31 67 42 27
25 64 18 100 -18 14 -14 27 -23 30 -20 8 8 -54 66 -71 66 -21 0 -30 18 -16 35
21 25 91 19 138 -12z m-200 -24 c-2 -6 -28 -25 -58 -42 -30 -16 -63 -36 -72
-45 -16 -14 -18 -13 -18 4 0 38 25 68 65 80 52 16 88 17 83 3z m578 -27 c22
-11 47 -28 55 -38 13 -15 11 -16 -21 -11 -19 3 -46 8 -60 12 -23 6 -22 5 4
-11 l29 -16 -33 -14 c-19 -8 -50 -33 -70 -55 l-37 -39 -9 62 c-5 44 -9 54 -12
34 -2 -16 1 -47 7 -70 8 -32 6 -55 -8 -105 l-18 -65 -16 49 c-10 27 -18 67
-18 89 -1 23 -5 55 -9 71 -6 24 -8 17 -9 -33 l-1 -63 -31 36 c-26 30 -30 40
-25 69 8 43 44 97 76 114 37 19 155 10 206 -16z m294 -21 c5 -11 10 -30 10
-42 0 -13 9 -33 21 -45 35 -38 59 -160 43 -222 -6 -22 -10 -23 -53 -17 -51 7
-161 -14 -211 -40 -16 -8 -55 -40 -88 -70 -49 -45 -62 -52 -71 -41 -6 8 -25
19 -42 26 l-30 13 48 27 c26 15 63 31 81 35 48 10 217 92 252 122 17 14 35 35
42 46 7 14 -4 8 -33 -17 -43 -36 -205 -116 -265 -130 l-29 -6 25 21 c14 12 62
40 108 62 55 27 95 54 118 81 46 54 43 70 -4 19 -23 -26 -69 -56 -122 -82 -46
-22 -85 -39 -86 -38 -2 1 37 38 87 80 49 43 96 92 105 109 21 40 12 47 -12 9
-11 -16 -40 -45 -65 -64 l-46 -35 7 43 c8 55 -3 50 -20 -9 -8 -29 -30 -64 -61
-97 -45 -48 -49 -51 -49 -27 0 13 7 47 15 73 8 27 12 51 10 53 -8 9 -35 -73
-42 -127 -6 -52 -28 -100 -46 -101 -4 0 -5 12 -2 28 4 19 0 15 -14 -15 -18
-39 -51 -59 -51 -32 0 35 65 214 93 256 26 38 41 51 77 61 75 23 183 65 225
89 49 28 61 28 75 4z m-755 -82 c104 -19 182 -74 225 -159 29 -57 26 -70 -14
-70 -30 0 -36 4 -46 34 -12 37 -70 100 -114 123 -47 24 -125 28 -171 8 -22
-10 -44 -17 -50 -16 -5 2 -7 0 -3 -4 4 -4 -2 -16 -12 -27 -28 -30 -50 -82 -49
-115 0 -22 3 -17 13 20 18 66 43 98 100 126 45 23 53 24 104 13 30 -6 70 -22
88 -34 32 -22 84 -92 84 -113 0 -6 -22 -21 -50 -32 l-50 -21 0 36 c0 30 -5 39
-27 50 -36 16 -43 15 -44 -5 -1 -16 -2 -16 -6 -1 -4 15 -32 33 -40 25 -3 -4
44 -117 50 -117 2 0 4 16 5 37 3 42 10 56 23 48 12 -8 12 -62 -1 -70 -6 -4 -8
-15 -5 -25 8 -25 -82 -120 -113 -120 -12 0 -22 5 -22 10 0 6 6 10 13 10 24 0
71 46 64 63 -8 20 -62 23 -104 5 -26 -11 -27 -12 -6 -15 12 -3 39 0 59 6 21 6
39 9 41 7 7 -7 -78 -56 -87 -51 -16 10 -11 -5 10 -32 27 -35 26 -71 -2 -82
-19 -7 -30 -3 -60 26 -39 38 -83 126 -74 149 3 8 0 14 -6 14 -20 0 -3 121 25
176 38 75 81 107 172 127 11 3 20 5 21 6 0 0 27 -4 59 -10z m-305 -8 c0 -5
-28 -27 -62 -47 -35 -21 -80 -54 -102 -74 l-39 -35 22 43 c31 61 21 74 -11 15
-15 -27 -37 -58 -48 -68 l-21 -19 7 42 c9 59 -2 52 -21 -12 -12 -41 -25 -61
-52 -82 -34 -26 -36 -26 -49 -9 -8 10 -14 30 -14 44 0 14 -5 33 -11 41 -7 11
-9 -1 -7 -43 2 -39 -1 -57 -9 -57 -13 0 -19 17 -28 82 -7 44 -6 47 24 62 17 9
38 30 46 46 16 32 34 37 66 19 20 -10 20 -11 2 -24 -13 -10 -14 -14 -4 -15 8
0 38 23 67 50 l53 50 95 0 c53 0 96 -4 96 -9z m1302 -47 c21 -11 28 -22 28
-44 0 -25 7 -33 48 -54 68 -35 80 -51 61 -84 -8 -15 -30 -35 -49 -44 -50 -25
-72 -55 -60 -79 10 -17 8 -18 -22 -12 -40 8 -80 51 -72 78 31 110 31 131 2
138 -20 5 -21 4 -6 -6 13 -10 15 -21 9 -52 -4 -22 -13 -50 -20 -62 -11 -22
-13 -22 -36 -7 -29 19 -29 19 -14 76 10 35 9 53 -5 100 -9 31 -16 58 -16 60 0
11 128 5 152 -8z m250 -206 c44 -25 70 -64 62 -95 -4 -15 0 -22 18 -26 26 -7
68 -42 68 -58 0 -6 -19 -9 -46 -8 -28 2 -48 -2 -53 -9 -10 -16 -36 13 -45 49
-3 15 -15 37 -26 50 l-20 24 15 -37 c8 -21 15 -41 15 -46 0 -5 -28 0 -62 11
-83 26 -89 29 -106 55 -13 20 -12 22 20 35 18 8 46 29 62 46 35 37 46 38 98 9z
m-1002 2 c-10 -6 -11 -10 -2 -10 6 0 12 -5 12 -10 0 -7 -7 -7 -20 0 -23 12
-44 4 -34 -12 4 -7 2 -8 -4 -4 -7 4 -21 -9 -36 -32 -14 -22 -40 -49 -59 -61
-41 -25 -113 -101 -129 -136 -13 -29 -25 -31 -50 -8 -11 10 -18 30 -18 55 0
31 4 38 19 38 13 0 34 20 57 54 62 88 141 130 254 135 20 0 22 -1 10 -9z
m-560 -35 c0 -26 -5 -28 -54 -25 -16 1 -26 -2 -22 -8 3 -6 -17 -2 -44 9 -28
10 -63 19 -78 20 -26 0 -26 1 8 14 19 7 70 14 113 14 76 1 77 1 77 -24z m1143
2 c36 -16 97 -64 97 -78 0 -5 -15 -9 -34 -9 -19 0 -47 -5 -63 -12 -15 -6 -53
-10 -85 -9 -34 1 -59 -2 -63 -10 -6 -8 3 -9 34 -4 47 8 53 -4 13 -27 -28 -17
-117 -109 -161 -168 l-25 -33 -13 37 c-11 34 -10 42 8 79 12 23 35 57 52 75
17 17 27 32 21 32 -22 0 -51 -31 -74 -80 l-24 -52 -19 43 -18 42 38 39 c43 44
117 84 183 98 l45 9 -56 -3 c-66 -5 -129 -34 -181 -84 -22 -21 -38 -30 -38
-22 0 25 99 108 153 129 61 24 163 27 210 8z m-1534 -13 c17 -4 31 -9 31 -13
0 -7 -52 -38 -137 -81 -46 -23 -71 -43 -94 -78 -18 -26 -33 -49 -35 -51 -1 -1
-7 0 -13 4 -16 9 3 41 58 99 29 31 37 43 20 32 -40 -25 -103 -99 -106 -123 -1
-14 5 -23 19 -26 15 -4 19 -10 13 -24 -4 -10 -14 -40 -21 -67 -8 -27 -16 -51
-18 -54 -11 -10 -45 66 -51 112 -7 59 11 121 52 174 33 44 111 94 135 86 10
-3 18 -1 18 5 0 12 79 15 129 5z m958 -16 c-3 -8 -6 -5 -6 6 -1 11 2 17 5 13
3 -3 4 -12 1 -19z m-709 -23 c137 -41 255 -236 228 -378 -5 -27 -14 -38 -45
-52 -52 -23 -114 -88 -143 -150 -30 -64 -67 -78 -185 -73 -155 8 -281 100
-323 235 -11 36 -20 79 -19 97 l1 31 8 -32 c19 -83 94 -163 165 -178 25 -5 21
-1 -19 22 -29 16 -65 48 -85 77 -29 41 -36 60 -39 111 -5 73 13 119 65 172 41
41 62 43 34 4 -48 -66 -33 -182 34 -276 19 -28 35 -57 35 -66 0 -28 39 -67 85
-85 53 -20 154 -16 201 9 144 74 150 248 13 343 -41 28 -116 42 -163 30 -58
-14 -125 -104 -144 -193 l-8 -38 -22 42 c-55 105 -48 185 21 260 83 90 191
122 305 88z m145 -10 c-3 -17 -27 -17 -48 0 -19 15 -18 15 15 13 19 -2 34 -7
33 -13z m622 -26 c58 -15 122 -71 151 -133 30 -63 33 -109 4 -55 -48 91 -159
143 -252 119 -95 -25 -171 -90 -203 -174 -23 -60 -13 -71 13 -14 59 133 203
201 317 149 43 -19 101 -78 116 -118 7 -19 12 -23 23 -14 17 14 26 4 26 -29 0
-23 -8 -31 -49 -49 -55 -23 -71 -26 -71 -11 0 6 -9 1 -20 -10 -16 -16 -24 -18
-40 -10 -16 9 -18 15 -10 30 7 12 7 20 1 20 -5 0 -13 -9 -16 -20 -4 -13 -15
-20 -31 -20 -54 0 -95 -39 -119 -115 -6 -19 -8 -18 -31 10 -50 62 -44 129 17
187 65 62 144 72 212 27 l32 -21 -34 32 c-32 30 -37 32 -97 28 -52 -3 -70 -9
-101 -34 -98 -79 -108 -166 -31 -251 19 -20 19 -22 3 -47 l-17 -26 -34 52
c-57 92 -67 111 -80 168 -19 80 -17 110 12 168 30 60 88 115 159 148 56 27 86
29 150 13z m-596 -26 c13 -28 13 -28 -8 -9 -22 20 -27 36 -13 36 5 0 14 -12
21 -27z m1348 -24 c24 -12 62 -42 86 -69 67 -74 83 -158 51 -254 -13 -37 -20
-46 -33 -40 -9 4 -41 9 -71 11 -48 4 -63 0 -115 -27 -158 -85 -154 -84 -241
-88 -71 -4 -85 -2 -90 12 -8 20 18 51 61 74 16 9 84 34 149 57 66 22 122 46
124 54 3 10 -1 12 -14 8 -11 -3 -68 -21 -129 -40 -120 -36 -148 -49 -183 -80
l-22 -21 6 35 c7 34 18 57 54 115 11 17 21 44 22 60 1 16 13 44 27 62 78 105
241 116 344 23 28 -25 37 -29 29 -14 -20 37 -83 81 -134 94 -93 22 -200 -13
-248 -81 -18 -25 -25 -28 -36 -19 -19 16 -18 23 10 56 76 90 243 124 353 72z
m427 -50 c40 -32 56 -71 56 -142 0 -53 -5 -71 -30 -110 -16 -26 -37 -50 -45
-53 -21 -8 -19 -24 3 -24 19 0 51 29 70 65 11 20 11 20 12 -2 0 -35 -10 -51
-46 -74 -21 -12 -41 -38 -54 -65 -17 -40 -22 -44 -39 -34 -30 15 -31 21 -35
122 -2 51 -9 105 -15 120 -14 37 -91 119 -103 112 -8 -5 6 31 18 44 1 2 16
-11 33 -30 51 -55 80 -124 87 -210 7 -77 24 -109 24 -44 0 18 7 39 16 47 50
41 52 106 6 192 -34 64 -47 60 -17 -5 30 -65 32 -127 5 -159 l-19 -24 6 53 c5
42 3 52 -9 52 -9 0 -18 12 -21 28 -3 15 -22 48 -42 74 -41 52 -39 68 8 68 18
0 39 5 47 10 24 16 55 12 84 -11z m-226 -29 c3 -8 0 -10 -8 -5 -10 6 -12 4 -7
-9 4 -10 3 -15 -3 -11 -14 9 -12 47 2 43 6 -2 14 -10 16 -18z m-1736 -32 c82
-46 129 -159 94 -225 -50 -98 -208 -141 -303 -83 -44 27 -69 111 -50 169 53
152 146 202 259 139z m330 -18 c56 -22 95 -46 86 -55 -2 -3 -18 1 -34 9 -39
19 -74 29 -74 21 0 -3 20 -14 44 -25 40 -17 76 -52 76 -74 0 -5 -9 -1 -20 9
-11 10 -20 13 -20 8 0 -6 6 -16 14 -22 17 -14 39 -71 27 -71 -4 0 -20 14 -37
31 -29 31 -64 55 -64 44 0 -3 16 -20 35 -38 l35 -32 -63 3 -63 4 -1 76 c-1 42
-6 89 -12 105 -13 34 -3 35 71 7z m-952 0 c8 -5 19 -32 26 -59 10 -47 10 -51
-8 -51 -10 0 -31 8 -45 17 -26 17 -26 17 -16 -2 10 -17 6 -21 -29 -37 -22 -10
-44 -18 -49 -18 -5 0 -9 20 -9 44 0 65 38 106 105 114 6 1 17 -2 25 -8z m1776
-25 c19 -28 14 -58 -16 -95 -18 -23 -20 -24 -20 -5 0 11 7 31 16 43 21 30 13
38 -11 12 -23 -25 -34 -85 -35 -183 0 -76 1 -78 30 -95 33 -19 35 -28 19 -85
-12 -44 -16 -43 -34 10 -10 27 -14 32 -15 16 0 -13 7 -41 16 -63 16 -39 16
-42 -2 -56 -11 -9 -13 -13 -6 -9 17 9 15 1 -12 -53 -40 -78 -58 -95 -35 -33
11 29 18 55 16 58 -6 5 -52 -75 -62 -106 -7 -24 -9 -23 -31 20 -12 24 -35 58
-49 74 -22 26 -20 18 15 -52 22 -46 40 -87 40 -93 0 -19 -42 -111 -48 -105 -3
3 -9 31 -13 63 -8 66 -28 146 -35 139 -3 -3 0 -33 6 -67 6 -34 9 -64 6 -67 -3
-3 -27 7 -53 22 -43 25 -46 26 -28 6 11 -12 31 -30 46 -38 15 -9 34 -31 43
-50 16 -33 15 -36 -10 -79 -22 -37 -31 -44 -48 -40 -12 3 -35 6 -52 6 -31 0
-31 0 -24 42 4 23 4 72 -2 111 -18 129 30 219 152 283 38 19 71 42 74 50 7 18
3 18 -44 -6 l-38 -20 35 53 c47 70 125 226 120 240 -2 7 -24 -28 -49 -78 -43
-84 -130 -215 -144 -215 -4 0 -3 6 2 13 5 7 -1 1 -14 -13 -27 -30 -31 -26 -57
69 -10 39 -23 71 -28 71 -4 0 -6 -8 -3 -17 29 -101 37 -157 27 -179 -14 -31
-34 -30 -59 1 -32 41 -36 91 -12 168 27 88 80 144 160 169 80 25 142 68 190
132 23 31 46 56 51 56 5 0 16 -11 25 -25z m608 -58 c32 -32 50 -85 53 -162 3
-67 2 -77 -9 -64 -7 9 -17 17 -23 17 -26 4 -85 33 -85 42 0 20 24 100 30 100
4 0 12 -12 19 -26 6 -15 14 -24 17 -21 3 3 -4 23 -15 46 -32 62 -24 105 13 68z
m-2298 -77 c28 -18 53 -56 42 -64 -12 -9 -240 -56 -248 -51 -18 11 -11 61 13
83 55 52 138 65 193 32z m-236 -12 c0 -6 -5 -26 -11 -43 -10 -26 -8 -38 9 -75
49 -108 51 -118 37 -130 -18 -15 -91 76 -105 133 -16 61 -18 65 -19 32 l-1
-30 -20 25 c-26 33 -25 15 1 -34 13 -26 16 -37 7 -34 -7 3 -24 9 -38 13 -22 7
-23 6 -11 -8 7 -9 28 -19 47 -23 21 -4 41 -17 52 -33 35 -49 35 -49 -6 -40
-48 11 -54 11 -48 0 3 -5 28 -14 56 -21 38 -9 50 -16 50 -31 0 -23 1 -23 -67
-3 -30 9 -57 13 -60 10 -7 -7 59 -36 82 -36 20 0 29 -23 21 -55 -5 -21 -12
-25 -45 -25 -108 0 -164 157 -116 328 l18 62 41 0 c22 1 55 7 71 15 38 17 55
18 55 3z m1558 -30 c-2 -6 -17 -16 -34 -21 -45 -15 -54 -26 -54 -68 0 -41 -7
-47 -30 -26 -8 6 -6 2 3 -9 14 -17 17 -32 11 -72 -8 -62 9 -118 48 -154 29
-27 29 -29 16 -67 l-13 -40 -33 40 c-39 46 -66 149 -57 214 4 26 3 35 -3 27
-7 -11 -10 -9 -15 7 -3 12 1 28 9 35 8 8 14 27 14 43 1 37 21 72 51 89 31 17
92 18 87 2z m-362 -48 c62 -31 122 -129 124 -203 l0 -27 -50 25 c-48 25 -50
26 -35 48 13 20 12 25 -3 49 -29 44 -63 68 -96 67 -17 0 -24 -3 -16 -6 8 -2
22 -7 30 -10 8 -4 20 -5 25 -5 6 1 0 -5 -12 -14 -13 -9 -23 -23 -23 -30 0 -10
-11 -12 -44 -8 -83 12 -190 -67 -218 -158 -7 -23 -14 -34 -19 -27 -4 6 -12 8
-19 4 -10 -6 -11 6 -6 56 4 35 11 65 16 67 5 2 6 10 3 19 -4 11 -2 14 5 9 12
-7 13 -6 17 32 1 13 17 39 36 58 34 35 62 48 38 17 -13 -16 -12 -17 3 -4 10 7
15 17 12 22 -10 17 60 38 125 39 45 0 77 -6 107 -20z m316 -10 c-17 -30 -32
-39 -32 -20 0 10 36 50 45 50 2 0 -4 -13 -13 -30z m1318 20 c0 -5 -9 -14 -20
-20 -19 -10 -20 -10 -8 9 13 22 28 28 28 11z m-2545 -10 c-3 -5 -14 -10 -23
-10 -9 0 -47 -15 -84 -34 -50 -25 -70 -31 -79 -22 -9 8 -10 6 -6 -11 3 -12 -1
-27 -8 -33 -11 -9 -17 -5 -29 19 -21 39 -20 41 7 42 12 0 65 13 117 29 112 33
113 33 105 20z m2233 -72 c196 -99 272 -181 272 -290 0 -173 -188 -271 -401
-208 -41 12 -89 52 -89 74 0 12 7 12 58 -1 122 -32 248 14 298 109 45 87 -29
212 -171 286 -40 21 -64 26 -120 27 -38 0 -78 -5 -88 -11 -13 -7 -1 -9 47 -6
80 5 124 -9 202 -63 110 -78 145 -159 103 -234 -34 -61 -100 -91 -198 -91 -42
1 -94 7 -116 15 -54 20 -53 20 -57 -22 -3 -35 -6 -38 -37 -41 -28 -3 -41 3
-78 40 -73 70 -98 122 -98 198 0 84 37 154 109 209 134 101 180 103 364 9z
m298 11 c18 -17 43 -36 55 -43 13 -6 37 -33 54 -60 26 -43 30 -59 30 -119 0
-60 -3 -71 -23 -87 -19 -16 -21 -23 -12 -40 10 -18 17 -20 53 -15 61 9 97 -7
97 -44 0 -16 -4 -33 -10 -36 -5 -3 -19 -36 -30 -74 -27 -90 -73 -149 -148
-189 -75 -40 -90 -41 -85 -4 3 25 3 26 -6 5 -7 -15 -19 -23 -36 -23 -44 0 -12
38 58 69 34 15 68 35 76 44 10 13 -1 11 -44 -8 -32 -14 -61 -25 -66 -23 -4 2
8 39 27 83 27 60 49 92 88 127 67 62 48 61 -39 -3 -134 -98 -248 -144 -340
-137 -54 5 -113 23 -103 33 2 2 26 -1 53 -6 28 -6 77 -7 110 -4 127 14 210 76
241 182 9 32 25 70 36 85 24 34 61 118 55 124 -2 3 -22 -19 -43 -48 l-38 -53
-12 30 c-17 40 -17 51 2 81 9 13 14 27 12 30 -3 2 -13 -7 -22 -21 l-17 -25
-31 35 -31 36 32 32 c31 33 39 61 21 72 -11 7 -14 25 -3 25 4 0 22 -14 39 -31z
m-2468 -18 l31 -38 -58 -6 c-75 -6 -138 -35 -195 -87 -49 -45 -96 -128 -96
-169 0 -21 -2 -23 -10 -11 -46 71 50 254 164 312 95 48 124 48 164 -1z m2392
-36 c-30 -32 -36 -26 -13 13 11 20 21 28 27 22 6 -6 1 -19 -14 -35z m-1555 6
c-3 -12 -13 -21 -21 -21 -18 0 -18 9 3 32 20 22 27 17 18 -11z m869 -31 c-20
-27 -40 -50 -44 -50 -10 0 -50 49 -50 61 0 4 17 11 38 14 20 4 48 10 62 15 14
5 26 9 27 9 2 1 -13 -21 -33 -49z m-831 23 c9 -9 -12 -33 -29 -33 -12 0 -12 4
-2 20 14 21 21 24 31 13z m-737 -70 c74 -40 83 -50 91 -96 5 -35 -37 -164 -75
-229 -20 -33 -23 -34 -40 -7 -11 18 -10 23 13 41 33 25 55 69 54 105 -1 28 -1
28 -13 -6 -6 -18 -27 -51 -45 -72 l-33 -39 -29 24 c-16 14 -44 30 -63 37 -26
9 -32 17 -29 33 4 20 3 20 -13 -1 -9 -13 -26 -23 -38 -23 -12 0 -64 -13 -115
-29 -107 -34 -110 -32 -92 56 19 98 73 168 163 214 92 47 169 45 264 -8z m671
22 l21 -14 -23 -63 c-14 -36 -29 -63 -37 -62 -7 1 -29 4 -48 8 -38 7 -24 -3
34 -24 19 -7 26 -15 22 -26 -3 -9 -6 -24 -6 -35 0 -18 -2 -19 -30 -4 -53 27
-112 30 -163 7 -26 -12 -47 -17 -47 -12 0 20 41 137 56 158 9 13 34 37 57 53
32 23 50 29 91 29 29 0 61 -6 73 -15z m802 -26 c17 -28 18 -69 2 -69 -4 0 -16
-7 -27 -16 -18 -15 -18 -15 4 -9 21 6 22 4 22 -59 0 -35 2 -70 5 -78 3 -9 -24
-23 -90 -45 -52 -17 -95 -28 -95 -24 0 5 18 29 41 55 31 35 50 47 80 52 30 5
37 10 29 19 -6 7 -20 11 -30 8 -24 -7 -25 -12 5 72 13 39 25 82 25 98 0 35 6
34 29 -4z m-586 -9 c-3 -11 -7 -20 -9 -20 -2 0 -4 9 -4 20 0 11 4 20 9 20 5 0
7 -9 4 -20z m24 -2 c-3 -8 -6 -5 -6 6 -1 11 2 17 5 13 3 -3 4 -12 1 -19z
m-597 -8 c0 -5 -10 -15 -22 -21 -21 -11 -38 -15 -85 -18 -12 0 -35 -12 -51
-26 l-30 -25 -9 39 -10 39 71 0 c39 0 82 4 96 10 32 14 40 14 40 2z m469 -40
c138 -75 210 -159 236 -271 20 -89 12 -157 -19 -169 -28 -10 -36 -4 -37 28 0
22 -2 24 -8 8 -7 -18 -9 -17 -28 8 l-22 27 21 45 c24 55 18 67 -10 23 l-20
-33 5 85 c7 105 -5 100 -15 -7 l-7 -79 -66 110 c-36 61 -70 121 -77 135 -10
23 -11 23 -11 4 -1 -12 12 -48 29 -80 16 -32 27 -60 25 -62 -2 -2 -17 4 -34
13 -19 9 -31 11 -31 5 0 -6 20 -20 45 -31 30 -13 55 -35 76 -65 17 -25 29 -47
27 -49 -10 -9 -124 37 -149 61 -16 15 -29 23 -29 17 0 -26 71 -72 137 -89 63
-16 72 -21 92 -56 16 -28 18 -38 8 -38 -13 0 -98 27 -142 45 -18 8 -18 7 -7
-8 18 -21 114 -57 152 -57 17 0 30 -3 30 -7 -1 -10 -140 -160 -140 -151 0 4
19 31 43 60 68 84 72 101 10 45 -30 -27 -64 -16 -117 37 -63 63 -81 122 -81
271 0 82 6 143 19 193 10 39 19 72 21 72 1 0 35 -18 74 -40z m115 -16 c3 -8 2
-12 -4 -9 -6 3 -10 10 -10 16 0 14 7 11 14 -7z m634 -40 c4 -79 74 -181 157
-230 41 -23 45 -24 78 -10 l35 14 43 -44 c24 -24 61 -53 84 -64 34 -17 36 -20
15 -20 -14 0 -45 9 -69 20 -50 23 -55 24 -45 9 12 -20 89 -49 134 -49 34 -1
40 -3 25 -10 -60 -26 -146 -1 -224 64 -57 48 -75 57 -136 71 -43 10 -54 17
-77 56 -41 66 -57 186 -31 232 7 12 8 9 11 -39z m-1247 13 c30 -22 52 -90 58
-179 l6 -87 -26 25 c-15 14 -35 40 -45 59 -17 32 -17 34 1 62 18 28 18 28 -1
11 -19 -16 -20 -15 -37 44 -21 72 -34 71 -18 -2 6 -28 11 -62 11 -76 l0 -25
-27 20 c-40 33 -41 15 -1 -27 20 -20 40 -50 44 -66 7 -28 6 -29 -25 -23 -19 4
-30 3 -26 -3 3 -5 21 -12 40 -16 18 -3 36 -13 39 -21 5 -12 -1 -14 -35 -8 -29
5 -39 4 -35 -4 4 -6 29 -13 57 -17 78 -10 116 -73 44 -74 -11 0 -36 9 -55 20
l-35 21 30 -26 c17 -14 25 -25 18 -25 -13 0 -117 84 -144 116 -9 10 -19 28
-23 39 -5 15 1 12 26 -12 19 -18 37 -33 41 -33 4 0 -6 12 -23 28 -17 15 -37
45 -45 67 l-14 40 -1 -60 0 -60 81 -75 c80 -76 80 -76 59 -95 -11 -10 -22 -16
-23 -14 -2 2 -14 20 -27 39 -13 19 -43 56 -67 82 -37 41 -43 53 -43 92 0 59
36 173 67 215 28 36 95 71 121 64 10 -2 24 -10 33 -16z m-806 -75 c25 -18 75
-112 60 -112 -1 0 -28 11 -59 25 -70 31 -109 32 -136 3 -27 -29 -53 -120 -48
-165 4 -31 3 -33 -9 -17 -16 22 -17 102 -2 141 29 78 151 157 194 125z m1121
-47 c27 -17 33 -40 8 -31 -39 15 -64 18 -64 7 0 -6 7 -11 15 -11 28 0 65 -24
65 -42 0 -23 -7 -23 -64 3 -26 11 -55 18 -64 16 -11 -2 4 -13 41 -31 l58 -26
-53 -59 c-50 -56 -54 -58 -78 -46 -52 27 -90 95 -90 160 0 33 4 38 53 61 58
28 130 28 173 -1z m-743 -49 c29 -12 97 -72 97 -85 0 -3 -26 -7 -58 -8 -55 -2
-59 0 -70 25 l-11 27 6 -27 c4 -23 -1 -30 -29 -48 -18 -11 -35 -20 -38 -20 -3
0 -14 16 -24 35 -25 46 -33 37 -12 -15 14 -35 14 -41 2 -46 -27 -10 -50 1 -73
35 -25 37 -31 22 -8 -19 24 -41 19 -53 -17 -44 -57 12 -96 36 -109 66 -6 16
-14 27 -16 24 -3 -2 1 -15 8 -28 12 -22 11 -22 -7 -8 -10 8 -29 23 -41 34 -13
11 -23 15 -23 9 0 -6 19 -28 42 -49 23 -21 38 -39 33 -41 -6 -2 -28 -12 -50
-22 l-40 -19 50 -21 c28 -12 59 -26 70 -31 15 -6 4 -9 -40 -11 -33 -1 -49 -3
-35 -6 96 -14 90 -11 78 -41 -18 -43 -24 -45 -61 -27 -49 23 -106 81 -128 129
-24 54 -24 139 1 194 23 50 35 52 116 16 68 -30 94 -29 219 10 93 29 123 31
168 12z m1637 1 c0 -7 12 -30 26 -50 14 -21 24 -40 22 -42 -14 -14 -210 -95
-229 -95 -23 1 -59 21 -59 33 0 3 19 3 42 0 51 -7 45 12 -7 21 -39 8 -40 10
-21 46 10 18 40 35 108 62 103 41 118 44 118 25z m-1094 -163 c75 -48 93 -74
51 -74 -52 0 -123 64 -168 152 -28 54 -23 58 12 10 16 -23 63 -62 105 -88z
m238 44 c6 -27 3 -36 -15 -48 -12 -8 -40 -32 -61 -54 -43 -41 -67 -39 -49 5
11 27 98 129 111 129 4 0 10 -15 14 -32z m-604 6 c0 -8 -5 -12 -10 -9 -6 4 -8
11 -5 16 9 14 15 11 15 -7z m2251 -80 c-46 -90 -87 -138 -125 -148 -33 -8 -33
-2 5 87 29 67 36 75 93 109 33 20 62 35 64 33 2 -2 -15 -38 -37 -81z m-2247
27 c104 -81 148 -180 126 -286 -45 -218 -429 -304 -559 -125 -77 107 -62 224
44 336 41 43 44 45 25 14 -41 -67 -53 -106 -57 -185 -4 -74 -3 -83 23 -121 90
-137 277 -137 403 2 92 100 95 215 8 291 -81 71 -202 69 -280 -5 -41 -39 -57
-74 -57 -127 0 -136 134 -217 233 -142 99 76 101 214 4 260 -50 24 -82 21 -36
-3 51 -27 89 -75 89 -112 0 -71 -70 -148 -135 -148 -67 0 -135 72 -135 143 0
94 78 167 179 167 134 0 216 -122 163 -242 -43 -98 -141 -162 -247 -162 -75 0
-128 24 -166 77 -52 72 -37 201 36 296 63 82 145 124 232 118 43 -3 61 -11
107 -46z m1644 20 c45 -23 87 -66 101 -104 20 -53 13 -148 -14 -204 -36 -71
-58 -89 -91 -74 l-26 12 26 20 c14 11 31 38 37 59 10 33 9 47 -5 84 -24 64
-66 96 -123 96 -38 0 -50 -5 -80 -35 -20 -20 -45 -35 -58 -35 -13 0 -36 -5
-51 -10 -15 -6 -29 -9 -31 -6 -17 17 96 163 152 197 40 25 115 25 163 0z
m-426 -87 c-17 -13 -39 -48 -53 -84 -28 -71 -44 -84 -96 -74 l-38 7 40 14 c37
13 90 52 81 60 -2 3 -23 -5 -47 -17 -78 -40 -154 -20 -147 39 5 40 82 50 177
24 18 -4 22 -3 19 8 -3 8 4 31 15 51 l20 36 29 -21 28 -21 -28 -22z m153 14
c-25 -29 -58 -79 -73 -110 -15 -31 -29 -57 -32 -57 -3 -1 -17 19 -32 44 -37
60 -26 86 45 108 29 10 70 28 92 41 22 13 41 25 43 25 2 1 -17 -23 -43 -51z
m-1822 14 l38 -17 -25 -24 -25 -23 -67 22 -67 23 37 12 c21 7 40 16 43 19 9 9
24 6 66 -12z m1088 -31 l17 -39 -46 -45 -47 -46 -22 34 c-27 41 -28 53 -7 84
17 24 75 63 83 56 2 -3 12 -22 22 -44z m1479 28 c0 -5 -15 -16 -34 -24 -18 -8
-47 -26 -64 -40 -18 -15 -37 -23 -46 -19 -11 4 -16 0 -16 -12 0 -11 -14 -36
-29 -57 -27 -35 -30 -37 -40 -20 -8 15 -4 23 22 45 24 21 28 28 15 28 -10 0
-27 -9 -37 -19 -19 -19 -20 -19 -35 20 -9 22 -16 41 -16 42 0 2 13 2 30 -1 39
-6 124 15 180 44 50 25 70 29 70 13z m-2754 -138 c21 -19 57 -42 80 -52 36
-17 42 -24 46 -56 3 -21 4 -39 3 -41 -2 -2 -27 1 -56 6 -51 10 -69 9 -57 -3 3
-3 32 -10 65 -16 49 -9 63 -15 72 -35 6 -14 11 -27 11 -28 0 -2 -19 0 -41 5
-36 8 -45 7 -63 -10 -12 -12 -36 -24 -53 -27 -67 -13 -48 -65 31 -88 62 -18
90 -42 60 -52 -76 -24 -83 -38 -12 -22 27 6 50 9 52 7 2 -2 -1 -28 -7 -57 -12
-58 -14 -59 -86 -36 -18 5 -23 4 -19 -7 2 -8 24 -19 48 -25 40 -10 45 -14 52
-48 9 -44 33 -93 60 -122 14 -15 17 -29 12 -48 -3 -15 -11 -25 -18 -24 -6 2
-29 40 -52 83 -28 56 -51 87 -75 102 -74 47 -79 55 -79 142 0 73 -1 79 -19 74
-26 -7 -44 27 -32 59 5 13 12 51 16 84 6 54 4 67 -19 110 -32 61 -44 156 -26
209 l12 38 28 -44 c15 -25 45 -60 66 -78z m2470 16 c33 -74 41 -146 24 -217
-14 -58 -5 -55 -109 -26 -30 9 -56 17 -58 20 -2 2 10 19 26 37 50 54 79 165
63 237 -10 41 -9 43 8 27 10 -9 30 -44 46 -78z m-1414 63 c44 -13 89 -62 113
-124 14 -37 16 -61 10 -131 -4 -47 -9 -85 -11 -85 -3 0 -27 18 -55 40 -55 43
-129 70 -195 70 -35 0 -43 4 -48 23 -12 45 -7 106 10 115 20 11 1 27 -21 18
-12 -4 -15 -25 -15 -86 0 -64 -3 -80 -15 -80 -20 0 -29 41 -21 103 13 117 115
173 248 137z m1659 -9 c-6 -10 -17 -63 -25 -117 -8 -54 -22 -117 -31 -139 -18
-42 -80 -125 -94 -125 -12 0 -7 30 12 72 17 37 24 84 9 62 -4 -6 -18 -17 -31
-24 l-24 -12 6 50 c3 28 15 68 26 89 23 43 84 116 77 93 -9 -32 -15 -145 -6
-125 5 11 9 44 9 74 1 48 5 57 37 87 40 38 49 42 35 15z m-496 -5 c57 -24 91
-103 69 -160 -4 -9 -32 -33 -63 -53 -31 -20 -64 -44 -75 -52 -14 -12 -42 -16
-122 -16 l-105 0 7 40 c8 51 18 68 50 94 31 25 77 27 118 6 32 -17 66 -20 66
-5 0 5 -19 19 -42 31 -54 28 -127 23 -163 -11 -17 -16 -25 -19 -24 -9 1 24 13
44 29 48 76 19 94 20 136 11 25 -6 60 -18 76 -26 23 -12 29 -13 26 -2 -5 14
-35 32 -82 48 -25 9 -26 12 -15 27 11 13 61 40 77 43 1 0 18 -6 37 -14z m-845
-47 c27 -17 50 -34 50 -38 0 -21 -35 -48 -91 -71 -85 -34 -90 -55 -7 -29 35
10 66 19 71 19 8 0 -84 -120 -108 -140 -21 -18 -19 -33 4 -21 23 13 98 91 192
201 40 47 75 86 79 88 4 1 12 -9 18 -22 17 -38 96 -79 153 -80 l49 -1 6 -41
c12 -85 -35 -170 -116 -205 -16 -8 -30 -17 -30 -21 0 -14 15 -9 70 25 66 39
100 97 99 166 0 25 -4 55 -8 66 -8 19 17 95 31 95 13 0 59 -88 65 -123 11 -69
-43 -174 -104 -205 -21 -11 -62 -25 -91 -32 -28 -6 -55 -16 -58 -21 -9 -16
-112 -10 -163 10 -27 10 -65 31 -85 46 -23 18 -34 22 -30 12 15 -39 117 -96
176 -98 27 -1 24 -3 -18 -11 -177 -35 -360 175 -304 348 10 31 81 114 97 114
1 0 25 -14 53 -31z m1771 -38 c27 -34 24 -75 -8 -106 -36 -33 -47 -32 -72 8
-11 18 -30 42 -42 53 l-21 19 43 6 c43 5 43 5 14 13 -16 4 -41 10 -55 12 -23
5 -21 7 20 28 43 22 47 22 74 7 15 -9 37 -27 47 -40z m-210 -29 c67 -35 114
-95 130 -165 50 -226 -224 -365 -388 -197 -17 18 -37 45 -43 61 -11 25 -8 34
24 86 20 32 44 92 55 133 18 71 21 76 57 92 56 25 104 22 165 -10z m-1896
-166 c68 -32 179 -141 206 -202 15 -36 22 -74 24 -144 3 -104 -12 -149 -72
-220 -52 -62 -194 -110 -328 -110 -72 0 -149 33 -191 83 -68 80 -104 216 -84
312 23 109 110 243 182 281 75 39 179 39 263 0z m197 -71 c14 -27 38 -61 52
-74 31 -29 32 -37 6 -51 -16 -9 -19 -8 -13 6 5 13 3 15 -8 9 -8 -4 -11 -5 -7
0 7 8 -43 79 -71 101 -9 7 -11 16 -6 25 5 7 8 29 8 49 -1 29 0 31 5 10 4 -14
19 -47 34 -75z m1037 65 c21 -10 68 -26 103 -35 86 -22 136 -51 173 -102 89
-123 95 -133 82 -133 -30 0 -129 41 -193 79 l-68 41 55 1 c42 1 48 3 29 9 -14
4 -47 8 -73 9 -31 1 -46 5 -42 12 4 6 1 10 -6 8 -30 -4 -50 2 -67 19 -10 10
-39 33 -65 52 -44 31 -47 35 -31 47 25 18 59 16 103 -7z m275 -33 c-18 -38
-39 -41 -28 -4 6 22 34 50 41 43 2 -2 -4 -20 -13 -39z m-2371 -6 c8 -8 5 -15
-9 -25 -10 -8 -16 -18 -11 -22 4 -4 13 -2 19 4 7 7 20 12 30 12 15 0 12 -9
-18 -50 -20 -27 -38 -50 -40 -50 -2 0 -19 15 -38 34 -20 21 -49 37 -70 41 -20
4 -36 11 -36 15 0 5 19 20 43 34 44 26 107 30 130 7z m1962 -4 c119 -46 144
-107 74 -177 -38 -37 -92 -66 -149 -79 -32 -7 -56 -5 -108 10 -85 24 -151 24
-210 0 -26 -11 -67 -22 -92 -26 l-44 -6 44 30 c29 19 48 27 54 21 13 -13 46
-13 46 0 0 6 -6 10 -14 10 -40 0 -14 62 38 90 25 13 29 12 71 -30 25 -24 47
-41 50 -39 2 3 -11 21 -30 39 -19 19 -35 38 -35 42 0 4 19 8 43 8 40 0 85 -21
167 -77 l25 -17 -25 28 c-14 16 -45 42 -69 57 l-45 29 115 1 c116 0 124 10 19
23 -34 4 -87 1 -140 -8 -46 -8 -86 -14 -88 -12 -2 2 34 18 80 35 46 18 92 36
103 41 41 18 -19 11 -80 -10 -32 -11 -60 -19 -61 -17 -5 5 11 24 31 35 26 15
191 14 230 -1z m-1845 -108 c-55 -34 -34 -93 35 -102 22 -3 32 -3 22 0 -17 4
-16 7 4 39 20 34 20 36 4 54 -17 19 -17 20 6 20 13 0 29 -8 36 -19 16 -25 82
-33 106 -13 10 9 17 11 17 4 0 -7 -9 -17 -20 -24 -11 -7 -20 -16 -20 -20 0
-15 27 -8 45 12 10 11 24 20 31 20 8 0 11 6 8 15 -4 8 -10 13 -14 10 -5 -3
-12 0 -15 6 -4 5 -14 8 -22 5 -8 -3 -11 -1 -8 4 9 14 38 12 59 -3 14 -10 17
-21 12 -45 -6 -24 -14 -32 -39 -38 -50 -10 -59 -21 -43 -53 8 -14 24 -34 35
-43 13 -11 21 -30 21 -50 0 -18 4 -48 9 -66 9 -29 7 -34 -23 -57 -17 -13 -58
-31 -90 -39 -199 -52 -351 148 -260 344 39 85 47 91 95 72 l39 -15 -30 -18z
m320 47 c0 -3 -4 -8 -10 -11 -5 -3 -10 -1 -10 4 0 6 5 11 10 11 6 0 10 -2 10
-4z m1990 -40 c0 -5 -7 -3 -15 4 -8 7 -12 17 -9 22 7 10 24 -9 24 -26z m-2160
-11 c0 -8 -4 -15 -10 -15 -5 0 -10 7 -10 15 0 8 5 15 10 15 6 0 10 -7 10 -15z
m50 11 c0 -3 -4 -8 -10 -11 -5 -3 -10 -1 -10 4 0 6 5 11 10 11 6 0 10 -2 10
-4z m1814 -2 c9 -3 16 -13 16 -22 0 -9 8 -36 17 -60 16 -44 16 -44 -8 -63 -31
-24 -44 -24 -79 3 -36 26 -36 29 -6 65 14 16 28 41 31 56 8 30 7 29 29 21z
m-1957 -40 c2 -6 -10 -8 -32 -6 -19 2 -32 8 -29 14 8 12 56 6 61 -8z m1326
-43 c-79 -76 -150 -104 -244 -99 -37 2 -74 10 -83 17 -23 19 -14 24 20 11 15
-6 40 -8 54 -4 23 6 22 7 -14 16 -55 12 -74 31 -68 69 3 23 8 29 21 23 99 -42
138 -43 251 -4 128 44 136 40 63 -29z m762 10 c52 -27 118 -54 145 -61 28 -7
50 -15 50 -19 0 -4 -11 -14 -25 -21 -22 -12 -30 -11 -62 4 -50 24 -112 44
-147 48 -23 2 -31 11 -46 51 -10 26 -16 47 -14 47 2 0 47 -22 99 -49z m201 22
c16 -21 18 -37 4 -28 -13 8 -33 45 -24 45 4 0 13 -8 20 -17z m-1324 -57 c-4
-52 -3 -56 25 -73 l30 -18 -34 -22 -33 -22 0 88 c0 73 4 101 15 101 1 0 0 -24
-3 -54z m-992 34 c12 -8 11 -10 -7 -10 -13 0 -23 5 -23 10 0 13 11 13 30 0z
m230 -45 c0 -8 -4 -15 -9 -15 -5 0 -14 7 -21 15 -10 13 -9 15 9 15 12 0 21 -6
21 -15z m2146 -83 c1 -42 6 -88 12 -102 9 -20 10 -8 6 55 l-5 80 41 -44 c28
-30 46 -63 58 -103 19 -66 37 -78 27 -18 -4 22 -4 40 -1 40 3 0 17 -21 30 -47
14 -27 25 -40 26 -31 0 29 -33 88 -49 88 -9 0 -26 17 -38 38 -12 20 -32 52
-44 71 l-23 33 25 -7 c13 -5 49 -11 79 -14 49 -5 57 -10 82 -46 38 -54 56
-150 37 -191 -13 -26 -20 -29 -69 -32 -100 -6 -165 28 -213 111 -42 71 -49
113 -26 150 10 18 19 41 19 52 0 15 3 16 12 7 7 -7 13 -44 14 -90z m269 47
c-16 -30 -17 -30 -36 -13 -19 17 -19 18 8 30 42 19 45 17 28 -17z m-733 -7
c16 -10 44 -37 64 -60 20 -24 51 -49 70 -57 46 -19 43 -35 -6 -35 -34 0 -41 4
-46 25 -6 26 -101 121 -111 111 -3 -3 13 -26 36 -51 54 -58 70 -93 50 -106
-27 -17 -44 -8 -62 31 -10 22 -23 40 -28 40 -14 0 -11 -16 12 -55 l21 -36 -38
-33 -39 -34 -6 31 c-3 22 1 43 13 64 22 37 7 55 -17 21 -16 -22 -16 -20 -10
37 5 43 3 56 -4 45 -6 -8 -11 -26 -11 -39 0 -21 -4 -18 -31 23 -16 27 -29 49
-27 50 11 8 116 45 128 45 8 1 27 -7 42 -17z m228 -12 c16 -16 20 -33 20 -80
0 -33 0 -63 0 -67 1 -5 -7 -9 -17 -11 -12 -1 -23 9 -33 30 -11 25 -22 34 -45
36 -32 4 -75 37 -75 59 0 20 61 53 98 53 19 0 40 -8 52 -20z m-513 -10 c31
-11 70 -32 86 -47 122 -116 91 -349 -56 -425 -25 -12 -68 -23 -107 -25 -57 -4
-72 -1 -119 24 -93 49 -161 177 -146 277 6 36 10 43 24 38 14 -5 14 -3 3 11
-12 14 -11 21 6 49 65 105 183 142 309 98z m623 -59 c0 -43 -8 -56 -37 -65
-22 -7 -23 -5 -23 41 0 26 -3 58 -6 71 l-7 23 37 -17 c31 -16 36 -22 36 -53z
m-929 36 c-18 -22 -115 -39 -179 -31 -42 5 -52 9 -37 15 27 10 131 26 184 28
35 1 41 -2 32 -12z m1012 -130 c35 -60 89 -105 142 -119 37 -10 42 -14 34 -30
-5 -9 -27 -23 -48 -29 -30 -9 -41 -18 -46 -38 -14 -63 -27 -80 -71 -97 -36
-14 -51 -28 -85 -81 -44 -70 -93 -102 -158 -103 l-34 0 29 23 c17 13 43 22 64
22 l35 0 0 97 c0 53 2 98 5 101 3 2 22 7 43 10 l38 6 -21 -29 c-11 -15 -20
-31 -20 -35 0 -11 128 106 135 124 4 9 -6 4 -22 -12 -24 -22 -38 -27 -82 -27
-44 0 -52 3 -47 16 3 9 6 23 6 32 0 12 4 11 23 -6 28 -26 45 -27 75 -6 25 17
29 46 8 64 -13 10 -15 7 -13 -17 2 -22 -3 -29 -19 -31 -28 -4 -67 44 -60 73 4
11 14 64 23 119 l16 99 13 -41 c6 -23 23 -61 37 -85z m-1261 55 c-40 -55 -56
-87 -92 -180 -22 -57 -40 -114 -40 -127 0 -13 -5 -27 -11 -30 -7 -5 -9 27 -6
103 5 112 20 161 72 235 24 35 57 49 75 31 12 -12 12 -18 2 -32z m202 -2 c-3
-8 -10 -27 -16 -42 l-10 -27 -48 30 c-80 49 -80 55 5 55 63 -1 74 -3 69 -16z
m-174 -27 c0 -38 -60 -143 -82 -143 -10 0 24 91 47 126 15 23 35 33 35 17z
m80 -40 c0 -1 -22 -14 -49 -27 l-49 -25 21 48 20 49 29 -21 c15 -11 28 -22 28
-24z m1050 -20 l0 -36 -25 23 c-19 18 -22 26 -14 37 22 25 39 15 39 -24z
m-101 2 c66 -34 98 -105 70 -156 -10 -19 -11 -19 -40 6 -19 15 -43 25 -62 25
-18 0 -45 9 -62 20 -39 26 -116 26 -173 0 -38 -17 -41 -17 -33 -2 17 31 68 73
118 98 56 27 139 32 182 9z m-1874 -14 c-6 -5 -45 -36 -87 -70 -43 -33 -85
-72 -94 -86 l-17 -25 -43 25 c-24 14 -44 21 -44 15 0 -6 16 -18 35 -27 31 -15
33 -18 17 -29 -9 -7 -14 -16 -10 -20 9 -9 55 21 84 56 13 15 59 54 102 88 l79
61 26 -36 c27 -38 27 -53 0 -53 -24 0 -113 -52 -124 -73 -9 -15 -4 -14 28 7
21 13 64 32 95 41 54 15 59 15 82 -2 14 -10 26 -24 26 -30 0 -18 -46 -39 -121
-57 -35 -8 -93 -27 -129 -41 -36 -14 -82 -30 -103 -34 -121 -28 -204 90 -163
232 l16 54 47 -24 c66 -34 177 -29 244 9 45 27 71 36 54 19z m991 -76 c14 -41
-138 -135 -232 -143 -49 -4 -53 -3 -51 17 1 11 5 21 9 21 4 0 8 9 8 19 0 21
46 81 61 81 5 0 7 -19 4 -42 l-5 -43 18 52 c9 29 25 60 35 70 16 16 17 15 18
-37 l2 -55 10 62 c8 54 13 63 36 71 22 8 30 5 53 -22 15 -17 30 -40 34 -51z
m-6 64 c0 -6 -4 -7 -10 -4 -5 3 -10 11 -10 16 0 6 5 7 10 4 6 -3 10 -11 10
-16z m-347 -115 c4 -34 2 -58 -7 -69 -12 -16 -14 -16 -45 0 -47 24 -50 12 -7
-28 30 -29 36 -41 36 -76 0 -51 -30 -95 -82 -122 -41 -21 -118 -25 -150 -8
-48 26 -63 141 -28 215 20 40 24 43 90 58 70 15 163 56 175 76 10 16 11 11 18
-46z m1116 21 c39 -19 46 -41 91 -260 5 -24 -2 -34 -31 -44 -43 -15 -76 -14
-137 4 -165 49 -205 227 -67 291 58 27 104 30 144 9z m-718 -75 l25 -45 -56 3
c-30 2 -61 9 -67 14 -10 8 -13 6 -13 -5 0 -9 8 -18 18 -20 10 -3 4 -5 -13 -6
-22 -1 -26 -4 -15 -10 8 -5 42 -5 74 -1 55 6 63 4 107 -24 26 -17 48 -38 48
-46 1 -32 -48 -119 -84 -145 -46 -36 -126 -45 -172 -21 -45 23 -73 87 -73 169
l0 67 68 34 c37 19 81 46 97 60 17 13 30 23 31 23 0 -1 12 -22 25 -47z m848
14 c25 -32 26 -65 5 -129 -12 -32 -19 -43 -24 -34 -11 19 -14 100 -5 121 3 9
2 25 -4 35 -9 15 -10 13 -6 -12 7 -33 -7 -17 -19 23 -10 32 27 30 53 -4z
m-1644 -13 c2 -4 -9 -33 -25 -64 -16 -32 -32 -78 -36 -102 -5 -33 -11 -46 -28
-51 -11 -4 -34 -15 -49 -26 -60 -43 -136 11 -162 114 -6 24 -3 29 30 42 55 23
62 21 57 -19 -6 -49 16 -45 24 4 5 33 11 40 42 49 20 6 37 10 39 9 1 -2 -2
-19 -7 -38 -17 -60 -9 -76 10 -21 29 82 57 121 80 115 11 -3 22 -9 25 -12z
m98 -33 c-23 -44 -23 -142 0 -186 28 -51 72 -74 131 -68 87 9 155 73 171 159
6 28 12 37 28 37 18 0 19 -5 14 -55 -11 -105 -75 -179 -184 -211 -64 -19 -69
-28 -10 -19 127 22 217 126 217 252 0 37 3 44 18 41 50 -9 2 -230 -63 -286
-46 -41 -90 -52 -208 -52 -138 0 -191 25 -228 105 -33 71 -19 177 35 268 24
42 31 47 62 47 l35 0 -18 -32z m297 -23 c0 -8 -2 -15 -4 -15 -2 0 -6 7 -10 15
-3 8 -1 15 4 15 6 0 10 -7 10 -15z m152 -69 c-10 -126 64 -226 168 -226 81 0
177 79 202 165 6 22 12 41 12 42 1 1 26 -4 56 -11 54 -12 55 -13 58 -50 4 -44
-30 -120 -63 -142 -12 -8 -36 -18 -52 -23 l-29 -9 19 39 c28 57 15 70 -16 17
-37 -64 -97 -92 -192 -92 -80 0 -111 13 -167 70 -42 41 -46 60 -22 106 12 24
15 49 12 100 -4 49 -2 68 7 68 8 0 10 -16 7 -54z m776 -78 c59 -56 74 -84 40
-74 -13 4 -32 9 -42 11 -11 3 -29 14 -41 25 -12 11 -26 20 -33 20 -6 0 -25 20
-42 44 -40 59 -20 76 24 20 17 -21 45 -53 61 -69 17 -17 20 -19 9 -5 -12 14
-36 45 -53 69 -29 42 -30 45 -14 63 16 18 17 17 29 -19 7 -21 35 -59 62 -85z
m-1647 37 l9 -29 -30 29 c-16 16 -30 32 -30 36 0 12 35 16 38 4 2 -5 8 -23 13
-40z m1502 -25 c22 -39 26 -54 18 -64 -13 -15 -69 -41 -75 -35 -2 2 -6 34 -8
71 -6 68 -6 68 32 77 3 0 18 -22 33 -49z m-91 -37 c-2 -91 -50 -165 -134 -207
-42 -21 -65 -26 -122 -25 -39 1 -84 5 -101 9 -30 7 -30 7 -5 13 14 3 43 9 65
12 21 4 52 13 67 21 15 8 39 14 53 14 81 0 143 69 152 170 7 73 27 67 25 -7z
m588 45 c0 -16 -3 -19 -11 -11 -6 6 -8 16 -5 22 11 17 16 13 16 -11z m-1736
-129 c-2 -3 -22 -9 -45 -12 -23 -3 -47 -11 -53 -17 -8 -10 2 -11 48 -5 57 7
59 6 90 -28 l32 -35 -46 -5 c-25 -3 -73 -2 -107 2 -89 10 -115 39 -97 107 5
19 10 21 39 13 29 -8 40 -5 82 21 l48 31 7 -33 c3 -18 5 -35 2 -39z m1375 4
c44 -40 53 -55 58 -91 10 -75 -47 -112 -173 -112 -54 0 -64 -3 -78 -25 -27
-41 -49 -47 -108 -30 -86 25 -153 75 -100 75 25 0 118 56 135 81 15 21 16 21
37 -17 l21 -39 -6 36 -5 37 67 -4 c84 -5 72 3 -21 13 l-68 8 18 23 c21 25 39
27 149 18 47 -4 63 -3 50 3 -11 5 -33 10 -50 10 -52 2 -60 16 -23 39 18 12 36
22 39 22 3 0 29 -21 58 -47z m209 21 c2 -1 -8 -10 -22 -19 -31 -21 -113 -34
-102 -16 4 6 13 8 19 5 7 -4 9 -4 5 0 -3 4 1 16 10 27 13 15 24 18 52 13 19
-4 37 -8 38 -10z m-984 -103 c7 -11 -37 -41 -61 -41 -14 0 -11 6 12 25 33 27
41 29 49 16z m-84 -36 c16 -19 59 -19 86 -1 16 12 24 12 43 1 15 -8 20 -15 12
-19 -6 -4 -11 -14 -11 -23 0 -14 2 -14 19 1 19 17 23 17 70 1 28 -9 51 -19 51
-21 0 -13 -73 -34 -98 -28 -51 11 -85 12 -110 3 -20 -8 -38 -3 -88 20 -35 17
-64 36 -63 43 0 10 2 10 6 1 3 -10 10 -10 24 -2 11 5 17 14 14 19 -3 4 1 11 7
13 21 9 25 8 38 -8z m-129 -49 c10 -13 39 -32 64 -42 25 -11 45 -22 45 -25 0
-11 -42 -19 -98 -19 -58 0 -103 18 -126 52 -30 43 -25 47 78 56 10 1 27 -9 37
-22z m518 -25 c33 -21 -51 -93 -132 -111 -56 -12 -118 -4 -169 22 -48 23 -48
30 0 22 56 -9 151 12 202 45 47 30 75 37 99 22z m-266 -28 c-7 -2 -21 -2 -30
0 -10 3 -4 5 12 5 17 0 24 -2 18 -5z m337 -32 c30 -18 31 -19 8 -25 -13 -3
-38 -6 -57 -6 l-34 0 23 25 c28 30 23 29 60 6z"/>
<path d="M2243 3833 c-9 -24 44 -68 63 -52 19 16 18 33 -4 52 -24 22 -51 22
-59 0z m62 -33 c12 -19 -12 -10 -31 11 -19 22 -19 22 3 10 12 -6 25 -16 28
-21z"/>
<path d="M3415 3810 c-3 -5 -2 -10 4 -10 5 0 13 5 16 10 3 6 2 10 -4 10 -5 0
-13 -4 -16 -10z"/>
<path d="M2477 3739 c-20 -12 -52 -69 -38 -69 9 0 34 31 55 68 9 14 7 15 -17
1z"/>
<path d="M1395 3492 c3 -3 1 -10 -5 -16 -5 -7 -6 -17 -2 -24 5 -7 12 -2 18 17
9 22 8 28 -2 28 -8 0 -12 -3 -9 -5z"/>
<path d="M2572 3397 c-12 -13 -22 -27 -22 -33 0 -5 9 2 20 16 16 20 20 22 20
8 0 -10 5 -18 10 -18 6 0 10 11 10 25 0 31 -10 32 -38 2z"/>
<path d="M2642 3398 c-7 -7 -12 -19 -12 -27 0 -11 5 -8 16 7 18 25 15 39 -4
20z"/>
<path d="M2511 3366 c-6 -16 -10 -34 -8 -40 6 -17 29 33 24 52 -3 13 -7 10
-16 -12z"/>
<path d="M3208 3409 c-43 -27 -78 -52 -78 -54 0 -13 104 39 129 64 13 13 23
16 32 10 11 -8 11 -11 -3 -20 -41 -23 -11 -53 42 -42 44 8 37 26 -7 19 -37 -6
-38 -6 -13 8 14 9 19 15 11 16 -8 0 -4 8 10 19 13 11 21 23 16 27 -4 4 -15 0
-24 -9 -14 -14 -18 -14 -27 -2 -9 12 -24 6 -88 -36z"/>
<path d="M3820 3550 c0 -5 5 -10 10 -10 6 0 10 5 10 10 0 6 -4 10 -10 10 -5 0
-10 -4 -10 -10z"/>
<path d="M1780 3488 c0 -18 47 -64 57 -55 3 4 -2 17 -13 28 l-19 22 28 -18
c15 -9 27 -13 27 -7 0 14 -21 29 -53 37 -20 5 -27 3 -27 -7z"/>
<path d="M1744 3416 c23 -18 42 -20 51 -6 3 6 0 10 -7 10 -7 0 -24 3 -38 6
-24 5 -24 5 -6 -10z"/>
<path d="M1715 3400 c10 -11 37 -26 59 -32 l41 -13 -48 -3 c-26 -2 -45 -7 -42
-13 9 -14 81 -11 94 5 14 16 15 16 -63 50 -54 24 -58 24 -41 6z"/>
<path d="M1760 3290 c-12 -7 -8 -10 15 -10 17 0 37 5 45 10 12 7 8 10 -15 10
-16 0 -37 -5 -45 -10z"/>
<path d="M1719 3231 c28 -25 113 -32 134 -12 4 4 -18 8 -50 8 -32 0 -69 5 -83
12 l-25 12 24 -20z"/>
<path d="M2879 3250 c-31 -58 -126 -157 -138 -144 -3 3 -9 31 -12 62 l-6 57
-1 -70 c-1 -38 2 -76 6 -83 13 -20 134 103 167 171 38 78 25 84 -16 7z"/>
<path d="M2796 3215 c-9 -26 -7 -32 5 -12 6 10 9 21 6 23 -2 3 -7 -2 -11 -11z"/>
<path d="M2781 3164 c0 -11 3 -14 6 -6 3 7 2 16 -1 19 -3 4 -6 -2 -5 -13z"/>
<path d="M2930 3140 c-8 -5 -10 -10 -5 -10 6 0 17 5 25 10 8 5 11 10 5 10 -5
0 -17 -5 -25 -10z"/>
<path d="M2876 2978 c-10 -40 -6 -112 8 -131 13 -16 14 -15 18 10 3 15 13 45
22 66 9 20 12 37 7 37 -4 0 -18 -21 -30 -47 l-22 -48 6 68 c7 67 3 87 -9 45z"/>
<path d="M2677 2740 c6 -22 98 -114 110 -109 4 2 -20 32 -53 65 -34 34 -59 54
-57 44z"/>
<path d="M2030 3160 c-12 -16 -19 -30 -16 -30 2 0 14 14 26 30 12 17 19 30 16
30 -2 0 -14 -13 -26 -30z"/>
<path d="M2123 3159 c-30 -19 -81 -89 -64 -89 4 0 14 12 22 27 8 14 32 39 53
55 45 32 37 38 -11 7z"/>
<path d="M3433 3070 c-51 -23 -58 -35 -8 -14 60 25 113 18 180 -22 56 -33 58
-34 35 -9 -34 36 -92 65 -132 65 -18 0 -52 -9 -75 -20z"/>
<path d="M3799 3033 c18 -31 80 -98 81 -87 0 15 -69 104 -81 104 -6 0 -6 -6 0
-17z"/>
<path d="M3471 2993 c-1 -29 19 -74 30 -67 12 7 11 84 -1 84 -5 0 -7 -15 -5
-32 l5 -33 -14 35 c-11 28 -15 30 -15 13z"/>
<path d="M3550 2933 c0 -43 5 -41 13 5 4 18 2 32 -3 32 -6 0 -10 -16 -10 -37z"/>
<path d="M3593 2920 c-26 -32 -28 -40 -10 -40 11 0 47 49 47 64 0 14 -16 3
-37 -24z"/>
<path d="M3422 2928 c2 -6 15 -18 29 -27 l24 -15 -24 27 c-26 29 -35 34 -29
15z"/>
<path d="M3642 2905 c-17 -21 -29 -42 -26 -47 8 -12 28 -10 50 7 18 13 18 14
-6 8 l-25 -6 24 26 c13 14 21 31 19 38 -2 7 -17 -4 -36 -26z"/>
<path d="M3990 2808 c-29 -44 -31 -53 -6 -25 14 15 26 32 26 38 0 14 -4 11
-20 -13z"/>
<path d="M4013 2668 c-37 -42 -37 -54 0 -19 21 19 37 36 37 38 0 10 -19 0 -37
-19z"/>
<path d="M1614 2891 c-7 -23 -8 -24 -15 -5 -5 12 -7 5 -6 -23 1 -24 4 -43 8
-43 11 0 31 58 26 77 -4 15 -6 14 -13 -6z"/>
<path d="M1537 2862 c-27 -29 -39 -65 -14 -44 13 11 51 72 44 72 -2 0 -15 -13
-30 -28z"/>
<path d="M2190 3033 c0 -10 5 -24 12 -31 16 -16 5 -15 -39 3 -45 19 -56 12
-14 -9 35 -18 81 -21 81 -5 0 6 -9 22 -20 36 -18 23 -20 23 -20 6z"/>
<path d="M2090 2999 c0 -5 5 -7 10 -4 6 3 10 8 10 11 0 2 -4 4 -10 4 -5 0 -10
-5 -10 -11z"/>
<path d="M2420 2942 c0 -5 12 -19 27 -33 l26 -24 -23 33 c-25 33 -30 38 -30
24z"/>
<path d="M2060 2765 c0 -23 24 -67 49 -89 28 -25 27 -14 -4 34 -14 22 -25 44
-25 49 0 5 -4 13 -10 16 -5 3 -10 -1 -10 -10z"/>
<path d="M2023 2735 c0 -22 2 -30 4 -17 2 12 2 30 0 40 -3 9 -5 -1 -4 -23z"/>
<path d="M1527 2621 c35 -16 130 -26 118 -13 -5 6 -39 13 -75 17 -47 4 -59 3
-43 -4z"/>
<path d="M1470 2511 c0 -12 21 -28 50 -35 24 -7 24 -7 5 8 -11 8 -25 20 -32
26 -15 12 -23 13 -23 1z"/>
<path d="M1430 2460 c0 -4 10 -10 23 -14 26 -7 72 -8 66 -2 -9 10 -89 24 -89
16z"/>
<path d="M1415 2402 c6 -6 38 -12 73 -14 34 -2 59 -1 55 3 -13 11 -140 22
-128 11z"/>
<path d="M1426 2354 c-17 -12 -16 -13 4 -24 11 -6 26 -9 33 -6 7 2 3 5 -8 6
-18 1 -18 2 4 14 22 12 22 13 4 18 -11 3 -27 -1 -37 -8z"/>
<path d="M960 2392 c0 -6 16 -13 36 -17 21 -3 48 -13 61 -22 34 -22 40 -9 6
15 -31 21 -103 38 -103 24z"/>
<path d="M992 2209 c2 -7 10 -15 17 -17 8 -3 12 1 9 9 -2 7 -10 15 -17 17 -8
3 -12 -1 -9 -9z"/>
<path d="M2030 2484 c0 -2 15 -10 34 -18 20 -8 46 -32 62 -55 15 -23 29 -39
31 -37 7 7 -23 59 -45 79 -18 16 -82 41 -82 31z"/>
<path d="M1930 2451 c0 -71 52 -137 125 -161 48 -16 56 -5 15 17 -62 34 -90
66 -103 117 -15 58 -37 74 -37 27z"/>
<path d="M3190 2462 c0 -4 10 -12 22 -17 12 -6 33 -25 45 -44 20 -30 23 -31
23 -12 0 26 -51 81 -74 81 -9 0 -16 -3 -16 -8z"/>
<path d="M2374 2418 c3 -11 -4 -20 -24 -28 -16 -7 -35 -19 -42 -28 -12 -14
-10 -14 12 -2 14 7 37 16 52 19 25 6 26 7 12 31 -9 14 -13 18 -10 8z"/>
<path d="M2502 2313 c-35 -25 -61 -47 -59 -50 6 -6 109 60 126 81 23 27 -1 16
-67 -31z"/>
<path d="M2582 2311 c-28 -22 -53 -45 -57 -51 -4 -6 -30 -10 -61 -9 -62 3 -79
-6 -40 -21 63 -24 161 -2 227 51 32 25 39 28 31 12 -27 -50 -167 -133 -225
-133 -15 0 -43 7 -62 14 -47 20 -44 11 5 -14 51 -26 93 -25 156 4 79 37 154
112 154 155 0 14 -42 -2 -81 -30 -16 -11 -44 -24 -62 -29 l-32 -9 25 21 c14
11 38 31 55 44 16 12 27 26 24 29 -4 3 -29 -12 -57 -34z"/>
<path d="M3900 2324 c0 -9 5 -12 13 -8 9 6 8 3 -1 -8 -7 -9 -12 -29 -10 -45 4
-28 8 -25 23 24 4 12 9 13 16 6 8 -8 6 -20 -6 -41 -17 -29 -17 -30 1 -50 22
-22 64 -38 64 -24 0 6 -12 15 -27 20 l-28 10 28 7 c15 4 27 13 27 21 0 16 -26
19 -35 4 -16 -25 -22 -6 -7 21 17 30 17 30 -11 55 -32 28 -47 31 -47 8z"/>
<path d="M3765 2311 c3 -5 1 -12 -5 -16 -23 -14 -10 -44 26 -55 46 -15 55 -6
14 15 -25 13 -29 19 -20 30 10 12 16 10 36 -13 22 -25 23 -26 24 -6 0 11 -8
28 -18 37 -19 18 -67 24 -57 8z"/>
<path d="M3750 2200 c0 -32 27 -90 46 -97 11 -4 24 2 37 18 l20 24 -7 -29
c-10 -42 -35 -76 -52 -69 -8 3 -26 22 -39 42 -14 19 -25 30 -25 24 0 -18 60
-84 74 -81 6 1 21 -3 33 -10 25 -14 121 -8 137 8 6 6 6 10 1 10 -5 0 1 7 13
16 35 24 28 57 -18 83 -22 12 -40 21 -40 19 0 -2 9 -21 20 -43 15 -29 17 -42
9 -52 -18 -21 -28 -15 -39 27 -16 60 -32 61 -24 1 l7 -51 -33 0 c-25 0 -31 3
-26 16 16 41 17 67 6 94 -13 31 -28 38 -47 19 -6 -6 -16 -8 -22 -4 -8 4 -4 13
11 26 22 18 22 19 3 17 -11 -1 -26 1 -32 5 -9 6 -13 2 -13 -13z m65 -60 c-10
-11 -21 -17 -24 -14 -3 3 3 12 13 20 28 20 32 17 11 -6z m175 -51 c0 -6 -4 -7
-10 -4 -5 3 -10 11 -10 16 0 6 5 7 10 4 6 -3 10 -11 10 -16z"/>
<path d="M1809 2166 c-39 -14 -88 -46 -109 -71 -19 -23 -3 -18 35 11 38 29
113 54 159 54 27 -1 58 -10 151 -44 16 -6 15 -4 -5 13 -53 45 -162 62 -231 37z"/>
<path d="M1910 2068 c-79 -21 -153 -95 -166 -165 -9 -49 14 -120 53 -159 89
-89 250 -60 331 60 40 60 44 133 11 197 -34 67 -128 95 -229 67z m155 -22 c46
-20 75 -69 75 -129 0 -56 -15 -90 -62 -134 -84 -81 -216 -84 -276 -8 -30 38
-46 96 -38 138 19 99 195 177 301 133z"/>
<path d="M1912 2001 c-63 -22 -89 -44 -113 -96 -25 -55 -23 -80 3 -30 29 58
54 81 110 105 70 30 85 24 55 -20 -46 -66 -40 -87 6 -25 32 43 42 64 34 73
-13 16 -32 15 -95 -7z"/>
<path d="M2030 1916 c-13 -25 -21 -48 -18 -52 8 -7 51 73 46 87 -2 5 -14 -11
-28 -35z"/>
<path d="M2006 1928 c-24 -33 -19 -45 5 -14 12 15 19 29 16 32 -3 3 -12 -5
-21 -18z"/>
<path d="M2060 1890 c-12 -16 -20 -35 -18 -42 2 -6 14 6 26 27 28 46 22 57 -8
15z"/>
<path d="M2232 1776 c-19 -42 -84 -107 -147 -149 -33 -21 -49 -36 -35 -32 73
22 176 115 196 177 9 29 -1 32 -14 4z"/>
<path d="M3388 2103 c7 -3 16 -2 19 1 4 3 -2 6 -13 5 -11 0 -14 -3 -6 -6z"/>
<path d="M3040 2057 c0 -2 14 -16 31 -33 32 -29 32 -29 15 -2 -14 21 -46 46
-46 35z"/>
<path d="M1290 1937 c-34 -17 -36 -70 -2 -75 13 -2 29 -16 38 -34 l15 -30 30
46 c16 26 29 51 29 56 0 18 -18 10 -43 -19 -24 -28 -26 -29 -41 -12 -20 22
-20 35 -1 51 16 13 20 30 8 30 -5 0 -19 -6 -33 -13z"/>
<path d="M1340 1909 c-19 -16 -30 -29 -25 -29 14 0 71 47 65 53 -3 3 -21 -8
-40 -24z"/>
<path d="M1406 1865 c-24 -57 -21 -85 9 -85 23 0 24 2 21 55 -2 31 -6 58 -9
61 -3 4 -13 -11 -21 -31z m18 -50 c3 -8 1 -15 -4 -15 -6 0 -10 7 -10 15 0 8 2
15 4 15 2 0 6 -7 10 -15z"/>
<path d="M1454 1855 c-8 -57 0 -77 28 -73 29 4 37 58 13 94 -23 35 -33 30 -41
-21z m36 -32 c0 -13 -4 -23 -10 -23 -5 0 -10 17 -10 38 0 27 3 33 10 22 5 -8
10 -25 10 -37z"/>
<path d="M1334 1688 c14 -10 115 -9 139 1 10 4 -20 7 -66 6 -47 0 -80 -3 -73
-7z"/>
<path d="M2510 1910 c0 -5 4 -10 9 -10 6 0 13 5 16 10 3 6 -1 10 -9 10 -9 0
-16 -4 -16 -10z"/>
<path d="M2735 1805 c-19 -20 -35 -31 -35 -25 0 5 -5 10 -12 10 -9 0 -9 -3 0
-12 14 -14 16 -32 2 -23 -6 4 -7 -1 -3 -12 5 -15 3 -16 -8 -5 -18 16 -34 16
-20 -1 6 -8 7 -18 3 -22 -4 -5 0 -4 8 0 12 7 13 6 4 -6 -6 -8 -7 -29 -3 -49 6
-35 6 -35 8 -5 2 45 34 105 76 148 21 20 33 37 27 37 -6 0 -27 -16 -47 -35z"/>
<path d="M2846 1758 c-20 -28 -20 -49 0 -74 14 -18 15 -17 9 18 -7 46 9 58 24
17 6 -17 15 -28 20 -25 12 8 -11 78 -26 83 -6 2 -18 -6 -27 -19z"/>
<path d="M2965 1761 c3 -2 -1 -11 -9 -20 -7 -9 -16 -26 -19 -39 -4 -19 -2 -22
14 -17 27 9 24 -13 -3 -25 -18 -8 -11 -9 30 -7 59 5 68 -2 50 -35 -7 -13 -14
-25 -15 -26 -1 -2 -18 8 -39 22 -36 24 -52 28 -40 8 3 -5 24 -22 47 -37 40
-29 41 -29 56 -10 10 14 14 39 11 87 -4 74 -25 109 -64 106 -13 -1 -21 -4 -19
-7z m57 -56 c3 -15 0 -26 -9 -30 -20 -7 -33 3 -27 19 3 8 0 17 -6 21 -8 5 -8
11 1 21 15 18 35 3 41 -31z"/>
<path d="M2755 1673 c-4 -12 1 -24 15 -35 18 -15 19 -18 6 -18 -22 0 -31 -27
-16 -45 17 -21 43 -19 57 4 18 28 10 54 -21 69 -15 8 -25 16 -23 19 3 2 15 -1
27 -7 28 -15 36 -7 15 14 -21 21 -51 20 -60 -1z m45 -78 c-7 -8 -16 -15 -21
-15 -5 0 -9 7 -9 15 0 9 9 15 21 15 18 0 19 -2 9 -15z"/>
<path d="M2827 1565 c-20 -43 -21 -45 -4 -45 11 0 37 51 37 73 0 19 -18 3 -33
-28z"/>
<path d="M2878 1573 c-31 -36 -41 -65 -27 -74 10 -6 16 0 20 22 8 38 19 49 19
20 0 -12 11 -33 25 -47 20 -20 28 -23 45 -14 29 15 25 52 -10 85 -35 33 -42
14 -8 -22 17 -19 19 -26 9 -36 -10 -9 -15 -8 -27 7 -8 11 -14 27 -14 35 0 32
-15 43 -32 24z"/>
<path d="M2180 1549 c0 -8 10 -20 23 -28 l22 -14 -20 24 c-11 13 -21 26 -22
28 -2 2 -3 -2 -3 -10z"/>
<path d="M2017 1405 c-31 -39 -33 -47 -12 -38 15 5 50 61 43 68 -2 2 -16 -11
-31 -30z"/>
<path d="M2044 1385 c-16 -33 -30 -63 -32 -67 -2 -5 1 -8 8 -8 14 0 63 106 57
123 -3 6 -17 -15 -33 -48z"/>
<path d="M2112 1419 c-5 -13 -12 -37 -16 -52 -11 -45 12 -22 24 24 12 45 6 66
-8 28z"/>
<path d="M2150 1414 c0 -5 9 -20 20 -34 14 -18 20 -21 20 -9 0 9 -9 24 -20 34
-11 10 -20 14 -20 9z"/>
<path d="M3261 1516 c-1 -37 2 -47 10 -39 8 8 8 22 1 50 l-10 38 -1 -49z"/>
<path d="M3291 1504 c0 -11 3 -14 6 -6 3 7 2 16 -1 19 -3 4 -6 -2 -5 -13z"/>
<path d="M3196 1465 c9 -77 21 -85 26 -19 6 63 1 84 -9 44 l-7 -25 -8 25 c-4
15 -5 5 -2 -25z"/>
<path d="M3327 1472 c-4 -18 -2 -44 3 -58 7 -18 7 -23 -1 -18 -23 14 -2 -20
21 -35 23 -15 24 -15 16 4 -4 11 -13 47 -20 80 -12 56 -13 57 -19 27z"/>
<path d="M3154 1465 c-3 -13 -1 -37 4 -52 9 -25 10 -23 11 25 1 56 -5 67 -15
27z"/>
<path d="M3290 1335 c0 -8 59 -35 77 -35 12 1 6 7 -17 20 -34 18 -60 25 -60
15z"/>
<path d="M2552 1396 c-18 -6 -30 -14 -27 -18 9 -8 65 11 65 23 0 5 -1 9 -2 8
-2 0 -18 -6 -36 -13z"/>
<path d="M2660 1375 c-7 -9 -10 -18 -7 -21 3 -3 10 4 17 15 13 25 8 27 -10 6z"/>
<path d="M2544 1345 c10 -8 23 -12 29 -8 11 7 -12 23 -33 23 -12 -1 -11 -4 4
-15z"/>
<path d="M2486 1299 c29 -32 60 -41 105 -29 57 16 54 25 -7 22 -38 -3 -62 1
-79 12 -34 22 -42 20 -19 -5z"/>
<path d="M3260 4236 c0 -2 37 -26 83 -52 168 -96 336 -219 460 -333 26 -24 47
-39 47 -34 0 17 -153 158 -242 224 -130 97 -348 219 -348 195z"/>
<path d="M882 3423 c-87 -124 -170 -386 -203 -643 -20 -151 -15 -443 10 -581
98 -556 495 -1074 1026 -1341 329 -166 676 -220 1045 -162 421 65 840 272
1144 564 215 207 344 418 431 705 59 196 69 273 69 525 0 232 -8 303 -55 495
-19 81 -69 228 -75 222 -2 -1 8 -39 20 -82 13 -44 36 -148 52 -230 26 -136 28
-170 29 -375 0 -177 -4 -246 -19 -325 -25 -137 -78 -309 -134 -434 -165 -371
-540 -712 -988 -897 -571 -236 -1140 -205 -1622 89 -451 275 -777 723 -882
1212 -31 143 -38 441 -16 625 27 223 92 454 170 608 29 57 28 67 -2 25z"/>
<path d="M1760 926 c0 -9 108 -61 185 -89 74 -26 289 -77 321 -76 11 0 -49 17
-132 39 -124 31 -229 68 -361 127 -7 3 -13 2 -13 -1z"/>
</g>
</svg>